<svg width="16" height="17" viewBox="0 0 16 17" fill="none" xmlns="http://www.w3.org/2000/svg">
<path d="M12.2324 2.88672C11.7146 2.88672 11.2969 3.30867 11.2969 3.83171C11.2969 4.35475 11.7146 4.7767 12.2324 4.7767C12.7503 4.7767 13.168 4.35475 13.168 3.83171C13.168 3.30867 12.7503 2.88672 12.2324 2.88672Z" fill="black"/>
<path d="M8.06308 4.10156C5.8917 4.10156 4.125 5.88606 4.125 8.07932C4.125 10.2726 5.8917 12.0571 8.06308 12.0571C10.2345 12.0571 12.0012 10.2726 12.0012 8.07932C12.0012 5.88606 10.2345 4.10156 8.06308 4.10156ZM8.06308 10.6286C6.67061 10.6286 5.53923 9.48582 5.53923 8.07932C5.53923 6.67282 6.67061 5.53004 8.06308 5.53004C9.45556 5.53004 10.5869 6.67282 10.5869 8.07932C10.5869 9.48582 9.45556 10.6286 8.06308 10.6286Z" fill="black"/>
<path d="M11.1877 16.1528H4.80404C2.15399 16.1528 0 13.9771 0 11.3003V4.85242C0 2.17568 2.15399 0 4.80404 0H11.1877C13.8377 0 15.9917 2.17568 15.9917 4.85242V11.3003C15.9917 13.9771 13.8377 16.1528 11.1877 16.1528ZM4.80404 1.52517C2.98512 1.52517 1.50561 3.01958 1.50561 4.85682V11.3047C1.50561 13.142 2.98512 14.6364 4.80404 14.6364H11.1877C13.0066 14.6364 14.4861 13.142 14.4861 11.3047V4.85682C14.4861 3.01958 13.0066 1.52517 11.1877 1.52517H4.80404Z" fill="black"/>
</svg>
