<svg width="19" height="18" viewBox="0 0 19 18" fill="none" xmlns="http://www.w3.org/2000/svg">
<path d="M14.5476 3.28979C13.9451 3.28979 13.459 3.75102 13.459 4.32274C13.459 4.89446 13.9451 5.35569 14.5476 5.35569C15.1501 5.35569 15.6362 4.89446 15.6362 4.32274C15.6362 3.75102 15.1501 3.28979 14.5476 3.28979Z" fill="#C5A341"/>
<path d="M9.69659 4.61792C7.16998 4.61792 5.11426 6.56851 5.11426 8.9659C5.11426 11.3633 7.16998 13.3139 9.69659 13.3139C12.2232 13.3139 14.2789 11.3633 14.2789 8.9659C14.2789 6.56851 12.2232 4.61792 9.69659 4.61792ZM9.69659 11.7525C8.07632 11.7525 6.75985 10.5033 6.75985 8.9659C6.75985 7.42849 8.07632 6.17935 9.69659 6.17935C11.3169 6.17935 12.6333 7.42849 12.6333 8.9659C12.6333 10.5033 11.3169 11.7525 9.69659 11.7525Z" fill="#C5A341"/>
<path d="M13.3323 17.7907H5.9044C2.82082 17.7907 0.314453 15.4125 0.314453 12.4866V5.43858C0.314453 2.5127 2.82082 0.134521 5.9044 0.134521H13.3323C16.4159 0.134521 18.9223 2.5127 18.9223 5.43858V12.4866C18.9223 15.4125 16.4159 17.7907 13.3323 17.7907ZM5.9044 1.80165C3.78792 1.80165 2.06637 3.43514 2.06637 5.44338V12.4914C2.06637 14.4997 3.78792 16.1332 5.9044 16.1332H13.3323C15.4488 16.1332 17.1704 14.4997 17.1704 12.4914V5.44338C17.1704 3.43514 15.4488 1.80165 13.3323 1.80165H5.9044Z" fill="#C5A341"/>
</svg>
