<svg width="17" height="17" viewBox="0 0 17 17" fill="none" xmlns="http://www.w3.org/2000/svg">
<path d="M1.13552 5.74253H4.42224V16.4083H1.13552V5.74253ZM2.7765 0.438477C3.82768 0.438477 4.67909 1.29846 4.67909 2.36024C4.67909 3.42201 3.82768 4.282 2.7765 4.282C1.72531 4.282 0.869141 3.4172 0.869141 2.36024C0.869141 1.30327 1.72056 0.438477 2.7765 0.438477Z" fill="#C5A341"/>
<path d="M6.47949 5.74105H9.62828V7.20159H9.67109C10.1087 6.36082 11.1789 5.47681 12.7818 5.47681C16.1066 5.47681 16.7202 7.68683 16.7202 10.5599V16.4116H13.4382V11.2229C13.4382 9.98333 13.4145 8.39308 11.7307 8.39308C10.0469 8.39308 9.76147 9.73831 9.76147 11.1316V16.4068H6.47949V5.74105Z" fill="#C5A341"/>
</svg>
