<svg width="21" height="15" viewBox="0 0 21 15" fill="none" xmlns="http://www.w3.org/2000/svg">
<path d="M1.23828 14.0122C0.566976 13.3681 0.324626 12.3012 0.213904 11.4022C-0.0671589 9.11389 -0.0756759 5.94146 0.214679 3.65706C0.504259 1.38051 1.25996 0.432076 3.57273 0.234388C7.36824 -0.0903861 11.9946 -0.0386106 15.8094 0.152018C17.7955 0.250862 19.7962 0.088475 20.5263 2.35483C21.1783 4.37878 21.0459 9.14449 20.7911 11.3246C20.4977 13.8341 19.7521 14.6037 17.2767 14.8241C14.0843 15.1089 10.6496 14.9802 7.44722 14.9002C5.89324 14.8618 2.38808 15.1144 1.23828 14.013V14.0122ZM8.33377 4.39134V10.1965L13.9086 7.37157L8.33377 4.39134Z" fill="#C5A341"/>
</svg>
