<svg width="65" height="77" viewBox="0 0 65 77" fill="none" xmlns="http://www.w3.org/2000/svg">
<path d="M42.8585 76.74C40.8761 76.3137 41.9606 71.7486 41.9859 70.3185C42.0691 65.9048 41.9051 61.4784 41.9732 57.0671C40.8912 57.7834 40.3465 59.0849 39.4612 59.9752C37.0702 62.3813 32.6614 63.4154 29.7206 65.1406C28.8 65.2389 28.6764 64.2301 28.114 63.7408C27.2842 63.0194 25.7861 61.8391 24.7015 61.8365C23.9575 61.8365 22.0583 62.5806 22.6056 61.032C22.7141 60.7217 23.6901 59.7331 23.9953 59.6423C25.269 59.2614 26.4443 60.0811 27.1203 59.9676C27.5188 59.902 34.0713 56.6939 34.4017 56.4265C36.3665 54.8477 39.1232 49.2485 41.0905 46.9735C41.9505 45.9798 44.1095 44.3177 45.4336 44.2395C45.8876 44.2117 45.8952 44.4992 46.0339 44.8145C47.0075 47.0416 47.2395 50.6306 48.034 53.0292L49.0479 48.3506C49.1084 45.5308 46.899 43.6695 52.0619 44.9658C51.9004 46.2421 51.1388 46.9735 51.048 48.3531C50.9824 49.3645 51.1942 50.8299 51.3456 51.8589C51.4036 52.2574 51.4565 53.3772 51.8122 53.5311C52.531 51.6445 53.7593 45.7956 55.0809 44.5673C56.0544 43.6594 58.3496 44.7691 59.3862 45.3316C62.3144 46.9205 63.6461 49.6495 63.9185 52.9056C64.3649 58.245 63.858 64.5857 63.9109 70.0638C63.9185 70.8986 64.2338 71.5922 64.1733 72.5708C63.9109 76.7526 59.018 77.2721 58.4379 73.2669C58.0394 70.5052 58.2109 66.0107 58.11 63.0018C57.9965 59.6549 58.0192 56.2903 57.8805 52.9434C55.9157 51.8513 56.8464 54.6711 56.8691 55.6674C56.9927 60.8125 56.4 69.8999 57.4164 74.5406C57.5072 74.9618 59.0911 76.7374 58.2462 76.7374H42.861L42.8585 76.74Z" fill="#FCD901"/>
<path d="M12.9684 50.5092C13.2509 50.2974 13.2963 47.6239 13.2307 47.0993C13.1248 46.272 12.0176 45.0362 13.0289 44.6225C13.6116 44.3855 15.7529 44.2013 15.9723 44.8722C16.2094 45.5961 15.478 46.9555 15.4754 47.861C15.4704 49.2204 16.2699 50.8598 16.2523 52.2722C16.6306 52.131 16.7643 51.1574 16.8777 50.7589C17.1224 49.9065 18.2801 44.6654 18.5525 44.4914C20.0481 43.5355 23.6245 46.7815 24.3686 48.0628C25.5489 50.0956 25.6195 54.8625 25.3421 57.2056C25.3068 57.5082 25.332 57.715 25.0848 57.9572C24.9814 58.0581 22.8401 58.9862 22.4769 59.13C21.975 59.3292 21.4756 59.5814 20.9182 59.589C20.1086 59.6016 15.4502 58.9635 14.7238 58.7163C14.1236 58.5095 13.3114 57.5536 12.8398 57.0694C12.0554 56.2648 9.72492 53.1474 9.0742 52.7666C7.66432 51.9418 7.68954 52.8574 8.43105 53.9142C8.94557 54.6481 12.9079 59.0745 13.488 59.4503C15.2056 60.5701 20.5551 60.0354 21.1578 61.1124C21.5009 61.7228 21.2512 62.4416 22.0658 62.9763C23.11 63.6623 23.8313 62.9737 24.8906 63.1679C25.6574 63.3092 27.5969 64.7241 27.9122 65.453C28.974 67.897 24.7393 69.264 22.714 68.129C22.2399 67.8642 21.8792 67.2791 21.3773 66.9436C18.6887 65.1428 14.1816 66.2374 11.1903 65.2765C9.93426 64.8729 5.5104 59.2258 4.80924 59.357C4.67556 59.3822 4.14843 59.9219 4.14843 59.9673C4.14843 60.3961 9.50045 65.7506 10.1083 66.1088C11.6821 67.0344 16.5827 66.926 18.6508 67.153C20.8602 67.3951 19.7959 69.095 19.7707 70.5478C19.7505 71.7786 20.0304 75.1961 19.7404 76.0662C19.5411 76.659 18.6811 76.7018 18.154 76.7498C14.1538 77.1079 6.78661 77.0575 2.74863 76.7498C1.51278 76.6539 0.98817 76.6968 0.864584 75.355C0.675423 73.2843 0.937727 70.9059 0.874673 68.7848C0.725866 63.6799 0.216391 58.275 0.60228 53.1474C0.88224 49.4197 2.50651 46.1611 6.16616 44.8394C6.6605 44.6604 8.33521 44.1862 8.75641 44.2518C10.4336 44.504 12.4488 50.8977 12.9684 50.5092Z" fill="#FCD901"/>
<path d="M57.8653 28.1883C57.7796 28.486 57.3685 28.6196 57.028 28.5263C56.6522 28.4229 55.0027 27.0483 54.077 26.6801C51.512 25.6586 49.6885 25.6763 47.0755 26.4783C46.5308 26.6448 44.9973 27.5603 44.8737 27.5502C44.2659 27.5099 44.7905 25.7469 44.7526 25.1719C43.7362 10.0616 22.0482 8.80054 19.811 24.4354C19.7278 25.0205 19.9952 27.2425 19.405 27.293C19.1931 27.3106 17.7681 26.501 17.3166 26.3648C13.4829 25.2021 10.2092 25.8049 7.26079 28.5465C6.46883 28.438 6.46127 27.8201 6.39821 27.1946C6.29228 26.1479 6.25445 22.1932 6.79419 21.5072C7.65677 20.4125 11.3341 21.0027 12.7213 20.3722C12.8953 19.1843 15.0996 15.623 14.7617 14.8083C14.2497 13.5775 11.2761 11.4992 11.4955 10.0843C11.5888 9.47143 16.0833 4.94921 16.6407 4.85337C18.5651 4.52549 20.3281 7.94805 21.685 8.14478C22.7771 8.30116 25.7558 6.15985 27.1959 6.14723C27.9853 4.49522 26.9916 0.437076 29.254 0.081452C30.1393 -0.0572666 35.4686 -0.0396115 36.0058 0.298357C37.1382 1.01213 36.5581 5.04001 37.2038 5.97321C37.6275 6.58609 41.0955 7.33013 41.9127 8.08929C43.8169 8.47014 45.648 4.51036 47.6405 4.85589C48.2029 4.95426 52.6672 9.45126 52.7832 10.0894C53.0783 11.6909 49.6734 13.7389 49.5422 15.0883C49.4716 15.802 51.565 18.9648 51.5826 20.0973C52.3468 21.1187 57.8678 20.4226 57.8678 21.883C57.8678 23.2172 58.1352 27.2551 57.8678 28.1883H57.8653Z" fill="#FCD901"/>
<path d="M44.4374 42.489C45.2647 43.9115 42.8005 42.5823 42.1195 42.6933C41.6302 42.7715 40.6012 43.5659 39.953 43.8232C39.2418 44.1057 37.7436 44.2948 37.2921 44.6933C36.4119 45.4702 37.3148 49.8436 35.6048 50.5725C34.7574 50.9332 29.3045 50.9105 28.5302 50.4615C27.4028 49.8083 27.7079 46.0099 27.3044 44.7539C25.8718 44.7665 22.825 42.5621 21.8767 42.4789C21.4177 42.4385 21.2285 43.1347 20.661 43.2027C18.5979 43.4499 21.4101 41.3212 21.7985 40.8017C23.1 39.0513 23.3068 36.9402 23.6927 34.8721C28.2048 38.3022 33.3727 38.9554 38.4498 36.2668C38.8937 36.0323 40.407 34.8368 40.5861 34.8771C41.0148 34.9679 41.0602 37.4346 41.2923 38.2114C41.6479 39.4019 42.6593 40.8899 43.479 41.8257C43.7388 42.1233 44.4122 42.4411 44.4424 42.4915L44.4374 42.489Z" fill="#FCD901"/>
<path d="M48.9773 27.6234C59.5854 26.1883 60.6523 42.2494 50.4149 42.6933C41.2923 43.0893 39.4536 28.9122 48.9773 27.6234Z" fill="#FCD901"/>
<path d="M13.1626 27.6235C22.3231 26.375 25.0798 39.3414 16.6381 42.1965C6.38305 45.6645 2.39048 29.0914 13.1626 27.6235Z" fill="#FCD901"/>
<path d="M21.0418 69.2996C21.2864 68.4169 22.9158 69.7082 23.4933 69.8747C24.4543 70.1496 25.1706 69.4358 25.3396 70.8028C25.4884 72.0034 25.4606 75.3225 24.7166 76.2557C23.6447 77.5975 21.0393 76.8283 21.0393 75.605C21.0393 74.238 20.7669 70.2807 21.0393 69.2996H21.0418Z" fill="#FCD901"/>
</svg>
