<svg width="68" height="86" viewBox="0 0 68 86" fill="none" xmlns="http://www.w3.org/2000/svg">
<path d="M33.0589 0.0677499C36.3257 -0.674366 40.2115 4.88012 42.9434 6.96078C46.6833 9.81086 51.1393 12.1328 55.6306 13.4395C58.1018 14.1588 64.41 14.7644 65.86 15.6431C67.31 16.5218 67.5487 17.6919 67.6813 19.2125C69.8916 43.8617 60.6039 69.5626 39.8667 83.1711C34.3011 86.8224 34.1641 87 28.5233 83.3486C7.98508 70.0497 -2.36362 43.2152 0.456746 18.7709C0.673357 16.8997 1.70778 15.5793 3.52908 15.124C12.5516 12.8567 17.1579 13.0844 25.1858 6.96533C26.9673 5.60858 31.7371 0.368238 33.0589 0.0723027V0.0677499ZM46.3164 29.5202C45.2422 29.7706 44.5216 30.7176 43.7789 31.4506L31.1315 45.701C29.8981 45.915 24.9028 38.2526 21.8835 38.0477C18.8643 37.8428 17.3789 41.0389 18.4885 43.8071C18.767 44.5036 27.8735 53.9599 28.7797 54.5472C32.0422 56.6598 33.9784 53.8279 36.0605 51.6289C41.0558 46.3567 45.5251 40.4835 50.6044 35.2795C52.3594 31.9241 50.096 28.6415 46.3164 29.5202Z" fill="#FCD901"/>
</svg>
