<svg width="134" height="59" viewBox="0 0 134 59" fill="none" xmlns="http://www.w3.org/2000/svg">
<path d="M68.2059 37.7224C68.16 38.5002 67.7797 39.129 67.2486 39.68C54.9935 52.4108 39.2043 64.1628 20.5365 56.6371C13.8615 53.947 6.97665 46.9269 5.90786 39.667C23.815 57.6159 46.6727 46.2593 60.2982 29.6198C50.6659 17.2196 33.6964 3.19235 19.6972 18.6391C19.3628 20.1171 25.8018 22.4117 27.1919 23.4683C27.8672 23.9804 27.3492 23.922 26.8837 24.4276L5.90786 29.9439L0 8.55951L8.8585 12.909C26.4903 -9.49307 53.7674 0.690269 68.1731 20.5643L69.1304 20.843C81.6805 7.44459 96.696 -5.72699 116.505 2.60248C140.339 12.6173 139.677 47.8603 115.397 56.838C100.565 62.3218 87.7654 56.3 77.0316 46.1685C75.7268 44.9369 69.478 36.8408 68.2059 37.7289V37.7224ZM101.476 11.9626C92.0799 13.2914 83.9492 22.7747 78.0742 29.529C86.3163 39.6151 98.991 52.145 113.239 44.9823C130.366 36.3806 122.072 9.04567 101.47 11.9626H101.476Z" fill="#FCD901"/>
</svg>
