<svg width="573" height="173" viewBox="0 0 573 173" fill="none" xmlns="http://www.w3.org/2000/svg">
<g clip-path="url(#clip0_6065_294)">
<path d="M169.202 56.3323C164.334 43.3169 157.537 30.3871 149.174 19.2769C135.364 0.909794 111.969 0.460249 91.0501 0.0856277C88.4661 0.0428138 85.8071 0 83.1051 0C66.9472 0 49.0845 1.18808 34.8995 7.76001C22.9981 13.2723 7.91242 42.482 2.73374 56.3323C0.1712 63.1611 -0.439948 69.9685 0.27842 76.6475C1.89743 91.6644 10.2712 106.061 18.5807 118.766C18.5914 118.787 48.3018 164.212 57.1474 168.676C63.8486 172.058 77.8836 172.797 84.306 172.957V173C84.306 173 84.9171 173 85.9679 173C87.0186 173.011 87.6298 173 87.6298 173V172.957C94.0522 172.797 108.087 172.069 114.788 168.676C123.623 164.202 153.344 118.787 153.355 118.766C161.665 106.071 170.038 91.6644 171.657 76.6475C172.376 69.9685 171.765 63.1611 169.213 56.3323H169.202ZM166.061 77.0007C164.538 91.0971 156.679 104.616 148.884 116.539C148.873 116.561 120.975 159.203 112.676 163.399C106.393 166.578 93.2052 167.263 87.1795 167.413V167.456C87.1795 167.456 86.6112 167.456 85.6141 167.456C84.6276 167.466 84.0487 167.456 84.0487 167.456V167.413C78.0229 167.263 64.8457 166.578 58.552 163.399C50.2532 159.203 22.3548 116.561 22.3441 116.539C14.5493 104.616 6.69012 91.0971 5.16761 77.0007C4.49213 70.7284 5.07111 64.3385 7.4621 57.9271C12.3298 44.9224 26.4935 17.5109 37.655 12.3304C48.8165 7.16061 60.9751 5.75846 69.9922 5.61932C76.6398 5.51228 82.8156 5.5658 85.6033 5.59791C88.391 5.5658 94.5669 5.51228 101.214 5.61932C110.232 5.75846 122.39 7.16061 133.552 12.3304C144.713 17.5109 158.877 44.9224 163.745 57.9271C166.146 64.3385 166.725 70.7284 166.039 77.0007H166.061Z" fill="white"/>
<path d="M155.596 57.6914C150.074 39.5277 127.966 21.3639 119.442 17.4571C113.674 14.8134 97.8051 14.2461 84.8423 14.2461C78.6558 14.2461 73.134 14.3745 69.6923 14.4709C69.5743 14.4709 69.4028 14.4709 69.1562 14.4709C65.1569 14.4709 44.3671 14.4602 32.38 31.0184C18.7525 49.8458 10.7432 69.4117 13.2736 79.0127C15.3108 86.7727 22.087 93.837 25.0999 96.363C28.1127 98.889 39.0491 103.77 48.999 101.736C58.9489 99.7025 64.8245 93.4303 69.0704 88.3782C73.3163 83.3262 74.6136 70.1395 73.6379 62.1548C72.6622 54.17 67.2798 41.7968 66.4542 39.6775C65.6394 37.5582 64.4921 35.8457 65.7252 33.3304C66.9474 30.8043 69.1562 31.1362 72.6622 30.89C76.1683 30.6438 104.152 32.1958 107.819 33.3304C111.486 34.4649 113.448 35.364 111.979 39.1102C110.682 42.4176 98.3519 53.774 93.7093 56.6211C91.715 57.8413 90.6857 58.8153 89.8709 57.3489C89.056 55.8825 88.9059 53.774 90.6857 51.644C91.6507 50.4987 92.6157 49.3534 93.5914 48.2189C94.3312 47.3519 95.2854 46.4956 95.843 45.5002C96.9795 43.4879 97.0224 40.7264 94.8887 39.4099C92.8408 38.1576 90.1389 38.0185 87.823 37.6331C82.4406 36.7341 78.1947 39.4206 77.0582 43.3381C75.911 47.2449 81.7866 62.5615 84.1561 66.3077C86.5256 70.0539 87.823 70.5463 90.0317 71.1136C92.2297 71.6808 97.9445 67.8597 108.388 64.1884C118.831 60.5278 131.804 65.1624 134.656 67.1212C137.508 69.0799 138.495 69.401 138.816 72.6549C139.138 75.9087 135.064 81.4531 127.065 94.3936C119.067 107.345 103.82 123.057 103.82 123.057C103.82 123.057 110.017 110.352 111.572 106.938C113.127 103.513 121.039 88.2926 124.546 82.5127C128.052 76.7329 127.977 71.4347 121.608 69.0799C115.25 66.7144 103.005 69.6472 89.635 79.1733C76.2541 88.6993 74.7852 97.2514 56.2684 104.423C37.7517 111.594 25.3465 105.397 25.3465 105.397L30.6538 115.255C35.9611 125.113 51.2077 144.25 51.2077 144.25C51.2077 144.25 59.5601 132.669 66.54 124.834C77.219 112.857 89.3026 105.975 89.3026 105.975C89.3026 105.975 83.5128 112.729 76.6615 121.527C69.8102 130.325 59.7745 151.571 59.7745 151.571C59.7745 151.571 58.8739 151.657 63.5272 154.825C68.1805 158.004 91.0181 159.064 99.7458 158.657C108.473 158.25 115.839 155.221 121.693 147.419C130.207 136.062 140.95 117.374 148.209 104.016C155.467 90.6581 157.998 80.4042 158.974 73.6396C159.949 66.8857 155.596 57.6807 155.596 57.6807V57.6914ZM54.7245 58.9116L50.5322 58.8367C50.5322 58.8367 50.6394 57.8199 50.425 57.4988C50.2106 57.1777 38.2878 57.7664 38.2878 57.7664C38.2878 57.7664 36.9368 67.4102 37.1834 67.6242C37.43 67.8383 49.3314 67.5493 49.578 67.5172C49.8246 67.4851 49.7173 64.9163 49.7173 64.9163L45.7717 64.8841L46.0933 61.2343L54.3278 61.2664C54.3278 61.2664 53.9096 67.7313 53.8024 68.9622C53.6952 70.1931 52.2155 70.5035 51.3685 70.7175C50.5215 70.9316 39.6066 70.9958 36.583 70.8567C33.5594 70.7175 33.4844 69.4545 33.0662 68.427C32.6481 67.4102 33.8811 58.4835 34.0526 56.8994C34.2242 55.3153 35.6395 54.5767 36.3042 54.2235C36.969 53.8703 50.4893 53.7633 52.3228 54.0522C54.1562 54.3305 54.6065 55.4972 54.821 56.1608C55.0354 56.8244 54.7138 58.9009 54.7138 58.9009L54.7245 58.9116Z" fill="white"/>
<path d="M348.258 142.324C345.824 142.324 343.519 142.345 341.214 142.302C340.913 142.302 340.549 142.035 340.345 141.789C340.056 141.446 339.884 140.997 339.659 140.59C333.741 129.79 327.822 118.99 321.893 108.201C321.678 107.805 321.432 107.42 321.067 107.045C320.874 108.993 320.917 110.931 320.917 112.857C320.917 114.794 320.917 116.732 320.917 118.669V142.238H313.251V91.6536C313.626 91.6108 313.98 91.5359 314.334 91.5359C316.092 91.5251 317.851 91.5787 319.609 91.5037C320.574 91.4609 321.089 91.782 321.55 92.6383C324.723 98.5252 327.951 104.38 331.167 110.246C333.987 115.383 336.796 120.521 339.616 125.648C339.852 126.076 340.109 126.493 340.592 126.868V91.6215H348.247V142.313L348.258 142.324Z" fill="white"/>
<path d="M533.49 91.6218C533.929 91.5897 534.294 91.5361 534.648 91.5254C536.449 91.5254 538.261 91.5575 540.062 91.504C540.877 91.4826 541.295 91.7716 541.681 92.4781C544.329 97.3909 547.031 102.282 549.712 107.174C553.1 113.36 556.499 119.558 559.887 125.744C560.101 126.14 560.337 126.526 560.712 127.189C560.948 125.273 560.809 123.647 560.83 122.03C560.863 120.328 560.83 118.616 560.83 116.903V91.6325H568.454V142.206C568.078 142.249 567.725 142.313 567.371 142.313C565.569 142.324 563.757 142.271 561.956 142.335C561.098 142.367 560.637 142.046 560.241 141.307C556.831 135.024 553.379 128.752 549.948 122.491C547.332 117.717 544.715 112.943 542.089 108.169C541.874 107.773 541.627 107.399 541.177 107.067V142.067C540.084 142.388 535.57 142.463 533.618 142.238C533.307 141.275 533.157 94.6723 533.479 91.6432L533.49 91.6218Z" fill="white"/>
<path d="M357.468 91.611C357.865 91.5789 358.187 91.5361 358.497 91.5361C362.529 91.5361 366.55 91.4933 370.581 91.5361C376.189 91.611 380.949 93.6233 384.659 97.894C386.846 100.409 388.272 103.342 389.194 106.532C389.88 108.886 390.299 111.295 390.342 113.746C390.417 117.578 390.556 121.409 389.741 125.188C388.755 129.801 386.9 133.965 383.404 137.24C380.37 140.087 376.778 141.864 372.618 142.078C367.729 142.324 362.818 142.249 357.919 142.303C357.79 142.303 357.661 142.238 357.543 142.206C357.286 141.2 357.2 93.452 357.479 91.611H357.468ZM365.252 98.5576C364.952 100.655 365.038 134.147 365.317 135.153C367.247 135.153 369.198 135.26 371.128 135.131C375.878 134.81 379.137 132.348 380.938 127.971C381.378 126.911 381.753 125.809 381.968 124.685C382.922 119.793 382.825 114.87 382.182 109.967C381.893 107.816 381.206 105.75 380.059 103.867C378.322 101.019 375.867 99.1998 372.5 98.8787C370.12 98.6539 367.718 98.6646 365.263 98.5576H365.252Z" fill="white"/>
<path d="M273.709 45.0404V77.4397H266.868C266.536 76.4015 266.482 32.1106 266.836 30.6121C268.262 30.6121 269.731 30.5907 271.2 30.6121C274.352 30.6763 273.419 30.0769 274.942 32.8598C280.281 42.5572 285.567 52.2759 290.885 61.9839C291.121 62.4121 291.378 62.8295 291.786 63.2363C291.936 60.5283 291.936 57.8417 291.936 55.1551C291.936 52.4365 291.936 49.7178 291.936 46.9884V38.9608C291.936 36.2421 291.936 33.5342 291.936 30.7084H298.766C299.066 31.7895 299.098 76.0911 298.766 77.5147C296.632 77.5147 294.477 77.5361 292.311 77.4933C292.065 77.4933 291.754 77.2043 291.593 76.9581C291.26 76.4657 290.992 75.9198 290.714 75.3954C285.374 65.6445 280.045 55.8937 274.706 46.1428C274.491 45.7468 274.256 45.3615 274.02 44.9654C273.912 44.9869 273.805 45.0083 273.698 45.0404H273.709Z" fill="white"/>
<path d="M526.059 117C525.952 121.377 525.545 125.68 524.162 129.844C523.111 132.991 521.567 135.849 519.229 138.235C512.7 144.904 500.648 144.797 494.312 136.437C491.974 133.355 490.516 129.876 489.873 126.108C488.715 119.376 488.661 112.622 490.302 105.932C491.031 102.957 492.285 100.195 494.076 97.68C500.627 88.5072 514.469 88.6249 520.945 97.6586C523.25 100.88 524.644 104.477 525.234 108.341C525.673 111.198 525.802 114.11 526.07 117H526.059ZM496.778 116.914C496.928 119.162 496.982 121.431 497.25 123.668C497.625 126.772 498.547 129.694 500.466 132.252C504.037 137.026 511.713 136.908 515.059 131.771C516.345 129.801 517.117 127.65 517.514 125.359C518.393 120.222 518.329 115.062 517.728 109.914C517.407 107.153 516.549 104.52 514.973 102.165C511.542 97.0057 503.629 96.9843 500.209 102.036C499.265 103.428 498.547 104.905 498.064 106.51C497.024 109.903 496.831 113.393 496.789 116.925L496.778 116.914Z" fill="white"/>
<path d="M265.142 116.903C265.003 121.452 264.638 125.947 263.105 130.261C261.797 133.943 259.845 137.175 256.725 139.626C250.11 144.818 238.895 144.325 232.966 135.848C230.725 132.648 229.374 129.073 228.784 125.262C227.819 118.969 227.808 112.675 229.256 106.435C229.953 103.449 231.143 100.666 232.869 98.1077C239.42 88.3676 253.905 88.4746 260.381 98.1398C262.633 101.501 263.93 105.226 264.477 109.197C264.82 111.744 264.938 114.334 265.153 116.903H265.142ZM257.401 118.016C257.176 115.126 257.058 112.226 256.704 109.357C256.361 106.638 255.428 104.102 253.809 101.822C250.517 97.1872 242.991 97.0374 239.549 101.672C238.123 103.599 237.233 105.75 236.718 108.062C235.785 112.29 235.796 116.571 236.053 120.853C236.161 122.544 236.397 124.246 236.74 125.905C237.319 128.645 238.38 131.181 240.417 133.204C244.041 136.811 250.206 136.512 253.487 132.594C254.817 131.01 255.621 129.158 256.168 127.189C257.004 124.192 257.176 121.109 257.401 118.005V118.016Z" fill="white"/>
<path d="M382.75 77.4609V30.751C383.147 30.6975 383.49 30.6225 383.844 30.6225C388.24 30.6225 392.636 30.5797 397.032 30.6225C399.209 30.644 401.364 30.9008 403.433 31.6394C407.1 32.9559 409.491 35.4391 410.402 39.2495C410.917 41.4223 411.056 43.6272 410.585 45.8322C410.016 48.5187 408.633 50.6808 406.339 52.2435C406.006 52.4683 405.663 52.6931 405.245 52.9821C405.406 53.1105 405.481 53.1961 405.577 53.239C409.073 54.6732 410.917 57.4133 411.582 60.9776C412.107 63.7819 411.925 66.5969 411.003 69.3155C409.566 73.5862 406.467 76.0587 402.125 77.0006C400.731 77.3003 399.284 77.4823 397.868 77.5037C393.151 77.5679 388.433 77.5358 383.705 77.5358C383.437 77.5358 383.158 77.5037 382.729 77.4716L382.75 77.4609ZM389.805 56.1824C389.816 61.2665 389.784 66.0724 389.838 70.9318C392.797 70.9318 395.574 71.0495 398.34 70.8997C402.061 70.707 404.334 68.5021 404.645 64.8094C404.763 63.4179 404.58 61.9516 404.259 60.5815C403.712 58.2482 402.136 56.7283 399.734 56.5356C396.517 56.2787 393.279 56.3001 389.805 56.1931V56.1824ZM389.881 50.1778C392.84 50.1778 395.67 50.3704 398.458 50.1242C400.988 49.8995 402.854 48.4331 403.454 45.8322C403.701 44.7297 403.712 43.5416 403.637 42.4071C403.454 39.5706 401.835 37.7189 398.983 37.4621C396.056 37.1945 393.086 37.2908 390.138 37.2373C390.063 37.2373 389.998 37.3336 389.881 37.4192V50.1671V50.1778Z" fill="white"/>
<path d="M272.047 91.5897H279.627C279.649 92.1784 279.692 92.7136 279.692 93.2487C279.692 103.813 279.692 114.367 279.692 124.931C279.692 126.644 279.745 128.335 280.26 129.994C281.397 133.686 283.916 135.656 287.787 135.774C288.795 135.806 289.835 135.795 290.821 135.613C294.477 134.907 296.311 132.423 296.954 128.966C297.211 127.575 297.286 126.13 297.286 124.706C297.308 114.281 297.297 103.856 297.297 93.4414C297.297 92.8955 297.297 92.3389 297.297 91.8145C298.316 91.4506 303.376 91.3863 305.038 91.7181C305.038 92.1356 305.038 92.5851 305.038 93.024C305.038 103.77 305.038 114.517 305.038 125.263C305.038 128.056 304.727 130.796 303.623 133.376C301.425 138.578 297.533 141.703 291.925 142.656C288.923 143.17 285.921 143.105 283.005 142.238C277.365 140.558 273.945 136.726 272.572 131.085C272.197 129.533 271.983 127.896 271.972 126.301C271.918 115.052 271.94 103.792 271.94 92.5423C271.94 92.2747 271.983 91.9964 272.015 91.579L272.047 91.5897Z" fill="white"/>
<path d="M405.009 130.496C403.808 134.457 402.618 138.374 401.439 142.238H393.387C398.984 125.273 404.527 108.437 410.081 91.5894H417.05C422.593 108.383 428.169 125.23 433.765 142.195C433.347 142.26 433.133 142.324 432.908 142.324C430.549 142.324 428.201 142.324 425.724 142.324C424.512 138.363 423.312 134.457 422.1 130.496H404.988H405.009ZM413.694 102.903C413.608 102.903 413.512 102.924 413.426 102.924C411.367 109.667 409.309 116.411 407.218 123.229H419.913C417.822 116.379 415.753 109.646 413.694 102.903Z" fill="white"/>
<path d="M338.287 77.461H330.449C327.758 71.5634 325.034 65.5802 322.311 59.5969H314.495V77.2683C313.39 77.5787 309.294 77.643 307.504 77.4182C307.225 76.4121 307.096 33.6839 307.375 30.719C307.74 30.6869 308.137 30.6227 308.533 30.6227C312.972 30.6227 317.422 30.5477 321.861 30.6548C323.737 30.6976 325.667 30.9331 327.468 31.4468C331.961 32.7312 334.813 35.7068 335.917 40.2879C336.571 43.0173 336.635 45.7788 336.078 48.5188C335.349 52.1366 333.365 54.9302 330.213 56.889C329.859 57.103 329.505 57.3171 328.991 57.6275C332.057 64.1566 335.113 70.6857 338.287 77.461ZM314.527 52.9608C317.486 52.8752 320.381 53.132 323.276 52.7895C325.892 52.4791 328.626 50.7666 329.13 46.7207C329.312 45.2436 329.184 43.6702 328.873 42.2038C328.358 39.7634 326.76 38.1472 324.294 37.5157C323.447 37.3016 322.557 37.2053 321.689 37.1839C319.609 37.1411 317.529 37.1625 315.449 37.1839C315.138 37.1839 314.838 37.2588 314.527 37.3016V52.9715V52.9608Z" fill="white"/>
<path d="M226.339 45.0618H219.488C219.402 44.7728 219.306 44.4838 219.231 44.1841C219.006 43.3921 218.834 42.5679 218.544 41.7972C217.086 37.8584 213.838 36.3278 209.849 36.7024C206.729 36.9914 204.563 38.7147 203.159 41.4547C201.958 43.7988 201.411 46.3248 201.261 48.9151C201.036 52.8218 200.896 56.75 201.454 60.6567C201.818 63.1935 202.569 65.6017 204.07 67.721C205.839 70.2256 208.23 71.585 211.339 71.5957C212.915 71.5957 214.492 71.5636 215.982 70.9856C216.625 70.7394 217.247 70.4397 217.848 70.0972C218.823 69.5406 219.349 68.7807 219.284 67.5284C219.177 65.0452 219.252 62.5513 219.252 59.8861H210.9C210.857 57.7133 210.878 55.7117 210.889 53.6246H226.414C226.414 54.0848 226.414 54.4915 226.414 54.8876C226.414 60.0573 226.404 65.2164 226.425 70.3862C226.425 71.1675 226.221 71.799 225.717 72.3984C224.002 74.4856 221.847 75.9306 219.316 76.8511C215.768 78.1462 212.122 78.5208 208.402 77.9321C203.244 77.108 199.535 74.218 197.026 69.7333C195.117 66.3296 194.206 62.6048 194.002 58.7622C193.798 54.8983 193.723 51.0129 194.227 47.1597C194.688 43.6061 195.642 40.2024 197.583 37.1412C200.907 31.9073 205.807 29.8094 211.854 30.1412C213.184 30.2161 214.513 30.4516 215.81 30.7834C219.499 31.736 222.222 33.9623 224.056 37.2697C225.364 39.6352 226.05 42.1933 226.318 45.0725L226.339 45.0618Z" fill="white"/>
<path d="M341.653 54.1811C341.771 49.9104 342.147 45.704 343.637 41.6581C344.677 38.8538 346.124 36.317 348.29 34.2085C354.498 28.1717 365.617 28.5891 371.192 36.392C373.422 39.5067 374.698 42.996 375.224 46.7315C375.985 52.0939 376.017 57.4885 374.988 62.8402C374.344 66.1797 373.111 69.2837 371.085 72.0559C365.156 80.1477 352.954 80.2012 346.853 72.4626C344.269 69.1874 342.876 65.409 342.286 61.3417C341.943 58.9763 341.857 56.5787 341.653 54.1918V54.1811ZM368.737 54.2346C368.522 51.8478 368.394 49.4502 368.083 47.0847C367.772 44.6872 367 42.418 365.574 40.4165C362.218 35.7284 355.485 35.7177 352.086 40.3737C350.949 41.9257 350.199 43.6703 349.802 45.522C348.623 51.045 348.623 56.6001 349.641 62.1445C350.124 64.7668 351.131 67.1858 353.051 69.1338C356.353 72.4626 361.971 72.2593 365.038 68.7271C366.271 67.3036 367.032 65.6338 367.547 63.8463C368.447 60.7102 368.576 57.4885 368.737 54.2453V54.2346Z" fill="white"/>
<path d="M417.468 54.0848C417.607 49.8569 417.972 45.6933 419.441 41.7009C420.47 38.8966 421.917 36.3598 424.072 34.2513C430.27 28.1931 441.378 28.5891 446.974 36.3706C449.237 39.5174 450.523 43.0602 451.038 46.8385C451.778 52.1581 451.81 57.5099 450.802 62.8081C450.159 66.1904 448.915 69.3479 446.835 72.1415C440.917 80.1156 428.876 80.1691 422.775 72.6018C420.127 69.3158 418.701 65.4947 418.1 61.3738C417.747 58.9656 417.661 56.5145 417.457 54.0848H417.468ZM444.551 54.2453C444.337 51.8585 444.208 49.4609 443.897 47.0954C443.586 44.6978 442.814 42.4287 441.388 40.4272C438.032 35.739 431.299 35.7176 427.9 40.3629C426.742 41.9578 425.981 43.7345 425.584 45.6505C424.437 51.0878 424.448 56.5573 425.423 62.0053C425.884 64.5742 426.839 66.9717 428.672 68.9305C432.05 72.5375 437.904 72.3342 441.034 68.5237C442.171 67.143 442.879 65.5482 443.361 63.857C444.262 60.7209 444.39 57.4992 444.551 54.256V54.2453Z" fill="white"/>
<path d="M542.496 63.4394H549.583C549.637 63.889 549.68 64.285 549.723 64.6918C550.119 68.2346 552.135 70.5037 555.63 71.2958C557.592 71.7453 559.576 71.756 561.538 71.2316C563.843 70.6215 565.355 69.123 565.752 66.7682C566.149 64.3385 565.773 62.048 563.618 60.4318C561.903 59.1367 559.898 58.4195 557.925 57.6275C555.705 56.7391 553.475 55.84 551.32 54.7911C549.358 53.8277 547.696 52.4256 546.302 50.713C542.217 45.6824 542.357 35.3108 551.524 31.3933C555.877 29.5309 560.348 29.563 564.744 31.3719C570.684 33.8123 573.193 39.9025 572.936 44.3017H565.999C565.956 44.1197 565.87 43.9056 565.859 43.6916C565.58 38.5004 561.935 36.3062 557.164 36.6808C556.617 36.7236 556.059 36.8092 555.523 36.9591C553.207 37.612 551.61 38.9928 551.095 41.4117C550.548 44.0234 551.234 46.239 553.529 47.6626C555.159 48.6794 556.971 49.4286 558.729 50.21C560.713 51.0877 562.782 51.762 564.723 52.7146C566.074 53.3782 567.36 54.2559 568.54 55.2085C571.402 57.5097 572.839 60.603 572.968 64.2315C573.021 65.8263 572.936 67.4854 572.56 69.0266C571.499 73.3294 568.593 76.0588 564.422 77.3111C559.147 78.8952 553.979 78.5527 549.197 75.6414C544.726 72.9227 542.625 68.8233 542.485 63.4394H542.496Z" fill="white"/>
<path d="M257.947 56.7499H241.328V70.9106H260.757V77.3005C259.792 77.5788 236.032 77.6537 234.338 77.3862C234.059 76.4014 233.984 32.4637 234.252 30.8261C235.217 30.5585 258.494 30.4729 260.606 30.7512C260.606 31.7573 260.628 32.7956 260.628 33.8338C260.628 34.8827 260.628 35.9424 260.628 37.1304H241.339V50.1137C242.669 50.2422 244.041 50.1566 245.403 50.1673C246.786 50.1887 248.18 50.1673 249.563 50.1673H253.723C255.106 50.1673 256.479 50.1673 257.937 50.1673V56.7285L257.947 56.7499Z" fill="white"/>
<path d="M195.514 91.6108H223.541V98.6216C221.879 98.6858 220.185 98.643 218.501 98.6537C216.84 98.6537 215.167 98.6537 213.505 98.6537H203.416C203.126 99.7241 203.04 111.583 203.319 113.606C206.236 113.778 209.173 113.66 212.111 113.681C215.017 113.703 217.912 113.681 220.892 113.681V120.778C215.06 120.831 209.216 120.778 203.201 120.81V142.228H195.514V91.6108Z" fill="white"/>
<path d="M531.324 62.401H538.229C538.165 64.1992 537.811 65.8903 537.285 67.5387C535.152 74.2176 529.887 78.0387 522.875 78.1565C515.981 78.2742 511.306 74.9883 508.368 68.9729C506.824 65.8154 506.085 62.4331 505.924 58.9652C505.742 55.1012 505.613 51.2159 506.138 47.3626C506.706 43.092 507.961 39.0675 510.749 35.6745C514.201 31.4573 518.726 29.7447 524.13 30.1515C527.561 30.4084 530.616 31.5429 533.147 33.9191C535.656 36.2846 537.028 39.2708 537.757 42.5782C538.004 43.6913 538.132 44.8259 538.336 46.0675H531.238C531.12 45.4253 531.013 44.7938 530.874 44.173C530.724 43.4987 530.573 42.8244 530.38 42.1608C529.137 37.8901 525.845 36.2631 521.481 36.7127C518.458 37.0231 516.41 38.757 515.048 41.3901C513.794 43.8091 513.258 46.4421 513.14 49.118C512.968 53.1211 512.829 57.1456 513.343 61.138C513.611 63.2038 514.105 65.216 515.08 67.0784C517.418 71.5739 523.036 73.083 527.357 70.3858C528.665 69.5723 529.566 68.4056 530.048 66.9714C530.541 65.4943 530.906 63.9744 531.345 62.3903L531.324 62.401Z" fill="white"/>
<path d="M467.046 98.6751H453.365V142.238H445.645V98.6644H432.05V91.7821C433.015 91.4824 465.084 91.386 467.057 91.6857V98.6858L467.046 98.6751Z" fill="white"/>
<path d="M465.877 37.1519H453.365V30.6978H485.541V37.1412H473.029C472.943 40.5985 472.997 43.9379 472.986 47.2881C472.986 50.6062 472.986 53.935 472.986 57.253V67.3571C472.986 70.6752 472.986 73.9825 472.986 77.2578C471.914 77.6003 467.657 77.6538 465.877 77.3648V37.1519Z" fill="white"/>
<path d="M473.49 91.6108H480.985V142.088C480.02 142.367 475.527 142.442 473.576 142.217C473.286 141.264 473.2 93.3769 473.501 91.6108H473.49Z" fill="white"/>
<path d="M498.44 77.4611H491.631C491.353 76.4014 491.245 33.32 491.492 30.8368C492.468 30.5585 496.735 30.4943 498.343 30.7405C498.611 31.7145 498.729 75.0635 498.44 77.4611Z" fill="white"/>
</g>
<defs>
<clipPath id="clip0_6065_294">
<rect width="573" height="173" fill="white"/>
</clipPath>
</defs>
</svg>
