<svg width="103" height="61" viewBox="0 0 103 61" fill="none" xmlns="http://www.w3.org/2000/svg">
<path d="M47.0935 4.33193C47.0322 4.72272 46.6414 4.72954 46.3619 4.84769C45.3168 5.29073 43.8877 5.69743 42.7766 6.03369C38.0872 7.4469 30.2736 7.26514 30.7258 13.9972C31.0552 18.9071 37.2942 21.354 41.527 21.3722C44.283 21.3836 47.582 19.9045 50.1403 20.2566C53.2735 20.6883 53.1349 23.3648 54.898 25.1552C56.8883 27.1773 59.2762 27.4363 61.6436 28.52C69.0414 31.9054 76.396 37.565 83.8733 41.0526C86.2589 42.534 85.2706 46.1715 82.71 46.6714C81.7194 46.8667 80.9605 46.3555 80.113 45.9488C75.0146 43.5041 70.1956 39.6576 64.9472 37.506C63.1409 38.1058 63.3454 39.4054 64.7404 40.4187C67.8395 42.6771 72.429 44.2335 75.4804 46.4919C78.5317 48.7503 76.3483 52.7581 72.9334 51.9925C68.5211 50.0385 64.2292 46.2737 59.9714 44.2789C58.3401 43.5155 57.0359 44.6583 57.8425 46.301L67.8259 52.2674C70.1093 54.3009 67.6873 58.8109 64.0611 57.2318C61.0461 55.9208 57.579 52.8331 54.5276 51.3086L53.1553 51.3449C51.3377 53.5306 56.0476 54.8121 57.5267 56.039C60.2691 58.3155 57.8971 61.9667 54.8457 60.7625C54.3913 60.583 50.0812 57.9702 49.929 57.7248C49.67 57.3136 50.0858 55.964 49.9926 55.1688C49.6609 52.3219 47.3321 49.7568 44.3693 49.7681C44.6147 45.7307 41.3475 42.6953 37.3351 43.1701C37.1306 40.5255 34.1361 38.1648 31.5323 38.1648C30.3418 38.1648 29.2989 38.8555 28.1674 39.0646C26.2657 36.5153 23.8097 35.2067 20.6175 36.3563C19.695 36.688 19.1974 37.2992 18.3818 37.4878C16.6823 34.1183 15.0033 31.067 11.4066 29.4039L22.0875 7.16289C24.2005 7.60594 26.3907 7.69909 28.5082 7.21515C30.7894 6.69258 32.6502 5.23393 34.8768 4.49552C38.9642 3.13911 42.9743 3.09822 47.0935 4.33193Z" fill="#FCD901"/>
<path d="M80.0267 7.96722L90.269 29.1971C87.2472 30.7194 84.3254 32.9324 82.9872 36.1359L69.5867 28.8631C69.5276 28.2633 69.5753 28.4951 69.9252 28.4156C72.2586 27.8839 74.4443 27.4113 76.171 25.571L73.6809 23.0626C69.8139 25.4369 64.0384 25.7005 59.8919 23.9078C56.0817 22.2606 56.6497 18.8276 53.0008 17.1667C48.1296 14.9469 43.3765 18.7889 38.1076 17.0645C36.0151 16.3783 32.7388 13.5951 35.5016 11.7093C39.0596 10.8504 42.6517 10.0757 46.1347 8.93738C53.2235 6.62445 59.3398 2.01448 66.9284 6.18822C68.7846 7.21063 69.9593 9.09415 72.0746 9.67579C75.16 10.5255 77.1889 8.75107 80.0267 7.96495V7.96722Z" fill="#FCD901"/>
<path d="M90.2441 0.0283935L102.731 25.6161C102.795 25.9114 102.574 25.9796 102.39 26.1137C100.373 27.5609 97.0511 28.3425 94.9176 29.7557L82.142 3.98856C82.2669 3.67047 82.5714 3.54096 82.8418 3.38192C84.0823 2.65032 88.3174 0.519154 89.5783 0.119275C89.7987 0.0488418 90.01 -0.0511278 90.2463 0.0306655L90.2441 0.0283935Z" fill="#FCD901"/>
<path d="M19.5859 3.21367L7.21696 29.099L6.64668 29.2308L0.516724 26.3657L13.0175 0.237305L19.5859 3.21367Z" fill="#FCD901"/>
<path d="M37.7168 45.9598C39.807 45.5304 41.7337 47.1867 41.3179 49.3247C41.1385 50.2448 38.1007 54.5185 37.3282 55.341C34.9108 57.9175 31.3596 55.8659 32.2048 52.7145C32.4116 51.942 35.9741 46.9731 36.658 46.4914C36.9397 46.2938 37.3873 46.0279 37.7168 45.9598Z" fill="#FCD901"/>
<path d="M31.1279 40.9591C33.3954 40.5001 35.2676 42.6654 34.536 44.8215C34.2815 45.569 30.9007 50.3153 30.285 50.797C27.7562 52.7737 24.739 50.5062 25.6591 47.5321C25.8364 46.9618 29.1626 42.3314 29.7034 41.8065C30.051 41.4703 30.6599 41.0522 31.1279 40.9568V40.9591Z" fill="#FCD901"/>
<path d="M42.1724 53.2535C44.3217 51.0973 48.2773 53.124 46.846 56.6774C46.5915 57.3091 44.4035 60.1968 43.8446 60.4922C41.2613 61.8645 38.6939 59.3198 39.7686 56.6433C39.8481 56.4457 41.9656 53.4579 42.1724 53.2535Z" fill="#FCD901"/>
<path d="M19.4519 45.6036C17.0072 43.0861 21.0764 37.0743 24.5913 39.2146C28.5355 41.6161 22.9372 49.1911 19.4519 45.6036Z" fill="#FCD901"/>
</svg>
