<svg width="86" height="86" viewBox="0 0 86 86" fill="none" xmlns="http://www.w3.org/2000/svg">
<g clip-path="url(#clip0_4032_100)">
<path d="M41.3635 1.0633V17.0119C41.3635 17.2982 42.6727 18.2797 43.1637 18.0343C43.5728 18.0343 44.6365 17.1755 44.6365 17.0119V1.0633C44.6365 0.77704 43.3273 -0.204415 42.8363 0.0409491C42.3863 0.0409491 41.4862 0.736146 41.3635 1.0633ZM38.8268 11.0414V7.40186C22.3387 9.61014 9.57374 22.3691 7.40533 38.8902H11.0466C13.0105 24.5773 24.548 12.9634 38.8268 11.0414ZM78.5538 38.8902C76.3444 22.3691 63.5794 9.61014 47.0504 7.40186V11.0414C61.3701 12.9634 72.9486 24.5773 74.9125 38.8493H78.5538V38.8902ZM42.059 23.8821C30.7669 25.1089 34.5718 43.4294 45.9867 38.8493C57.4015 34.2692 50.9372 22.9007 42.059 23.8821ZM26.921 30.3843C19.5975 31.4475 21.0704 43.1023 29.1713 41.6301C37.2721 40.1579 34.5309 29.2801 26.921 30.3843ZM57.197 30.3843C48.4006 31.652 53.1465 45.8013 61.1246 40.8531C66.5252 37.4998 63.2931 29.4846 57.197 30.3843ZM53.883 61.2592C54.3739 60.8094 54.7831 59.8279 54.8649 59.1736C55.274 55.8612 55.1513 47.1917 53.7193 44.37C53.3102 43.5521 51.9191 41.8346 51.1827 41.1803C47.5823 37.9088 46.6822 40.8122 42.3454 40.6078C39.0314 40.4442 38.7041 38.3586 35.8402 40.6078C32.9762 42.8569 32.4034 43.9611 31.7488 45.924C30.9715 48.214 30.6851 57.2107 31.1351 59.5826C31.5852 61.9544 32.8535 61.8317 33.9581 62.0771C36.4539 62.6905 48.4824 62.6087 51.3872 62.2816C54.2921 61.9544 53.3511 61.8317 53.9239 61.341L53.883 61.2592ZM1.06375 41.3438L0 43.1841C0 43.593 0.859182 44.6563 1.02284 44.6563H16.9791C17.1836 44.6563 18.0428 43.6339 18.0019 43.1841C18.2065 42.6525 17.2655 41.3847 16.9791 41.3847H1.06375V41.3438ZM68.98 41.3438L67.9572 43.1432C67.9572 43.5521 68.8164 44.6154 68.98 44.6154H84.9362C85.1408 44.6154 86 43.593 85.9591 43.1432C86.1637 42.6116 85.2226 41.3438 84.9362 41.3438H68.98ZM29.9077 58.9283V48.0914C29.9077 46.9872 31.5033 43.7157 32.3216 42.7342L31.7488 41.7528C30.8078 42.4071 29.1713 42.9387 28.0666 42.9796C26.9619 43.0205 24.3435 41.7528 24.0571 41.7937C22.5024 41.9982 19.9657 45.5559 19.4748 47.0281C18.6974 49.4409 17.6746 58.8874 21.5205 58.8874H29.9077V58.9283ZM56.0923 47.6824C56.5423 50.8721 55.765 55.0024 56.0923 58.3148L56.706 58.9283H64.4795C68.3254 58.9283 67.3026 49.4817 66.5252 47.069C65.7479 44.6563 63.4976 42.039 61.9429 41.8346C60.3882 41.6301 59.1199 43.593 56.1332 42.7342C53.1465 41.8755 53.1056 40.8122 53.9648 42.8569C54.824 44.9016 55.8468 46.1284 56.0923 47.7233V47.6824ZM11.0466 47.1099H7.40533C9.57374 63.5902 22.4206 76.3491 38.9087 78.5574V74.9178C24.6299 72.9958 12.9696 61.3819 11.0466 47.1099ZM78.5538 47.069H74.9125C72.9077 61.3819 61.411 72.9958 47.0913 74.9178V78.5574C63.5385 76.39 76.3853 63.5902 78.5538 47.069ZM41.3635 68.9473V84.8959C41.3635 85.1822 42.6727 86.1636 43.1637 85.9183C43.5728 85.9183 44.6365 85.0595 44.6365 84.8959V68.9473C44.6365 68.7428 43.6137 67.884 43.1637 67.9249C42.5909 67.7614 41.4862 68.4974 41.3635 68.9473Z" fill="#FCD901"/>
<path d="M53.883 61.259C53.3511 61.7497 52.1237 62.1178 51.3463 62.1996C48.4415 62.5267 36.4538 62.6085 33.9172 61.9951C31.3806 61.3817 31.2987 60.6456 31.0942 59.5006C30.6441 57.1287 30.9305 48.132 31.7079 45.842C32.3625 43.8791 34.1627 41.7935 35.7992 40.5258C38.6632 38.2766 38.9905 40.3622 42.3045 40.5258C46.6004 40.7302 47.5005 37.8268 51.1418 41.0983C54.7831 44.3698 53.2283 43.4701 53.6784 44.288C55.1104 47.1506 55.2331 55.8201 54.824 59.0916C54.4148 62.3631 54.3739 60.7274 53.842 61.1772L53.883 61.259Z" fill="#FCD901"/>
<path d="M42.059 23.8823C50.9372 22.9008 54.333 35.5371 45.9867 38.8495C37.6403 42.1619 30.7669 25.1091 42.059 23.8823Z" fill="#FCD901"/>
<path d="M29.9077 58.928H21.5204C17.6746 58.928 18.6974 49.4815 19.4748 47.0688C20.2521 44.656 22.5024 42.0388 24.0571 41.8344C25.6118 41.6299 26.5937 43.0203 28.0666 43.0203C29.5395 43.0203 30.8078 42.4478 31.7488 41.7935L32.3216 42.7749C31.4624 43.7564 29.9077 47.0279 29.9077 48.132V58.9689V58.928Z" fill="#FCD901"/>
<path d="M56.0923 47.6823C55.8877 46.0875 54.5785 44.2473 53.9648 42.816C53.1056 40.7713 55.5604 42.5297 56.1332 42.6933C59.1199 43.593 61.1656 41.7118 61.9429 41.7936C63.4976 41.9981 66.0343 45.5559 66.5252 47.028C67.3026 49.4408 68.3254 58.8873 64.4796 58.8873H56.706L56.0923 58.2739C55.765 54.9615 56.5424 50.8312 56.0923 47.6415V47.6823Z" fill="#FCD901"/>
<path d="M78.5538 38.8902H74.9125C72.9486 24.6182 61.3701 12.9634 47.0913 11.0414V7.40186C63.5794 9.61013 76.3444 22.369 78.5538 38.8902Z" fill="#FCD901"/>
<path d="M78.5537 47.0688C76.3853 63.59 63.5794 76.3489 47.0504 78.5572V74.9176C61.3701 72.9956 72.9077 61.3817 74.9125 47.1097H78.5537V47.0688Z" fill="#FCD901"/>
<path d="M38.8268 11.0414C24.5481 12.9634 13.0105 24.5773 11.0466 38.8493H7.40533C9.57375 22.369 22.3387 9.61013 38.8678 7.40186V11.0414H38.8268Z" fill="#FCD901"/>
<path d="M11.0466 47.1097C12.9696 61.3817 24.589 72.9956 38.8678 74.9176V78.5572C22.4206 76.3489 9.57375 63.59 7.40533 47.0688H11.0466V47.1097Z" fill="#FCD901"/>
<path d="M26.921 30.3843C34.5309 29.2802 35.922 40.4442 29.1713 41.6301C22.4205 42.8161 19.5975 31.4067 26.921 30.3843Z" fill="#FCD901"/>
<path d="M57.197 30.3841C63.2521 29.5253 66.5252 37.4996 61.1246 40.8529C53.1874 45.8011 48.4006 31.6518 57.197 30.3841Z" fill="#FCD901"/>
<path d="M41.3635 1.06338C41.4453 0.736227 42.3454 0.0410296 42.8363 0.0410296C43.3682 -0.16344 44.6365 0.777121 44.6365 1.06338V17.012C44.6365 17.2165 43.6137 18.0753 43.1637 18.0344C42.6318 18.2388 41.3635 17.2983 41.3635 17.012V1.06338Z" fill="#FCD901"/>
<path d="M1.06374 41.3438H17.02C17.3064 41.3438 18.2883 42.6524 18.0428 43.1431C18.0428 43.552 17.1836 44.6153 17.02 44.6153H1.06374C0.859172 44.6153 -1.00844e-05 43.5929 0.0409033 43.1431L1.06374 41.3438Z" fill="#FCD901"/>
<path d="M68.98 41.3438H84.9362C85.2226 41.3438 86.2045 42.6524 85.9591 43.1431C85.9591 43.552 85.0999 44.6153 84.9362 44.6153H68.98C68.7754 44.6153 67.9162 43.5929 67.9572 43.1431L68.98 41.3438Z" fill="#FCD901"/>
<path d="M41.3635 68.947C41.4862 68.4972 42.6318 67.7611 43.1637 67.9247C43.5728 67.9247 44.6365 68.7834 44.6365 68.947V84.8956C44.6365 85.1001 43.6137 85.9589 43.1637 85.918C42.6318 86.1225 41.3635 85.1819 41.3635 84.8956V68.947Z" fill="#FCD901"/>
</g>
<defs>
<clipPath id="clip0_4032_100">
<rect width="86" height="86" fill="white"/>
</clipPath>
</defs>
</svg>
