<svg width="197" height="168" viewBox="0 0 197 168" fill="none" xmlns="http://www.w3.org/2000/svg">
<path opacity="0.16" d="M197 63.0779C197 92.9696 189.923 116.585 175.767 133.922C161.614 151.262 140.976 162.619 113.85 168L113.85 136.91C134.042 130.529 147.606 119.574 154.534 104.027C158.098 95.8522 159.582 87.3846 158.987 78.621L112.362 78.621L112.362 7.85952e-06L197 1.52588e-05L197 63.0745L197 63.0779ZM84.6377 63.0778C84.6377 93.3677 77.3617 117.079 62.8097 134.222C48.2576 151.358 27.8192 162.619 1.48763 168L1.48763 136.91C21.4865 130.73 34.9465 119.574 41.8742 103.431C45.8368 94.8618 47.4192 86.5883 46.6246 78.621L-7.44503e-06 78.621L-5.71764e-07 -1.9635e-06L84.6377 5.43577e-06L84.6377 63.0745L84.6377 63.0778Z" fill="url(#paint0_linear_6065_370)"/>
<defs>
<linearGradient id="paint0_linear_6065_370" x1="-108.795" y1="83.7647" x2="197" y2="83.7647" gradientUnits="userSpaceOnUse">
<stop/>
<stop offset="1" stop-color="#686868"/>
</linearGradient>
</defs>
</svg>
