<svg width="94" height="80" viewBox="0 0 94 80" fill="none" xmlns="http://www.w3.org/2000/svg">
<path opacity="0.43" d="M0 49.9629C0 35.7288 3.37662 24.4831 10.1315 16.2275C16.8847 7.97034 26.7322 2.56224 39.6757 0V14.8046C30.0411 17.8433 23.5686 23.0602 20.2629 30.4633C18.5625 34.3561 17.8543 38.3883 18.1382 42.5614H40.3855V80H0V49.9645V49.9629ZM53.6145 49.9629C53.6145 35.5392 57.0863 24.2481 64.0299 16.0849C70.9735 7.92496 80.7259 2.56224 93.2902 0V14.8046C83.7475 17.7477 77.325 23.0602 74.0194 30.7469C72.1286 34.8277 71.3736 38.7675 71.7527 42.5614H94V80H53.6145V49.9645V49.9629Z" fill="url(#paint0_linear_6065_369)"/>
<defs>
<linearGradient id="paint0_linear_6065_369" x1="145.912" y1="40.112" x2="-8.04287e-07" y2="40.112" gradientUnits="userSpaceOnUse">
<stop/>
<stop offset="1" stop-color="#686868"/>
</linearGradient>
</defs>
</svg>
