<svg width="45" height="29" viewBox="0 0 45 29" fill="none" xmlns="http://www.w3.org/2000/svg">
<g clip-path="url(#clip0_6172_1698)">
<path d="M14.5201 14.1228C9.70749 18.2298 5.05941 22.211 0 26.5275V1.76013C5.01828 6.0347 9.66636 10.0159 14.5201 14.1228Z" fill="white"/>
<path d="M3.16699 0H42.1615C41.6679 0.586705 29.7803 10.9798 24.2273 15.7572C23.1167 16.7211 22.3763 16.8887 21.1834 15.8829C15.3836 10.8121 3.41379 0.419075 3.16699 0Z" fill="white"/>
<path d="M28.4235 16.1344C33.2361 20.2413 38.131 24.3902 43.4783 29H1.60449C6.95184 24.4321 11.8056 20.2832 16.6182 16.1763C16.8239 16.2601 16.9061 16.302 16.9884 16.3439C18.9217 17.7269 20.8138 20.1994 22.7471 20.2413C24.557 20.2413 26.3668 17.7269 28.4235 16.1763V16.1344Z" fill="white"/>
<path d="M45.0003 1.802V26.4436C40.0643 22.211 35.4162 18.2297 30.5625 14.1228C35.4162 9.97397 40.0232 6.03466 45.0003 1.802Z" fill="white"/>
</g>
<defs>
<clipPath id="clip0_6172_1698">
<rect width="45" height="29" fill="white"/>
</clipPath>
</defs>
</svg>
