<?xml version="1.0" encoding="UTF-8"?>
<svg id="Layer_1" xmlns="http://www.w3.org/2000/svg" version="1.1" xmlns:xlink="http://www.w3.org/1999/xlink" viewBox="0 0 1341.44614 370.66667">
  <!-- Generator: Adobe Illustrator 29.6.1, SVG Export Plug-In . SVG Version: 2.1.1 Build 9)  -->
  <defs>
    <style>
      .st0 {
        stroke-width: .5px;
      }

      .st0, .st1 {
        fill: none;
        stroke: #000;
        stroke-miterlimit: 10;
      }

      .st2 {
        fill: url(#linear-gradient2);
      }

      .st3 {
        fill: #fff;
      }

      .st4 {
        fill: url(#linear-gradient1);
      }

      .st5 {
        clip-path: url(#clippath-1);
      }

      .st6 {
        fill: url(#linear-gradient4);
      }

      .st7 {
        fill: url(#linear-gradient5);
      }

      .st8 {
        fill: url(#linear-gradient3);
      }

      .st9 {
        fill: url(#linear-gradient);
      }

      .st10 {
        clip-path: url(#clippath);
      }
    </style>
    <linearGradient id="linear-gradient" x1="404.38678" y1="303.33716" x2="1280.4505" y2="303.33716" gradientUnits="userSpaceOnUse">
      <stop offset="0" stop-color="#d8be50"/>
      <stop offset=".25564" stop-color="#e2cb57"/>
      <stop offset=".5" stop-color="#e8d25b"/>
      <stop offset=".70005" stop-color="#e5cf59"/>
      <stop offset=".81958" stop-color="#dec755"/>
      <stop offset=".91759" stop-color="#d2b84d"/>
      <stop offset="1" stop-color="#c3a643"/>
    </linearGradient>
    <linearGradient id="linear-gradient1" x1="5.98433" y1="185.33333" x2="360.66614" y2="185.33333" gradientUnits="userSpaceOnUse">
      <stop offset="0" stop-color="#8d6828"/>
      <stop offset=".50365" stop-color="#e8d45c"/>
      <stop offset="1" stop-color="#96702a"/>
    </linearGradient>
    <linearGradient id="linear-gradient2" x1="32.42717" y1="185.33333" x2="334.2233" y2="185.33333" xlink:href="#linear-gradient1"/>
    <clipPath id="clippath">
      <path class="st1" d="M496.4481,96.34935v148.52872h55.13832v-25.53759h-26.89198v-36.16194h24.18324v-23.49513h-24.18324v-37.79647h26.89198v-25.53759h-55.13832ZM609.42539,96.34935v31.25839l-17.80016-31.25839h-23.79564v148.52872h28.24638v-99.29202l13.15633,22.47391v76.81811h28.43947V96.34935h-28.24638ZM683.14313,116.16614h10.05999c1.80586,0,2.71016.95464,2.71016,2.86109v43.10795c0,1.36392-.6473,2.04383-1.93504,2.04383h-10.8351v-48.01287ZM654.89675,96.34935v148.52872h28.24638v-58.02256h10.8351c1.28775,0,1.93504.68263,1.93504,2.04246v55.9801h29.02012v-59.45173c-1.29185-1.63451-2.90325-3.27039-4.83829-4.90355-1.93367-1.63451-3.93399-3.19833-5.99685-4.69821,2.06286-1.49852,4.06318-3.13305,5.99685-4.9049,1.93504-1.76778,3.54644-3.53828,4.83829-5.3115v-60.06637c-4.51738-3.26765-10.09402-5.6188-16.7368-7.04801-6.64411-1.4305-13.70573-2.14445-21.18479-2.14445h-32.11505ZM857.26376,183.58649h10.83514c1.28638,0,1.93508.68398,1.93508,2.04381v36.56852c0,1.91058-.90434,2.86246-2.7102,2.86246h-10.06003v-41.47479ZM857.26376,116.16614h10.06003c1.80586,0,2.7102.95464,2.7102,2.86109v39.83893c0,1.3639-.64871,2.04246-1.93508,2.04246h-10.83514v-44.74248ZM829.01743,96.34935v148.52872h31.14958c7.60688,0,14.7664-.74791,21.47308-2.2478,6.70536-1.49717,12.31598-3.88096,16.83063-7.14998v-53.32435c-1.29053-1.63316-2.90051-3.26767-4.83559-4.90218-1.935-1.63588-3.93532-3.19969-5.99681-4.69958,2.06149-1.49717,4.06181-3.13033,5.99681-4.90355,1.93508-1.76776,3.54507-3.53963,4.83559-5.31148v-56.79735c-4.51464-3.26765-10.12527-5.6188-16.83063-7.04801-6.70669-1.4305-13.86621-2.14445-21.47308-2.14445h-31.14958ZM999.06953,96.34935v25.53759h15.67065l2.32119,2.24645v120.74468h29.02012v-120.74468l2.32127-2.24645h15.67198v-25.53759h-65.00521ZM1078.19119,244.87807h28.43947V96.34802h-28.43947v148.53005ZM426.21426,96.24739c-6.19129,1.83984-11.73805,4.73355-16.63886,8.68248v131.36768c4.90081,3.95165,10.44757,6.84401,16.63886,8.68387,6.18995,1.83848,12.2507,2.75636,18.185,2.75636,5.93023,0,11.99505-.91789,18.185-2.75636,6.19129-1.83987,11.73533-4.73222,16.63886-8.68387v-74.57168h-32.11507v14.0987l3.87006,5.10617v43.72259c0,1.36118-.71118,2.04109-2.12814,2.04109h-8.90008c-1.42102,0-2.12814-.67991-2.12814-2.04109v-108.07785c0-1.35983.70712-2.04385,2.12814-2.04385h8.90008c1.41695,0,2.12814.68402,2.12814,2.04385v26.96813h28.24501v-38.61375c-4.90353-3.94893-10.44757-6.84264-16.63886-8.68248-6.18995-1.83984-12.25477-2.75912-18.185-2.75912-5.93429,0-11.99505.91928-18.185,2.75912M770.3911,224.65333v-108.07785c0-1.35983.70714-2.04385,2.12814-2.04385h8.89873c1.4183,0,2.12814.68402,2.12814,2.04385v108.07785c0,1.36118-.70984,2.04109-2.12814,2.04109h-8.89873c-1.421,0-2.12814-.67991-2.12814-2.04109M758.78363,96.24739c-6.19131,1.83984-11.73944,4.73355-16.6389,8.68248v131.36768c4.89946,3.95165,10.44759,6.84401,16.6389,8.68387,6.1899,1.83848,12.25066,2.75636,18.18498,2.75636,5.9302,0,11.99507-.91789,18.18498-2.75636,6.19131-1.83987,11.73533-4.73222,16.6389-8.68387V104.92987c-4.90357-3.94893-10.44759-6.84264-16.6389-8.68248-6.1899-1.83984-12.25477-2.75912-18.18498-2.75912-5.93431,0-11.99507.91928-18.18498,2.75912M943.92706,224.65333v-108.07785c0-1.35983.70847-2.04385,2.12946-2.04385h8.90014c1.41693,0,2.12673.68402,2.12673,2.04385v108.07785c0,1.36118-.70979,2.04109-2.12673,2.04109h-8.90014c-1.421,0-2.12946-.67991-2.12946-2.04109M932.31955,96.24739c-6.19127,1.83984-11.73799,4.73355-16.63749,8.68248v131.36768c4.8995,3.95165,10.44622,6.84401,16.63749,8.68387,6.18995,1.83848,12.25207,2.75636,18.18639,2.75636,5.93157,0,11.9937-.91789,18.18498-2.75636,6.19136-1.83987,11.73533-4.73222,16.6389-8.68387V104.92987c-4.90357-3.94893-10.44755-6.84264-16.6389-8.68248-6.19127-1.83984-12.2534-2.75912-18.18498-2.75912-5.93431,0-11.99644.91928-18.18639,2.75912M1140.97315,96.24739c-6.12604,1.83984-11.64155,4.73355-16.54096,8.68248v131.36768c4.89942,3.95165,10.41493,6.84401,16.54096,8.68387,6.12604,1.83848,12.15547,2.75636,18.08845,2.75636s11.96241-.91789,18.08978-2.75636c6.12471-1.83987,11.6374-4.73222,16.54096-8.68387v-53.32298h-27.85882v41.67876c0,1.36118-.7112,2.04109-2.12814,2.04109h-8.90006c-1.42108,0-2.12681-.67991-2.12681-2.04109v-108.07785c0-1.35983.70573-2.04385,2.12681-2.04385h8.90006c1.41693,0,2.12814.68402,2.12814,2.04385v41.0641h27.85882v-52.70971c-4.90357-3.94893-10.41626-6.84264-16.54096-8.68248-6.12737-1.83984-12.15688-2.75912-18.08978-2.75912s-11.96241.91928-18.08845,2.75912M1226.68456,96.24739c-5.99689,1.83984-11.44708,4.73355-16.34658,8.68248v52.91505c0,1.63453.06258,3.54372.19181,5.71945.12641,2.18115.32228,3.95165.57924,5.31285l37.5354,18.79555c1.4156.684,2.22333,1.29729,2.4178,1.8385.19172.54666.28825,1.77185.28825,3.67834v31.46373c0,1.36118-.70988,2.04109-2.12681,2.04109h-8.7056c-1.421,0-2.12814-.67991-2.12814-2.04109v-26.15223h-28.05196v37.79645c4.8995,3.95165,10.34969,6.84401,16.34658,8.68387,5.99681,1.83848,11.961,2.75636,17.89532,2.75636,5.93025,0,11.92838-.91789,17.99325-2.75636,6.05939-1.83987,11.54087-4.73222,16.44303-8.68387v-51.28052c0-4.62887-.32228-8.30721-.96684-11.0323l-38.30637-19.20352c-.7737-.4093-1.2565-.78325-1.45096-1.12457-.19305-.33722-.28958-1.25783-.28958-2.75908v-34.32208c0-1.35983.70705-2.04385,2.12673-2.04385h8.70701c1.41826,0,2.12814.68402,2.12814,2.04385v27.1721h28.05187v-38.81771c-4.90216-3.94893-10.38364-6.84264-16.44303-8.68248-6.06487-1.83984-12.06301-2.75912-17.99325-2.75912-5.93431,0-11.89851.91928-17.89532,2.75912"/>
    </clipPath>
    <clipPath id="clippath-1">
      <rect class="st0" x="354.35925" y="-638.61576" width="979.07705" height="979.07701"/>
    </clipPath>
    <linearGradient id="linear-gradient3" x1="770.37779" y1="69.33394" x2="770.37779" y2="-169.24898" gradientTransform="translate(137.02332 214.81442) scale(1 .92694)" gradientUnits="userSpaceOnUse">
      <stop offset="0" stop-color="#926c2a"/>
      <stop offset=".05573" stop-color="#95702b"/>
      <stop offset=".11403" stop-color="#a07c31"/>
      <stop offset=".1733" stop-color="#b1913a"/>
      <stop offset=".21508" stop-color="#c2a543"/>
      <stop offset=".28589" stop-color="#d0b54b"/>
      <stop offset=".34358" stop-color="#d8be50"/>
      <stop offset=".42355" stop-color="#e2cb57"/>
      <stop offset=".5" stop-color="#e8d25b"/>
      <stop offset=".61847" stop-color="#e5cf59"/>
      <stop offset=".68925" stop-color="#dec755"/>
      <stop offset=".74729" stop-color="#d2b84d"/>
      <stop offset=".79609" stop-color="#c3a643"/>
      <stop offset=".83417" stop-color="#ae8d38"/>
      <stop offset=".87539" stop-color="#9e7b30"/>
      <stop offset=".91857" stop-color="#95702b"/>
      <stop offset=".96648" stop-color="#926d2a"/>
    </linearGradient>
    <linearGradient id="linear-gradient4" x1="1256.88441" y1="57.19787" x2="1335.4618" y2="57.19787" gradientUnits="userSpaceOnUse">
      <stop offset=".34358" stop-color="#d8be50"/>
      <stop offset=".42355" stop-color="#e2cb57"/>
      <stop offset=".5" stop-color="#e8d25b"/>
      <stop offset=".70005" stop-color="#e5cf59"/>
      <stop offset=".81958" stop-color="#dec755"/>
      <stop offset=".91759" stop-color="#d2b84d"/>
      <stop offset="1" stop-color="#c3a643"/>
    </linearGradient>
    <linearGradient id="linear-gradient5" x1="1280.87294" y1="56.86169" x2="1313.09559" y2="56.86169" gradientUnits="userSpaceOnUse">
      <stop offset="0" stop-color="#d8be50"/>
      <stop offset=".25564" stop-color="#e2cb57"/>
      <stop offset=".5" stop-color="#e8d25b"/>
      <stop offset=".70005" stop-color="#e5cf59"/>
      <stop offset=".81958" stop-color="#dec755"/>
      <stop offset=".91759" stop-color="#d2b84d"/>
      <stop offset="1" stop-color="#c3a643"/>
    </linearGradient>
  </defs>
  <g>
    <path class="st9" d="M409.65436,277.72559v40.19141h-5.26758v-40.19141h5.26758Z"/>
    <path class="st9" d="M422.91291,296.86719c0-2.98145-.06055-5.42676-.24219-7.81152h4.72266l.30273,4.77051h.12109c1.45312-2.74316,4.84375-5.42676,9.6875-5.42676,4.05664,0,10.35352,2.38525,10.35352,12.28418v17.2334h-5.32812v-16.63721c0-4.65137-1.75586-8.52734-6.78125-8.52734-3.51172,0-6.23633,2.44482-7.14453,5.3667-.24219.65625-.36328,1.55078-.36328,2.44531v17.35254h-5.32812v-21.0498Z"/>
    <path class="st9" d="M460.14679,296.86719c0-2.98145-.06055-5.42676-.24219-7.81152h4.72266l.30273,4.77051h.12109c1.45312-2.74316,4.84375-5.42676,9.6875-5.42676,4.05664,0,10.35352,2.38525,10.35352,12.28418v17.2334h-5.32812v-16.63721c0-4.65137-1.75586-8.52734-6.78125-8.52734-3.51172,0-6.23633,2.44482-7.14453,5.3667-.24219.65625-.36328,1.55078-.36328,2.44531v17.35254h-5.32812v-21.0498Z"/>
    <path class="st9" d="M523.90046,303.24756c0,10.67432-7.50781,15.3252-14.5918,15.3252-7.93164,0-14.04688-5.72461-14.04688-14.84814,0-9.66016,6.41797-15.3252,14.53125-15.3252,8.41602,0,14.10742,6.02295,14.10742,14.84814ZM500.65046,303.5459c0,6.3208,3.69336,11.09131,8.90039,11.09131,5.08594,0,8.90039-4.71094,8.90039-11.21045,0-4.89014-2.48242-11.0918-8.7793-11.0918s-9.02148,5.72461-9.02148,11.21094Z"/>
    <path class="st9" d="M535.88752,289.05566l5.75195,16.21973c.96875,2.62354,1.75586,5.00879,2.36133,7.39404h.18164c.66602-2.38525,1.51367-4.77051,2.48242-7.39404l5.69141-16.21973h5.57031l-11.50391,28.86133h-5.08594l-11.14062-28.86133h5.69141Z"/>
    <path class="st9" d="M582.56696,317.91699l-.42383-3.6377h-.18164c-1.63477,2.26611-4.7832,4.29346-8.96094,4.29346-5.93359,0-8.96094-4.11426-8.96094-8.28857,0-6.97705,6.29688-10.79346,17.61914-10.7334v-.59668c0-2.38525-.66602-6.67871-6.66016-6.67871-2.72461,0-5.57031.83496-7.62891,2.14697l-1.21094-3.4585c2.42188-1.55078,5.93359-2.56445,9.62695-2.56445,8.96094,0,11.14062,6.02295,11.14062,11.80713v10.79346c0,2.50439.12109,4.94922.48438,6.91699h-4.84375ZM581.77985,303.18799c-5.8125-.11914-12.41211.89453-12.41211,6.5,0,3.39893,2.30078,5.00879,5.02539,5.00879,3.81445,0,6.23633-2.38525,7.08398-4.83008.18164-.53662.30273-1.13281.30273-1.66943v-5.00928Z"/>
    <path class="st9" d="M605.33088,280.7666v8.28906h7.62891v3.99512h-7.62891v15.56348c0,3.57812,1.0293,5.60547,3.99609,5.60547,1.39258,0,2.42188-.17871,3.08789-.35742l.24219,3.93555c-1.0293.41748-2.66406.71533-4.72266.71533-2.48242,0-4.48047-.7749-5.75195-2.20605-1.51367-1.55078-2.05859-4.11475-2.05859-7.51367v-15.74268h-4.54102v-3.99512h4.54102v-6.91748l5.20703-1.37158Z"/>
    <path class="st9" d="M628.51886,280.94531c.06055,1.78906-1.27148,3.22021-3.39062,3.22021-1.87695,0-3.20898-1.43115-3.20898-3.22021,0-1.84814,1.39258-3.2793,3.33008-3.2793,1.99805,0,3.26953,1.43115,3.26953,3.2793ZM622.58527,317.91699v-28.86133h5.32812v28.86133h-5.32812Z"/>
    <path class="st9" d="M666.90436,303.24756c0,10.67432-7.50781,15.3252-14.5918,15.3252-7.93164,0-14.04688-5.72461-14.04688-14.84814,0-9.66016,6.41797-15.3252,14.53125-15.3252,8.41602,0,14.10742,6.02295,14.10742,14.84814ZM643.65436,303.5459c0,6.3208,3.69336,11.09131,8.90039,11.09131,5.08594,0,8.90039-4.71094,8.90039-11.21045,0-4.89014-2.48242-11.0918-8.7793-11.0918s-9.02148,5.72461-9.02148,11.21094Z"/>
    <path class="st9" d="M677.25592,296.86719c0-2.98145-.06055-5.42676-.24219-7.81152h4.72266l.30273,4.77051h.12109c1.45312-2.74316,4.84375-5.42676,9.6875-5.42676,4.05664,0,10.35352,2.38525,10.35352,12.28418v17.2334h-5.32812v-16.63721c0-4.65137-1.75586-8.52734-6.78125-8.52734-3.51172,0-6.23633,2.44482-7.14453,5.3667-.24219.65625-.36328,1.55078-.36328,2.44531v17.35254h-5.32812v-21.0498Z"/>
    <path class="st9" d="M731.13898,278.26221c2.30078-.47705,5.93359-.83496,9.62695-.83496,5.26758,0,8.6582.89453,11.20117,2.92188,2.11914,1.55029,3.39062,3.93604,3.39062,7.09619,0,3.87598-2.60352,7.2749-6.90234,8.82568v.11914c3.875.9541,8.41602,4.11475,8.41602,10.07764,0,3.4585-1.39258,6.08252-3.45117,8.05029-2.8457,2.56396-7.44727,3.75684-14.10742,3.75684-3.63281,0-6.41797-.23877-8.17383-.47705v-39.53564ZM736.40656,294.72021h4.7832c5.57031,0,8.83984-2.8623,8.83984-6.73828,0-4.71094-3.63281-6.55908-8.96094-6.55908-2.42188,0-3.81445.17871-4.66211.35742v12.93994ZM736.40656,313.98145c1.0293.17871,2.54297.23828,4.41992.23828,5.44922,0,10.47461-1.96777,10.47461-7.81152,0-5.48633-4.7832-7.75195-10.53516-7.75195h-4.35938v15.3252Z"/>
    <path class="st9" d="M770.6131,304.44043c.12109,7.09619,4.72266,10.01807,10.05078,10.01807,3.81445,0,6.11523-.65625,8.11328-1.49072l.9082,3.75684c-1.87695.83447-5.08594,1.78857-9.74805,1.78857-9.02148,0-14.41016-5.84375-14.41016-14.5498,0-8.70654,5.20703-15.56396,13.74414-15.56396,9.56641,0,12.10938,8.28906,12.10938,13.59619,0,1.07324-.12109,1.9082-.18164,2.44482h-20.58594ZM786.2342,300.68359c.06055-3.33936-1.39258-8.52734-7.38672-8.52734-5.38867,0-7.75,4.88965-8.17383,8.52734h15.56055Z"/>
    <path class="st9" d="M803.54865,289.05566l6.41797,17.0542c.66602,1.9082,1.39258,4.17432,1.87695,5.90381h.12109c.54492-1.72949,1.15039-3.93604,1.87695-6.02295l5.8125-16.93506h5.63086l-7.99219,20.57275c-3.81445,9.89844-6.41797,14.96729-10.05078,18.06787-2.60352,2.26611-5.20703,3.16064-6.53906,3.39941l-1.33203-4.41309c1.33203-.41699,3.08789-1.25195,4.66211-2.56396,1.45312-1.13281,3.26953-3.16064,4.48047-5.84375.24219-.53662.42383-.9541.42383-1.25244,0-.29785-.12109-.71533-.36328-1.37158l-10.83789-26.59521h5.8125Z"/>
    <path class="st9" d="M859.67389,303.24756c0,10.67432-7.50781,15.3252-14.5918,15.3252-7.93164,0-14.04688-5.72461-14.04688-14.84814,0-9.66016,6.41797-15.3252,14.53125-15.3252,8.41602,0,14.10742,6.02295,14.10742,14.84814ZM836.42389,303.5459c0,6.3208,3.69336,11.09131,8.90039,11.09131,5.08594,0,8.90039-4.71094,8.90039-11.21045,0-4.89014-2.48242-11.0918-8.7793-11.0918s-9.02148,5.72461-9.02148,11.21094Z"/>
    <path class="st9" d="M870.02546,296.86719c0-2.98145-.06055-5.42676-.24219-7.81152h4.72266l.30273,4.77051h.12109c1.45312-2.74316,4.84375-5.42676,9.6875-5.42676,4.05664,0,10.35352,2.38525,10.35352,12.28418v17.2334h-5.32812v-16.63721c0-4.65137-1.75586-8.52734-6.78125-8.52734-3.51172,0-6.23633,2.44482-7.14453,5.3667-.24219.65625-.36328,1.55078-.36328,2.44531v17.35254h-5.32812v-21.0498Z"/>
    <path class="st9" d="M932.56818,275.57861v34.88428c0,2.56445.06055,5.48633.24219,7.4541h-4.7832l-.24219-5.00879h-.12109c-1.63477,3.21973-5.20703,5.66455-9.99023,5.66455-7.08398,0-12.5332-5.90332-12.5332-14.66895-.06055-9.60107,5.99414-15.50439,13.13867-15.50439,4.48047,0,7.50781,2.08691,8.83984,4.4126h.12109v-17.2334h5.32812ZM927.24005,300.80273c0-.65576-.06055-1.55029-.24219-2.20605-.78711-3.33984-3.69336-6.08252-7.68945-6.08252-5.50977,0-8.7793,4.77051-8.7793,11.15088,0,5.84375,2.90625,10.67383,8.6582,10.67383,3.57227,0,6.8418-2.3252,7.81055-6.26123.18164-.71533.24219-1.43115.24219-2.26562v-5.00928Z"/>
    <path class="st9" d="M966.95636,282.13818h-12.41211v-4.4126h30.21289v4.4126h-12.47266v35.77881h-5.32812v-35.77881Z"/>
    <path class="st9" d="M991.41559,304.44043c.12109,7.09619,4.72266,10.01807,10.05078,10.01807,3.81445,0,6.11523-.65625,8.11328-1.49072l.9082,3.75684c-1.87695.83447-5.08594,1.78857-9.74805,1.78857-9.02148,0-14.41016-5.84375-14.41016-14.5498,0-8.70654,5.20703-15.56396,13.74414-15.56396,9.56641,0,12.10938,8.28906,12.10938,13.59619,0,1.07324-.12109,1.9082-.18164,2.44482h-20.58594ZM1007.03669,300.68359c.06055-3.33936-1.39258-8.52734-7.38672-8.52734-5.38867,0-7.75,4.88965-8.17383,8.52734h15.56055Z"/>
    <path class="st9" d="M1043.30207,316.84375c-1.39258.71533-4.48047,1.66943-8.41602,1.66943-8.83984,0-14.5918-5.90332-14.5918-14.729,0-8.88477,6.17578-15.3252,15.74219-15.3252,3.14844,0,5.93359.77539,7.38672,1.49072l-1.21094,4.05518c-1.27148-.71582-3.26953-1.37158-6.17578-1.37158-6.7207,0-10.35352,4.88965-10.35352,10.9126,0,6.67871,4.35938,10.79297,10.17188,10.79297,3.02734,0,5.02539-.7749,6.53906-1.43066l.9082,3.93555Z"/>
    <path class="st9" d="M1053.16974,275.57861h5.32812v18.00879h.12109c.84766-1.49072,2.17969-2.80273,3.81445-3.69727,1.57422-.89453,3.45117-1.49072,5.44922-1.49072,3.93555,0,10.23242,2.38525,10.23242,12.34375v17.17383h-5.32812v-16.57764c0-4.65088-1.75586-8.58691-6.78125-8.58691-3.45117,0-6.17578,2.38525-7.14453,5.24756-.30273.71582-.36328,1.49072-.36328,2.50488v17.41211h-5.32812v-42.33838Z"/>
    <path class="st9" d="M1090.40387,296.86719c0-2.98145-.06055-5.42676-.24219-7.81152h4.72266l.30273,4.77051h.12109c1.45312-2.74316,4.84375-5.42676,9.6875-5.42676,4.05664,0,10.35352,2.38525,10.35352,12.28418v17.2334h-5.32812v-16.63721c0-4.65137-1.75586-8.52734-6.78125-8.52734-3.51172,0-6.23633,2.44482-7.14453,5.3667-.24219.65625-.36328,1.55078-.36328,2.44531v17.35254h-5.32812v-21.0498Z"/>
    <path class="st9" d="M1154.15754,303.24756c0,10.67432-7.50781,15.3252-14.5918,15.3252-7.93164,0-14.04688-5.72461-14.04688-14.84814,0-9.66016,6.41797-15.3252,14.53125-15.3252,8.41602,0,14.10742,6.02295,14.10742,14.84814ZM1130.90754,303.5459c0,6.3208,3.69336,11.09131,8.90039,11.09131,5.08594,0,8.90039-4.71094,8.90039-11.21045,0-4.89014-2.48242-11.0918-8.7793-11.0918s-9.02148,5.72461-9.02148,11.21094Z"/>
    <path class="st9" d="M1164.5091,275.57861h5.32812v42.33838h-5.32812v-42.33838Z"/>
    <path class="st9" d="M1208.94904,303.24756c0,10.67432-7.50781,15.3252-14.5918,15.3252-7.93164,0-14.04688-5.72461-14.04688-14.84814,0-9.66016,6.41797-15.3252,14.53125-15.3252,8.41602,0,14.10742,6.02295,14.10742,14.84814ZM1185.69904,303.5459c0,6.3208,3.69336,11.09131,8.90039,11.09131,5.08594,0,8.90039-4.71094,8.90039-11.21045,0-4.89014-2.48242-11.0918-8.7793-11.0918s-9.02148,5.72461-9.02148,11.21094Z"/>
    <path class="st9" d="M1244.54865,289.05566c-.12109,2.08691-.24219,4.4126-.24219,7.93066v16.75635c0,6.61914-1.33203,10.67432-4.17773,13.17871-2.8457,2.62354-6.96289,3.4585-10.65625,3.4585-3.51172,0-7.38672-.83496-9.74805-2.38525l1.33203-3.99512c1.9375,1.19238,4.96484,2.26611,8.59766,2.26611,5.44922,0,9.44531-2.80273,9.44531-10.07812v-3.21973h-.12109c-1.63477,2.68311-4.7832,4.83008-9.32422,4.83008-7.26562,0-12.47266-6.08252-12.47266-14.07324,0-9.7793,6.47852-15.3252,13.19922-15.3252,5.08594,0,7.87109,2.62402,9.14258,5.00928h.12109l.24219-4.35303h4.66211ZM1239.03888,300.44482c0-.89404-.06055-1.66943-.30273-2.38525-.96875-3.04102-3.57227-5.54541-7.44727-5.54541-5.08594,0-8.71875,4.23389-8.71875,10.9126,0,5.66504,2.90625,10.37549,8.6582,10.37549,3.26953,0,6.23633-2.02734,7.38672-5.3667.30273-.89453.42383-1.9082.42383-2.80273v-5.18799Z"/>
    <path class="st9" d="M1258.71418,289.05566l6.41797,17.0542c.66602,1.9082,1.39258,4.17432,1.87695,5.90381h.12109c.54492-1.72949,1.15039-3.93604,1.87695-6.02295l5.8125-16.93506h5.63086l-7.99219,20.57275c-3.81445,9.89844-6.41797,14.96729-10.05078,18.06787-2.60352,2.26611-5.20703,3.16064-6.53906,3.39941l-1.33203-4.41309c1.33203-.41699,3.08789-1.25195,4.66211-2.56396,1.45312-1.13281,3.26953-3.16064,4.48047-5.84375.24219-.53662.42383-.9541.42383-1.25244,0-.29785-.12109-.71533-.36328-1.37158l-10.83789-26.59521h5.8125Z"/>
  </g>
  <g>
    <g>
      <path d="M345.55359,126.55031c-10.02153-26.83852-39.20121-83.40214-62.19121-94.08002-22.99004-10.67719-48.04349-13.56375-66.61235-13.85209-13.6867-.21255-26.40409-.11159-32.14924-.04448-5.74588-.06711-18.46259-.16807-32.14991.04448-18.56886.28834-43.62233,3.1749-66.61235,13.85209-22.99004,10.67788-52.16968,67.24149-62.19121,94.08002-4.938,13.22563-6.12851,26.40341-4.7334,39.34601,3.13567,29.08066,19.3249,56.9755,35.38722,81.57322.02392.03653,57.47841,88.02127,74.57046,96.67691,12.94925,6.55767,40.09933,7.98266,52.50913,8.28827v.08103s1.18055.00732,3.22007-.01993c2.03883.02725,3.21938.01993,3.21938.01993v-.08103c12.4098-.30561,39.5599-1.7306,52.50915-8.28827,17.09203-8.65564,74.54652-96.64037,74.57044-96.67691,16.06232-24.59773,32.25155-52.49256,35.38724-81.57322,1.39574-12.9426.20525-26.12038-4.7334-39.34601"/>
      <path class="st3" d="M187.37374,352.58272c-.52019,0-1.47615-.00266-2.77425-.0206-2.0143.02725-3.20677.01993-3.21938.01993h-.06577v-.08304c-11.46844-.28432-39.38187-1.6635-52.47263-8.29356-8.84165-4.47697-28.65016-30.52694-43.71001-51.59106-16.40845-22.95016-30.75215-44.90184-30.88634-45.10843-16.54729-25.34113-32.28808-52.76496-35.39784-81.60246-1.48081-13.7418.11228-26.99001,4.73737-39.37658,4.41518-11.82453,13.93645-32.82952,26.23799-53.11169,9.35717-15.42725,23.19663-35.06435,35.98777-41.00486,23.60919-10.96553,49.26986-13.58833,66.63893-13.85874,13.45413-.20927,25.91908-.11824,32.15121-.04448,6.23148-.07242,18.69578-.16345,32.15058.04448,17.36909.27041,43.02974,2.89321,66.63895,13.85874,12.79047,5.94051,26.63059,25.57761,35.9871,41.00486,12.30154,20.28153,21.82279,41.28651,26.23862,53.11169,4.62445,12.38657,6.21887,25.63478,4.73672,39.37658-3.10909,28.83749-18.85055,56.26133-35.39717,81.60246-.13417.20659-14.47787,22.15826-30.88634,45.10843-15.0605,21.06412-34.86838,47.11409-43.71001,51.59106-13.09141,6.63007-41.00486,8.00924-52.47261,8.29356v.08304h-.06577c-.00466,0-.15879.00067-.44712.00067M184.59949,352.42991c1.74984.02261,2.87789.02261,3.15491.01928v-.07972l.06378-.00134c11.41861-.28169,39.38919-1.65087,52.48125-8.28095,8.81641-4.46434,28.60434-30.49039,43.65223-51.53724,16.55128-23.14881,30.75346-44.90382,30.89234-45.11711,16.53863-25.32649,32.27012-52.73435,35.37657-81.5433,1.48016-13.72124-.11163-26.94881-4.72942-39.31612-4.41319-11.81987-13.93047-32.81557-26.22666-53.0891-9.34791-15.41132-23.16943-35.02717-35.93001-40.95373-23.58792-10.95555-49.22931-13.57637-66.58579-13.84609-13.45282-.20927-25.91707-.11759-32.14791-.04383-6.23347-.07376-18.69641-.16544-32.14922.04383-17.35579.26972-42.99651,2.89054-66.58512,13.84609-12.76056,5.92725-26.5821,25.54241-35.92997,40.95373-12.29688,20.27354-21.81349,41.26988-26.22668,53.0891-4.61782,12.36731-6.2089,25.59488-4.72942,39.31612,3.10579,28.80895,18.83794,56.21681,35.37592,81.5433.13953.21328,14.34171,21.9683,30.89299,45.11711,15.04789,21.04685,34.8358,47.07289,43.65223,51.53724,13.09141,6.63009,41.06262,7.99927,52.48058,8.28095l.06508.00134v.07972c.27637.00332,1.40442.00332,3.15231-.01928"/>
    </g>
    <path class="st4" d="M77.96189,22.63639C53.43526,34.02844,22.30511,94.37209,11.61393,123.00502c-5.26885,14.10985-6.53839,28.16785-5.04894,41.9761,3.34427,31.02319,20.61635,60.78347,37.75158,87.02477.02524.03852,61.32093,93.90463,79.5543,103.13892,13.81554,6.99678,42.77997,8.51546,56.0195,8.84232v.0857s1.25962.00864,3.43465-.0206c2.17503.02924,3.43526.0206,3.43526.0206v-.0857c13.23957-.32686,42.20398-1.84554,56.01885-8.84232,18.23471-9.23429,79.52908-103.1004,79.55499-103.13892,17.13521-26.24129,34.40667-56.00158,37.75158-87.02477,1.48945-13.80826.21855-27.86625-5.05028-41.9761-10.03881-26.88836-24.07024-53.62393-41.31578-76.58073C285.21631,8.48202,236.96821,7.54398,193.80292,6.75873c-5.32864-.09699-10.81473-.16608-16.39315-.16608-33.33178,0-70.18651,2.45408-99.44789,16.04374"/>
    <path d="M343.7941,126.29206c-10.03617-26.87903-39.26033-83.52702-62.28488-94.22153-23.02459-10.69382-48.11591-13.58366-66.71271-13.87265-13.70725-.21328-26.44322-.11228-32.19774-.04452-5.75379-.06776-18.49044-.16876-32.1977.04452-18.59678.28898-43.68745,3.17883-66.71202,13.87265-23.02524,10.69451-52.24875,67.3425-62.28488,94.22153-4.94599,13.24558-6.13846,26.44261-4.7407,39.40513,3.14031,29.12388,19.35411,57.06122,35.44035,81.69548.02392.03718,57.56543,88.15346,74.68272,96.82239,12.96853,6.56762,40.15915,7.99396,52.58757,8.30021v.08106s1.18315.00797,3.22465-.01926c2.04219.02723,3.22538.01926,3.22538.01926v-.08106c12.42841-.30626,39.6197-1.73259,52.58753-8.30021,17.11798-8.66894,74.65884-96.78521,74.68276-96.82239,16.08624-24.63426,32.30004-52.57159,35.44035-81.69548,1.39708-12.96251.2046-26.15955-4.7407-39.40513"/>
    <path class="st2" d="M149.7608,36.4971c-.23384.00661-.60388.00596-1.09682.00531-8.24174-.0133-51.13332-.0266-75.86524,34.20003-28.10475,38.89556-44.63146,79.32975-39.41443,99.18613,4.21057,16.0304,18.1736,30.62655,24.39975,35.8436,6.22617,5.21636,28.77574,15.31295,49.30574,11.10639,20.52998-4.2066,32.64549-17.16449,41.39615-27.59722,8.75064-10.43407,11.44318-37.69514,9.42361-54.18661-2.01959-16.49083-13.12598-42.06912-14.80874-46.44444-1.68276-4.37467-4.03851-7.90891-1.51402-13.12462,2.5238-5.21705,7.06788-4.54408,14.30317-5.04898,7.23595-.50486,64.9555,2.69258,72.52762,5.04898,7.57276,2.35506,11.61125,4.20656,8.58257,11.94675-2.67198,6.82741-28.10212,30.29045-37.69445,36.18043-4.10892,2.52248-6.22686,4.54274-7.90895,1.51402-1.68343-3.02868-1.99366-7.39204,1.68209-11.77932,1.98705-2.37104,3.99003-4.72942,6.00032-7.08051,1.52797-1.78573,3.50038-3.56813,4.65368-5.60899,2.34509-4.15275,2.43145-9.86871-1.9731-12.57787-4.22517-2.59758-9.79698-2.88056-14.57023-3.67644-11.10635-1.85085-19.85634,3.70235-22.21209,11.77932-2.35573,8.07767,9.7598,39.71406,14.63998,47.45425,4.88022,7.74083,7.57212,8.75064,12.1162,9.92851,4.54339,1.17784,16.32275-6.73107,37.86252-14.30319,21.53912-7.57276,48.29529,2.01892,54.18463,6.0581,5.88999,4.03849,7.9096,4.71146,8.58257,11.44253.67297,6.73107-7.74088,18.1736-24.2317,44.92973-16.49147,26.75617-47.95976,59.23424-47.95976,59.23424,0,0,12.78913-26.25125,15.98592-33.31911,3.19809-7.0679,19.52154-38.53554,26.75682-50.48362,7.23528-11.94743,7.06721-22.88571-6.0581-27.76529-13.12531-4.88022-38.36742,1.17723-65.96464,20.86615-27.59786,19.68827-30.62657,37.35766-68.82592,52.16571-38.19868,14.80939-63.77698,2.02026-63.77698,2.02026l10.9383,20.36124c10.93765,20.36191,42.40593,59.90721,42.40593,59.90721,0,0,17.22957-23.93803,31.62841-40.11265,22.03072-24.74652,46.95664-38.97793,46.95664-38.97793,0,0-11.94743,13.967-26.08253,32.14061-14.13574,18.17423-34.83382,62.09485-34.83382,62.09485,0,0-1.85085.16742,7.74152,6.7304,9.59101,6.56298,56.7091,8.75064,74.71459,7.90893,18.00618-.84104,33.19623-7.1031,45.26657-23.22188,17.57171-23.46437,39.71406-62.09487,54.69087-89.69209,14.97612-27.59722,20.19248-48.80019,22.21209-62.7672,2.01957-13.967-6.96491-32.97168-6.96491-32.97168-11.40134-37.53035-57.00806-75.0614-74.58573-83.13841-11.89626-5.46484-44.64407-6.64203-71.37036-6.64203-12.7652,0-24.15792.26839-31.24574.46638"/>
    <path d="M84.98343,125.97161s24.59505-1.20176,25.03086-.54805.2179,2.75965.2179,2.75965l8.64236.14549s.65371-4.28498.2179-5.66478c-.43514-1.37984-1.37982-3.77675-5.15591-4.3574-3.77677-.58129-31.66494-.36274-33.04411.36274-1.37982.72678-4.28496,2.25142-4.64837,5.51995-.36339,3.26788-2.90447,21.71453-2.03352,23.82046.8716,2.10662,1.01708,4.72079,7.26251,5.01107,6.2461.29101,28.75914.14553,30.50235-.29028,1.74323-.43581,4.79321-1.08952,5.01109-3.63127.2179-2.54178,1.08952-15.90491,1.08952-15.90491l-16.99439-.07242-.65304,7.55285,8.13346.07242s.2179,5.30208-.2903,5.3745c-.50823.07238-25.05545.65367-25.56368.2179-.50888-.43581,2.27536-20.36793,2.27536-20.36793"/>
  </g>
  <g>
    <g class="st10">
      <g>
        <g class="st5">
          <rect class="st8" x="295.65003" y="57.93096" width="1223.50216" height="221.15179" transform="translate(9.28313 -43.99121) rotate(2.79145)"/>
        </g>
        <rect class="st0" x="354.35925" y="-638.61576" width="979.07705" height="979.07701"/>
      </g>
    </g>
    <path class="st1" d="M496.4481,96.34935v148.52872h55.13832v-25.53759h-26.89198v-36.16194h24.18324v-23.49513h-24.18324v-37.79647h26.89198v-25.53759h-55.13832ZM609.42539,96.34935v31.25839l-17.80016-31.25839h-23.79564v148.52872h28.24638v-99.29202l13.15633,22.47391v76.81811h28.43947V96.34935h-28.24638ZM683.14313,116.16614h10.05999c1.80586,0,2.71016.95464,2.71016,2.86109v43.10795c0,1.36392-.6473,2.04383-1.93504,2.04383h-10.8351v-48.01287ZM654.89675,96.34935v148.52872h28.24638v-58.02256h10.8351c1.28775,0,1.93504.68263,1.93504,2.04246v55.9801h29.02012v-59.45173c-1.29185-1.63451-2.90325-3.27039-4.83829-4.90355-1.93367-1.63451-3.93399-3.19833-5.99685-4.69821,2.06286-1.49852,4.06318-3.13305,5.99685-4.9049,1.93504-1.76778,3.54644-3.53828,4.83829-5.3115v-60.06637c-4.51738-3.26765-10.09402-5.6188-16.7368-7.04801-6.64411-1.4305-13.70573-2.14445-21.18479-2.14445h-32.11505ZM857.26376,183.58649h10.83514c1.28638,0,1.93508.68398,1.93508,2.04381v36.56852c0,1.91058-.90434,2.86246-2.7102,2.86246h-10.06003v-41.47479ZM857.26376,116.16614h10.06003c1.80586,0,2.7102.95464,2.7102,2.86109v39.83893c0,1.3639-.64871,2.04246-1.93508,2.04246h-10.83514v-44.74248ZM829.01743,96.34935v148.52872h31.14958c7.60688,0,14.7664-.74791,21.47308-2.2478,6.70536-1.49717,12.31598-3.88096,16.83063-7.14998v-53.32435c-1.29053-1.63316-2.90051-3.26767-4.83559-4.90218-1.935-1.63588-3.93532-3.19969-5.99681-4.69958,2.06149-1.49717,4.06181-3.13033,5.99681-4.90355,1.93508-1.76776,3.54507-3.53963,4.83559-5.31148v-56.79735c-4.51464-3.26765-10.12527-5.6188-16.83063-7.04801-6.70669-1.4305-13.86621-2.14445-21.47308-2.14445h-31.14958ZM999.06953,96.34935v25.53759h15.67065l2.32119,2.24645v120.74468h29.02012v-120.74468l2.32127-2.24645h15.67198v-25.53759h-65.00521ZM1078.19119,244.87807h28.43947V96.34802h-28.43947v148.53005ZM426.21426,96.24739c-6.19129,1.83984-11.73805,4.73355-16.63886,8.68248v131.36768c4.90081,3.95165,10.44757,6.84401,16.63886,8.68387,6.18995,1.83848,12.2507,2.75636,18.185,2.75636,5.93023,0,11.99505-.91789,18.185-2.75636,6.19129-1.83987,11.73533-4.73222,16.63886-8.68387v-74.57168h-32.11507v14.0987l3.87006,5.10617v43.72259c0,1.36118-.71118,2.04109-2.12814,2.04109h-8.90008c-1.42102,0-2.12814-.67991-2.12814-2.04109v-108.07785c0-1.35983.70712-2.04385,2.12814-2.04385h8.90008c1.41695,0,2.12814.68402,2.12814,2.04385v26.96813h28.24501v-38.61375c-4.90353-3.94893-10.44757-6.84264-16.63886-8.68248-6.18995-1.83984-12.25477-2.75912-18.185-2.75912-5.93429,0-11.99505.91928-18.185,2.75912M770.3911,224.65333v-108.07785c0-1.35983.70714-2.04385,2.12814-2.04385h8.89873c1.4183,0,2.12814.68402,2.12814,2.04385v108.07785c0,1.36118-.70984,2.04109-2.12814,2.04109h-8.89873c-1.421,0-2.12814-.67991-2.12814-2.04109M758.78363,96.24739c-6.19131,1.83984-11.73944,4.73355-16.6389,8.68248v131.36768c4.89946,3.95165,10.44759,6.84401,16.6389,8.68387,6.1899,1.83848,12.25066,2.75636,18.18498,2.75636,5.9302,0,11.99507-.91789,18.18498-2.75636,6.19131-1.83987,11.73533-4.73222,16.6389-8.68387V104.92987c-4.90357-3.94893-10.44759-6.84264-16.6389-8.68248-6.1899-1.83984-12.25477-2.75912-18.18498-2.75912-5.93431,0-11.99507.91928-18.18498,2.75912M943.92706,224.65333v-108.07785c0-1.35983.70847-2.04385,2.12946-2.04385h8.90014c1.41693,0,2.12673.68402,2.12673,2.04385v108.07785c0,1.36118-.70979,2.04109-2.12673,2.04109h-8.90014c-1.421,0-2.12946-.67991-2.12946-2.04109M932.31955,96.24739c-6.19127,1.83984-11.73799,4.73355-16.63749,8.68248v131.36768c4.8995,3.95165,10.44622,6.84401,16.63749,8.68387,6.18995,1.83848,12.25207,2.75636,18.18639,2.75636,5.93157,0,11.9937-.91789,18.18498-2.75636,6.19136-1.83987,11.73533-4.73222,16.6389-8.68387V104.92987c-4.90357-3.94893-10.44755-6.84264-16.6389-8.68248-6.19127-1.83984-12.2534-2.75912-18.18498-2.75912-5.93431,0-11.99644.91928-18.18639,2.75912M1140.97315,96.24739c-6.12604,1.83984-11.64155,4.73355-16.54096,8.68248v131.36768c4.89942,3.95165,10.41493,6.84401,16.54096,8.68387,6.12604,1.83848,12.15547,2.75636,18.08845,2.75636s11.96241-.91789,18.08978-2.75636c6.12471-1.83987,11.6374-4.73222,16.54096-8.68387v-53.32298h-27.85882v41.67876c0,1.36118-.7112,2.04109-2.12814,2.04109h-8.90006c-1.42108,0-2.12681-.67991-2.12681-2.04109v-108.07785c0-1.35983.70573-2.04385,2.12681-2.04385h8.90006c1.41693,0,2.12814.68402,2.12814,2.04385v41.0641h27.85882v-52.70971c-4.90357-3.94893-10.41626-6.84264-16.54096-8.68248-6.12737-1.83984-12.15688-2.75912-18.08978-2.75912s-11.96241.91928-18.08845,2.75912M1226.68456,96.24739c-5.99689,1.83984-11.44708,4.73355-16.34658,8.68248v52.91505c0,1.63453.06258,3.54372.19181,5.71945.12641,2.18115.32228,3.95165.57924,5.31285l37.5354,18.79555c1.4156.684,2.22333,1.29729,2.4178,1.8385.19172.54666.28825,1.77185.28825,3.67834v31.46373c0,1.36118-.70988,2.04109-2.12681,2.04109h-8.7056c-1.421,0-2.12814-.67991-2.12814-2.04109v-26.15223h-28.05196v37.79645c4.8995,3.95165,10.34969,6.84401,16.34658,8.68387,5.99681,1.83848,11.961,2.75636,17.89532,2.75636,5.93025,0,11.92838-.91789,17.99325-2.75636,6.05939-1.83987,11.54087-4.73222,16.44303-8.68387v-51.28052c0-4.62887-.32228-8.30721-.96684-11.0323l-38.30637-19.20352c-.7737-.4093-1.2565-.78325-1.45096-1.12457-.19305-.33722-.28958-1.25783-.28958-2.75908v-34.32208c0-1.35983.70705-2.04385,2.12673-2.04385h8.70701c1.41826,0,2.12814.68402,2.12814,2.04385v27.1721h28.05187v-38.81771c-4.90216-3.94893-10.38364-6.84264-16.44303-8.68248-6.06487-1.83984-12.06301-2.75912-17.99325-2.75912-5.93431,0-11.89851.91928-17.89532,2.75912"/>
  </g>
  <path class="st6" d="M1296.17298,96.48669c-21.66382,0-39.28857-17.625-39.28857-39.28857s17.62476-39.28906,39.28857-39.28906,39.28882,17.625,39.28882,39.28906-17.625,39.28857-39.28882,39.28857ZM1296.17298,27.90905c-16.14966,0-29.28857,13.13916-29.28857,29.28906s13.13892,29.28857,29.28857,29.28857,29.28882-13.13867,29.28882-29.28857-13.13892-29.28906-29.28882-29.28906Z"/>
  <path class="st7" d="M1295.72157,62.70837h-5.21484v14.13477h-9.63379v-39.96289h15.72656c4.73926,0,8.44434,1.05078,11.11621,3.15234,2.67188,2.10254,4.00781,5.07324,4.00781,8.91113,0,2.7793-.5625,5.08203-1.68848,6.91016-1.125,1.82715-2.88672,3.30859-5.2832,4.44141l8.34375,16.13574v.41211h-10.32031l-7.05371-14.13477ZM1290.50672,55.29724h6.09277c1.83008,0,3.20703-.48145,4.13086-1.44434s1.38672-2.30664,1.38672-4.03125-.4668-3.07715-1.40039-4.05859c-.93262-.98145-2.30566-1.47266-4.11719-1.47266h-6.09277v11.00684Z"/>
</svg>