<svg width="35" height="37" viewBox="0 0 35 37" fill="none" xmlns="http://www.w3.org/2000/svg">
<path d="M8.11966 0.024798C8.53495 0.024798 8.95023 0.132509 9.32776 0.24022C10.8001 0.599257 12.0838 1.38914 13.0653 2.43034L13.6694 10.8677C12.4235 12.6629 10.3849 13.8836 8.04415 14.0631C9.7053 20.3104 14.3112 25.5164 20.465 28.1733C21.0313 26.0191 22.6547 24.2957 24.7311 23.4699L33.3766 25.5164C34.3204 26.5935 34.8867 27.9579 35 29.394C35 29.789 35 30.1839 35 30.5788C34.6602 34.4564 31.0359 37.3287 26.9963 36.9697C10.7246 35.6053 -1.31866 21.926 0.115963 6.45156C0.455742 2.57396 4.08006 -0.298335 8.11966 0.024798Z" fill="white"/>
</svg>
