<svg width="99" height="100" viewBox="0 0 99 100" fill="none" xmlns="http://www.w3.org/2000/svg">
<g clip-path="url(#clip0_6172_2220)">
<path d="M22.3677 74.5393L22.2069 74.2646C24.0998 70.2213 25.7927 66.0765 27.2799 61.8657C29.2852 56.1893 30.9202 50.8654 31.1864 44.7703C31.3804 40.3249 30.4067 36.1106 31.4514 31.71C32.0725 29.0934 33.1574 26.6066 33.9334 24.0431C34.5203 22.1058 34.6918 21.7862 32.4191 22.5338C28.5185 23.8179 26.9947 28.2928 25.0486 31.46C24.4594 32.4175 24.4476 32.2666 23.3722 32.0295C22.7724 31.8975 19.5603 30.8386 19.2622 30.5261C18.8457 30.0898 19.209 29.0027 19.3486 28.4897C21.1161 21.9761 25.859 15.3563 33.1349 14.874C38.8716 14.4931 43.0656 14.6889 47.6275 18.4681C48.8875 19.5116 50.4491 21.5433 51.8546 22.1553C54.0385 23.1069 56.6082 23.029 58.8903 22.5031C59.47 22.3699 61.2198 21.6718 61.622 21.7343C61.8444 21.7685 62.1556 22.0669 62.2964 22.2437C62.6276 22.6588 64.3597 26.1597 64.4212 26.616C64.5963 27.9037 63.3197 28.3694 62.3756 28.8081C58.914 30.4153 55.2701 31.0898 51.5304 30.025C51.1152 29.9071 49.0898 29.0121 48.9312 29.1453L46.5604 35.9797C50.4988 36.666 57.5511 37.3122 60.226 40.5773C63.4156 44.4708 60.3514 48.0932 58.4893 51.5835C56.4982 55.3132 54.5189 59.0511 52.6177 62.8291L52.2994 63.2194H44.1362L44.0097 62.9801C47.1271 57.4321 49.5902 51.5304 51.857 45.5875C51.8156 45.2974 50.2847 45.1937 49.938 45.1736C47.5991 45.0439 45.2176 45.2302 42.8857 45.3469C41.9156 49.652 40.5444 53.8322 38.9603 57.9427C36.7858 63.585 34.2588 69.1211 31.5957 74.5393H22.3677ZM43.76 19.6272C43.9872 19.3595 44.9573 18.7829 44.7313 18.2959C44.542 17.8879 42.1866 16.2866 41.7642 16.2913C41.6068 16.2925 41.5702 16.3586 41.4779 16.4647C42.0032 17.4316 42.0552 18.7122 42.5166 19.672C42.7769 20.2109 43.2123 20.5174 43.4229 21.1271C44.1954 23.3639 43.0313 26.5347 41.1123 27.8966C40.8864 28.057 39.7187 28.5381 39.695 28.6312C39.6784 29.1253 40.1599 31.8562 40.4865 31.9623C42.028 31.8444 43.1247 30.5768 43.8618 29.3387C45.2282 27.0429 45.8836 23.8096 44.4533 21.3983C44.0771 20.7651 43.2016 20.2851 43.7612 19.6272H43.76Z" fill="white"/>
<path d="M97.8697 98.916C97.7526 99.0598 97.238 99.298 97.0191 99.3051C92.2927 98.9785 86.9997 99.7284 82.3407 99.3075C81.7812 99.2568 81.4487 99.0516 81.2476 98.5103L81.2168 47.7076C81.1861 47.2312 81.5173 46.855 81.8971 46.6168L97.1374 46.5897C97.7041 46.6109 97.9632 47.0319 98.0874 47.5295L98.1454 97.7144C98.1241 98.0245 98.0567 98.6872 97.8697 98.9148V98.916Z" fill="white"/>
<path d="M61.7886 55.6986L77.0301 55.668C77.3389 55.6974 77.7636 55.9616 77.8606 56.2552L77.9174 98.1872C77.9008 98.9831 77.3874 99.2402 76.674 99.3062C72.0281 99.739 66.7137 98.9701 61.9968 99.3038C61.4786 99.2909 61.2207 98.9135 61.0492 98.4796L60.9877 56.787C60.9616 56.2752 61.3177 55.859 61.7874 55.6974L61.7886 55.6986Z" fill="white"/>
<path d="M41.4419 69.259L56.6811 69.2307C57.0869 69.2401 57.398 69.522 57.5944 69.8533L57.689 98.0682C57.6559 98.837 57.3365 99.2367 56.5663 99.3075C51.8376 99.7402 46.4499 98.9702 41.6513 99.3051C40.9379 99.2509 40.6067 98.6188 40.6434 97.9514L40.7605 70.2306C40.7392 69.7672 40.9947 69.3864 41.4419 69.259Z" fill="white"/>
<path d="M8.79727 31.297C9.36042 31.244 9.73427 31.3183 10.2477 31.5541C11.0853 31.9385 13.5769 34.0009 14.114 34.081C14.463 34.1329 14.9741 33.4749 15.2888 33.2886C16.5854 32.521 17.539 33.0764 18.8155 32.6696L22.8971 34.2756C23.4957 34.7602 22.8178 35.6764 22.7895 36.2931C22.7717 36.661 22.9314 37.0077 22.9018 37.4534C22.8664 37.9829 22.2239 39.2552 22.3624 39.5181C23.756 40.6961 25.7377 41.5475 27.0982 42.7066C28.3215 43.7489 28.454 44.9977 27.7288 46.3961C25.9778 49.7733 22.9634 53.1339 21.0563 56.4897C19.9028 57.7455 18.5955 57.5875 17.2314 56.7845C13.5568 54.6184 9.65618 51.5974 6.06675 49.1636C4.55005 48.1354 2.60153 47.0836 1.21024 45.9858C0.164407 45.1604 -0.179867 44.2477 0.247222 42.9436C2.36847 39.6384 4.36194 35.871 6.6429 32.692C7.22379 31.8819 7.74671 31.3985 8.79609 31.2982L8.79727 31.297ZM17.4597 34.4478C16.8433 34.3581 16.3606 34.6034 15.8093 34.8086L15.9134 35.2225C17.2101 36.0302 18.418 36.9994 19.717 37.7989C19.9241 37.9263 20.7096 38.4592 20.8847 38.3354L21.1272 37.2789C20.8386 37.3143 20.6315 37.2541 20.3689 37.1492C19.9655 36.9877 17.8892 35.687 17.6336 35.3958C17.3781 35.1045 17.4645 34.8227 17.4609 34.4478H17.4597Z" fill="white"/>
<path d="M21.0938 80.8147L36.6299 80.8453C37.2711 81.0705 37.3989 81.3783 37.4592 82.0233C37.1682 87.1786 37.8295 92.7241 37.4592 97.8334C37.3965 98.6954 37.2995 99.2189 36.3353 99.3074C31.6066 99.7413 26.2165 98.9666 21.4168 99.3074C20.7211 99.3557 20.3094 98.693 20.2928 98.0693C20.6596 92.8633 19.8255 87.0359 20.2928 81.903C20.3437 81.3453 20.5496 81.0139 21.0926 80.8135L21.0938 80.8147Z" fill="white"/>
<path d="M40.9734 0.0519064C49.6677 -0.89024 51.7606 11.3093 43.8115 13.3752C34.0323 15.9151 31.5218 1.07659 40.9734 0.0519064Z" fill="white"/>
<path d="M0.742237 90.6017L16.509 90.6382C16.8367 90.9094 17.0532 91.137 17.1053 91.5768C17.278 93.0237 17.2461 96.5871 17.1077 98.0693C17.045 98.7402 16.8355 99.219 16.0997 99.305L0.664154 99.2378C0.329345 99.0527 0.0607881 98.8369 0.0643373 98.4207C0.220503 96.2133 -0.135602 93.7489 0.0607881 91.5733C0.105745 91.0757 0.229967 90.7609 0.742237 90.6017Z" fill="white"/>
<path d="M37.2975 76.934C38.0026 77.6934 37.2833 78.7912 36.3285 78.7841H21.4218C20.8279 78.7688 20.1974 78.2571 20.1713 77.6616C20.1299 76.6947 21.0078 76.5933 21.772 76.539C26.4452 76.2089 31.5016 76.7996 36.215 76.539C36.5297 76.539 37.0881 76.7076 37.2975 76.934Z" fill="white"/>
<path d="M67.2339 19.0303C70.3253 18.541 72.5932 21.7153 70.7476 24.3012C68.5152 27.4271 63.6386 25.0323 64.7211 21.3604C65.0452 20.259 66.0792 19.2131 67.2339 19.0303Z" fill="white"/>
<path d="M40.9189 65.3796C41.0135 65.277 41.1969 65.2062 41.3247 65.1378L57.2015 65.1708C58.0817 65.5788 57.9823 66.6955 57.1766 67.1389L41.6476 67.2308C40.7343 67.1648 40.3119 66.0422 40.9189 65.3784V65.3796Z" fill="white"/>
<path d="M97.9907 44.2019C97.87 44.3493 97.3625 44.584 97.1413 44.5922L81.6111 44.5002C80.7463 43.9731 80.9651 42.5971 81.9885 42.4591H97.2619C98.0771 42.4874 98.4415 43.6512 97.9907 44.2019Z" fill="white"/>
</g>
<defs>
<clipPath id="clip0_6172_2220">
<rect width="98.1854" height="99.4442" fill="white"/>
</clipPath>
</defs>
</svg>
