<svg width="89" height="87" viewBox="0 0 89 87" fill="none" xmlns="http://www.w3.org/2000/svg">
<g clip-path="url(#clip0_6172_2251)">
<path d="M24.9742 2.23502H38.256V17.85H43.9251V4.20743H44.411V17.85H54.6154V8.80974H61.0133L61.2563 9.30284H55.1013V17.85H69.5979L69.8409 55.6546L78.1015 55.4903V62.2294H77.6156V55.9834H69.8409V68.8863L69.5979 69.1328H55.7492V76.365H61.7422V76.8581H55.2633V69.1328H51.2949C51.2463 69.1328 51.1653 68.9191 51.0519 68.9684V83.7616H63.2C63.5725 81.0824 67.2493 80.6221 68.3021 83.1041C69.8571 86.7695 63.945 88.7748 63.2 84.7478H50.0801V69.1328H44.411V82.7754H43.9251V69.3794C43.9251 69.3136 44.1843 69.2479 44.0061 69.1328L43.8441 68.9684C43.7793 68.9684 43.7307 69.1328 43.6821 69.1328H38.256V84.7478H25.5411C24.9094 86.4079 23.3868 87.4927 21.6213 86.7531C19.5157 85.8655 19.5643 82.5124 21.7023 81.6741C23.5326 80.9509 24.9094 82.085 25.5411 83.7616H37.2842V69.1328H33.0729V76.8581H26.5939V76.365H32.5869V69.1328H19.5481L19.3051 68.8863V55.4903H10.3966V61.5719L9.91063 61.5061C9.57049 61.2596 9.91063 60.3227 9.91063 59.8625C9.95923 58.301 9.99162 56.5258 9.74866 55.0136H19.3051V50.0826H3.75564V63.0676C6.4444 63.5114 6.75215 67.3905 4.12817 68.2945C0.483767 69.5273 -1.07118 63.7744 2.78379 63.0676V49.0963H19.3051V43.1791H4.88945V42.686H19.3051V36.9331H2.78379V23.7015C2.50844 23.3563 2.05491 23.3727 1.73096 23.1262C-1.36273 20.8086 2.05491 16.3707 4.97044 18.6883C7.88596 21.0058 6.02327 23.2084 3.75564 23.4549V35.9469H19.3051V31.8377H11.2874L11.0444 31.5911V25.0986H11.5304V31.098L11.7733 31.3446H19.3051V18.113L19.5481 17.8664H33.2348V9.31928H27.2418V8.82617H33.7208V17.8664H37.2842V3.22122H25.2171C24.5045 5.57169 21.3946 6.50858 20.0502 4.19099C17.9445 0.574898 24.1157 -2.08786 24.9742 2.23502ZM59.4746 28.3695H29.6714V58.6133H59.4746V28.3695Z" fill="white"/>
<path d="M86.3632 49.7374V63.7087C89.1006 64.0868 89.4731 67.9823 86.8978 68.9356C83.2534 70.2834 81.5526 64.4812 85.3914 63.7087V50.7236H70.0039V49.7374H86.3632Z" fill="white"/>
<path d="M86.3632 24.0959V37.574H70.0039V36.5878H85.3914V24.0959C82.2167 23.4548 82.6864 18.7375 85.7963 18.6553C89.2464 18.5567 89.6675 23.4713 86.3632 24.0959Z" fill="white"/>
<path d="M63.0419 2.23516C63.463 -0.444043 67.156 -0.838526 68.144 1.74205C69.5694 5.48964 63.787 7.21551 63.0419 3.22136H51.0558V17.6858H50.084V2.23516H63.0419Z" fill="white"/>
<path d="M77.4547 25.7399V32.2324C77.2927 32.479 76.8554 32.479 76.5638 32.479H70.0039V31.8215H76.5638C76.6286 31.8215 76.742 32.1173 76.9688 31.7393V25.7399H77.4547Z" fill="white"/>
<path d="M84.2576 43.3279H70.0039V43.821H84.2576V43.3279Z" fill="white"/>
<path d="M33.8848 52.203L40.2179 35.043C40.6067 34.4842 42.6475 34.928 43.3764 34.7636L49.9364 52.203H46.9398L45.2391 47.8473L38.5334 47.7651L36.8975 52.2195H33.901L33.8848 52.203ZM44.4131 45.464L41.9025 37.4099L39.2299 45.464H44.4131Z" fill="white"/>
<path d="M55.2632 34.7799V52.3673C55.1498 52.4166 55.0688 52.2029 55.0202 52.2029H52.3477V34.7799H55.2632Z" fill="white"/>
</g>
<defs>
<clipPath id="clip0_6172_2251">
<rect width="88.1299" height="87" fill="white" transform="translate(0.5)"/>
</clipPath>
</defs>
</svg>
