<svg width="89" height="87" viewBox="0 0 89 87" fill="none" xmlns="http://www.w3.org/2000/svg">
<g clip-path="url(#clip0_6172_2237)">
<path d="M15.7976 61.5453C18.7022 64.2314 21.6703 66.855 24.6226 69.4942C25.9559 70.2438 27.7177 68.6509 26.7971 67.3547C23.9718 64.5125 20.7339 62.0451 17.861 59.2497C14.6706 56.142 17.2896 52.2535 21.3529 53.331C25.6861 57.1727 30.1621 60.9363 34.3683 64.9185C38.6221 68.9476 41.622 72.7268 41.9236 78.8173C42.0188 80.8318 42.0982 83.8771 41.9236 85.8604C41.9077 86.0946 41.8442 86.5943 41.6855 86.7661C41.495 86.9223 41.2887 86.9223 41.0506 86.9379C38.8443 87.1253 36.4476 86.8911 34.2413 86.813C32.035 86.7349 30.5272 87.2346 29.051 85.7979C28.0828 84.8609 28.0987 83.4554 27.2733 82.4403L7.89309 64.9498C7.16296 64.1845 6.71853 63.2944 6.60742 62.2481L6.63917 44.2265C7.40104 40.666 13.1627 40.7753 13.5278 44.4296C13.9722 48.8022 13.0516 54.0181 13.5278 58.3752C13.7183 60.1242 14.623 60.4834 15.7817 61.561L15.7976 61.5453Z" fill="white"/>
<path d="M67.9236 75.9594C66.9395 76.8495 65.9713 77.8021 64.9872 78.6923C63.8285 79.7542 60.8128 82.003 60.2731 83.2523C59.7335 84.5016 59.8922 84.5797 59.4319 85.2668C58.0192 87.3595 55.5431 86.8129 53.4004 86.8129C51.4322 86.8129 49.464 86.8129 47.5117 86.8129C47.1625 86.8129 46.4165 87.094 46.3054 86.5318C46.4959 82.409 45.7499 78.0988 47.0831 74.1322C48.7974 68.9944 53.0512 65.5587 56.924 62.0137C59.7652 59.4058 63.0667 56.1888 66.0348 53.8463C69.2252 51.332 74.0504 55.5016 70.368 59.1247C67.5586 61.8888 64.273 64.3875 61.4318 67.1204C60.2255 68.5415 62.1143 70.353 63.6222 69.3848L73.7806 60.3115C74.2885 59.7493 74.5266 58.7811 74.59 58.0471C74.9551 53.5183 74.2726 48.5835 74.6377 44.0234C75.7011 40.6346 80.7803 40.8689 81.4945 44.3201V62.248C81.3676 63.8877 80.4628 64.6529 79.3676 65.7149C75.7487 69.213 71.6854 72.5706 67.9395 75.975L67.9236 75.9594Z" fill="white"/>
<path d="M32.4944 59.858C22.8281 50.8784 27.2882 34.1218 40.3989 31.467C52.6524 28.9996 62.8425 39.3065 60.414 51.2845C57.8744 63.8402 41.9067 68.6189 32.4785 59.858H32.4944ZM45.0336 33.4503V38.6663L49.4144 38.3852C48.6843 36.3706 47.0494 34.3561 45.0336 33.4503ZM43.0654 33.5753C42.8432 33.544 42.6686 33.6533 42.4781 33.747C41.5099 34.2155 38.6053 37.3701 38.6688 38.4008L43.0495 38.6819V33.5753H43.0654ZM54.2555 37.4325C54.4459 37.1827 53.0492 36.1676 52.7952 35.9802C51.6841 35.1681 50.4461 34.5747 49.1763 34.0281L50.5413 35.9177L51.6048 37.9479C51.9698 38.1665 53.7476 37.495 54.2555 37.4325ZM38.7957 34.1374C36.8752 34.7933 35.0498 35.9021 33.7166 37.4325C34.3038 37.5419 36.0022 38.229 36.4942 37.9479C36.9863 37.6668 37.0656 36.7454 37.2085 36.4956C37.6847 35.6679 38.2561 34.9339 38.7957 34.1531V34.1374ZM34.6372 46.6307C34.5895 44.4132 35.1927 42.2581 35.6689 40.1186C35.653 40.0093 35.5578 39.9937 35.4784 39.9624C35.3197 39.8844 32.542 39.1348 32.3833 39.1504C32.05 39.1816 31.3833 40.2748 31.1928 40.5871C30.1453 42.3518 29.4945 44.5849 29.4469 46.6307H34.6372ZM58.6363 46.6307C58.4934 45.0378 58.1601 43.4605 57.5411 41.977C56.922 40.4934 56.2554 39.369 55.8745 39.1972C55.4935 39.0254 53.2079 39.9781 52.4936 39.9624L52.3032 40.1186C53.0333 42.2112 53.3507 44.4288 53.446 46.6307H58.6363ZM43.0654 40.7276L37.7799 40.3997C37.0656 42.3986 36.7799 44.5225 36.6053 46.6307H43.0654V40.7276ZM45.0336 40.7276V46.6307H51.3826C51.4302 44.5225 50.9064 42.4142 50.335 40.3997L45.0336 40.7276ZM34.6372 48.7858H29.4469C29.5262 51.4875 30.5421 54.0954 32.1293 56.2505L35.6689 55.2979C35.0975 53.1741 34.6054 50.9877 34.6372 48.7858ZM43.0654 48.7858H36.6053C36.7799 50.8784 37.0022 53.0023 37.7482 54.9856L42.7797 54.6889L43.0654 54.5171V48.7858ZM51.4937 48.7858H45.0336V54.5171C45.6685 54.8607 46.6367 54.642 47.3986 54.6889C48.3668 54.7513 49.3509 54.9544 50.335 55.0168C50.6524 54.0174 50.9381 53.0179 51.1127 51.9872C51.2873 50.9565 51.3508 49.8634 51.4937 48.7858ZM58.6363 48.7858H53.446C53.4777 51.0658 52.8428 53.2678 52.4143 55.4853C53.3507 55.3448 54.9221 56.2974 55.7157 56.2818C56.5094 56.2662 56.303 55.7664 56.5094 55.4697C57.7792 53.5957 58.541 51.019 58.6521 48.7858H58.6363ZM43.0654 61.9506V56.9064L42.7797 56.7346L38.5735 57.0158C39.3671 59.0147 41.0179 61.1229 43.0813 61.9506H43.0654ZM45.0336 56.719V61.8881C45.0336 62.2005 45.7002 61.732 45.8272 61.6539C47.4145 60.6232 48.6684 58.7492 49.5255 57.1251C49.4461 57.0001 49.3668 56.9845 49.2398 56.9533C48.7636 56.8596 45.1765 56.5785 45.0336 56.719ZM36.4784 57.4218C36.2879 57.3125 34.4784 57.7653 34.1451 57.8747C33.8118 57.984 33.6372 57.9371 33.7324 58.1401C33.8594 58.4525 35.7006 59.7643 36.0974 60.0141C36.9863 60.5763 37.9386 61.0292 38.9227 61.3728C37.9228 60.1703 37.0656 58.8741 36.4784 57.4218ZM54.3666 57.9684C53.811 57.9684 51.9857 57.2188 51.6048 57.453C51.2238 57.6873 50.7477 59.1552 50.5413 59.4832C50.1445 60.1547 49.6207 60.7325 49.1763 61.3728C50.4937 60.8262 51.8746 60.1703 53.0174 59.3114C54.1602 58.4525 54.5253 58.1401 54.3666 57.9684Z" fill="white"/>
<path d="M37.9109 29.1096C37.2125 28.4069 37.6569 25.9551 37.641 25.0025C37.6252 24.0498 37.5299 24.409 37.514 24.1123C37.4982 23.5189 37.5934 22.7381 37.514 22.1915C37.3712 21.2389 35.8474 21.2701 35.6887 22.535C35.4189 24.7057 35.9427 27.4074 35.6887 29.5625C35.4348 31.6551 32.1016 32.0143 31.3555 29.8436C31.0064 28.8285 31.0857 24.5808 31.181 23.3159C31.4667 19.1619 35.5141 16.1322 39.3235 15.0859C43.1329 14.0396 41.6409 14.9922 43.4662 15.0859C44.9106 15.164 46.2915 14.6018 47.6883 14.7892C51.085 15.2733 55.5134 18.3186 56.5133 21.6605C56.9736 23.2065 56.9578 27.4074 56.799 29.094C56.6721 30.5776 55.5451 31.5614 54.0214 31.2491C52.4817 30.9368 52.3548 29.5781 52.2913 28.2976C52.196 26.486 52.5611 23.9561 52.2913 22.2852C52.1325 21.3169 50.7834 21.2701 50.5929 22.0822C50.4342 23.9249 50.7199 25.9082 50.5612 27.7354C50.4818 28.6255 50.4025 29.297 49.3549 29.3907C45.9423 29.703 42.0694 29.1409 38.6092 29.3907C38.3553 29.3907 38.0855 29.297 37.9109 29.1096Z" fill="white"/>
<path d="M55.7656 33.232L55.8291 32.9978C57.3687 32.5449 58.575 31.1082 58.7496 29.5309C58.9242 27.8756 58.9401 23.1906 58.5909 21.6602C58.4798 21.2073 58.2258 20.7544 58.1306 20.3015C59.1782 20.6763 60.8289 21.0355 61.7495 21.6133C62.5114 22.0974 63.1146 23.4092 63.9558 23.987C64.797 24.5648 66.5747 24.8147 67.416 25.5799C67.7493 25.8766 69.7016 29.0937 70.0349 29.6871C70.8603 31.1863 71.273 32.5605 70.9238 34.2627C70.6222 35.7463 68.3683 39.3537 67.4001 40.6655C65.5748 43.1642 62.2416 41.1184 63.3209 38.8072C64.0352 37.2767 66.0033 35.1685 66.5112 33.6537C67.0192 32.1389 65.9081 31.9827 64.9875 32.4981L62.3844 36.7458C61.6067 37.3704 61.0353 37.105 60.2893 36.6677C58.6703 35.6839 57.4322 34.1222 55.7656 33.232Z" fill="white"/>
<path d="M29.907 20.4107C29.7483 21.051 29.3991 21.6132 29.3356 22.2847C29.161 24.0182 29.0975 26.9072 29.2086 28.6407C29.3197 30.3741 30.2245 32.3574 32.3355 33.0602C30.78 34.1065 29.3356 35.6369 27.7642 36.6208C27.0659 37.058 26.5421 37.386 25.7643 36.7769L23.1771 32.6541C22.3676 31.8108 21.1296 32.5448 21.5581 33.6692C22.1454 35.2621 24.0184 37.1986 24.7802 38.7915C25.9072 41.1496 22.5263 43.086 20.7645 40.8216C19.828 39.6191 17.3996 35.5432 17.1456 34.1533C16.844 32.498 17.2567 31.1081 18.0662 29.6714C18.4471 28.9999 20.3518 25.8765 20.7486 25.5017C21.6534 24.6897 23.2247 24.5804 24.1453 23.9557C25.0659 23.331 25.5897 22.0036 26.4151 21.5508C26.796 21.3477 29.7642 20.2546 29.907 20.3951V20.4107Z" fill="white"/>
<path d="M68.5248 10.1197C77.8578 10.0103 77.0959 23.9091 68.0645 23.1127C59.6997 22.3787 60.287 10.2134 68.5248 10.1197Z" fill="white"/>
<path d="M18.2422 10.2132C24.0992 9.43239 28.3053 15.2886 24.9563 20.2391C21.1945 25.8142 12.179 22.7846 12.8456 15.804C13.0996 13.1804 15.5598 10.5724 18.2422 10.2132Z" fill="white"/>
<path d="M43.7325 -7.91987e-05C52.748 -0.312411 52.9703 12.9929 44.0341 13.0085C35.3519 13.0085 35.3677 0.296636 43.7325 -7.91987e-05Z" fill="white"/>
</g>
<defs>
<clipPath id="clip0_6172_2237">
<rect width="74.8861" height="87" fill="white" transform="translate(6.60742)"/>
</clipPath>
</defs>
</svg>
