<?xml version="1.0" encoding="UTF-8"?>
<svg id="Layer_1" xmlns="http://www.w3.org/2000/svg" version="1.1" viewBox="0 0 105.7 48">
  <!-- Generator: Adobe Illustrator 29.6.1, SVG Export Plug-In . SVG Version: 2.1.1 Build 9)  -->
  <defs>
    <style>
      .st0 {
        fill: #c1c1c1;
      }
    </style>
  </defs>
  <path class="st0" d="M31.8,7.6v7.5c-.2,1.8-1.5,2.9-3.3,3h-4.8c0,2.1.3,4-.9,5.8-2.6,3.8-8.5,2.5-9.4-1.9v-.8c-.1-.2-.1-.4-.1-.6.2-2.6,2.3-4.8,4.9-4.9h10.4c.4,0,.8-.4.8-.8v-4.9h-4.9c-.2,0-.7.4-.7.7v3.9h-2.4v-4c0-1.5,1.6-2.9,3.1-3h7.4ZM21.3,18.1h-3.2c-.7,0-1.6.7-2,1.3-1.6,2.4,1,5.4,3.6,4.1s1.6-1.4,1.6-2.3v-3.1Z"/>
  <path class="st0" d="M29.4,23.7c.9-1.4,2.8-1.9,4.4-1.4,3.6,1,4.3,6.6,2.1,9.2s-4.4,2.2-6.1.4l-.4-.5v5.8h-2.3v-14.8h0c0,0,2.3,0,2.3,0v1.4ZM31.6,24.4c-3.2.3-3.1,6.2,0,6.5s2.6-.7,3-2.1c.5-2.2-.5-4.6-3-4.4Z"/>
  <path class="st0" d="M61.2,18v8.6l4.1-4.2h3l-3.8,3.9,4.2,6.6h-2.8l-3.1-5s-.2.1-.2.2c-.5.5-.9,1.1-1.4,1.6v3.2h-2.4v-14.8h0c0,0,2.3,0,2.3,0Z"/>
  <path class="st0" d="M57.4,32.8h-2.2c0-.4,0-.9,0-1.3s0,0,0-.1c-.6,1-1.7,1.6-2.9,1.6-2,.1-4.1-1-4.2-3.2s1.8-3.4,4-3.4h3.1s0-.7,0-.7c0-.1-.1-.5-.2-.6-.6-1.3-2.6-1.2-3.7-.7s-1.1.6-1.6,1l-1.3-1.5c1.4-1.4,3.3-1.9,5.3-1.8s3.9,1.7,3.9,4.1v6.6ZM55,28.3h-3.2c-.6,0-1.3.5-1.4,1.1-.2,1.7,2,2,3.2,1.4s1.5-1.2,1.5-2v-.6Z"/>
  <path class="st0" d="M47.4,28.4h-7.3c0,.5.1.9.4,1.3,1,1.8,4.1,1.5,5.3,0l1.3,1.6c-.9.9-2.2,1.5-3.5,1.6-3,.3-5.3-1.1-5.8-4.2s1.7-7.3,5.9-6.6,4,3.5,3.7,6.1ZM45.2,26.6v-.5c0,0-.1-.4-.1-.5-.4-1.1-1.6-1.6-2.8-1.5s-2.1,1.2-2.2,2.5h5.1Z"/>
  <polygon class="st0" points="81.8 22.3 78.2 27.6 81.9 32.8 79 32.8 76.7 29.1 74.2 32.8 71.4 32.8 75 27.6 71.5 22.3 74.2 22.3 76.6 26 79.1 22.3 81.8 22.3"/>
  <polygon class="st0" points="84.5 22.3 87.2 29.7 89.9 22.3 92.5 22.3 88.2 32.8 86.3 32.8 82 22.3 84.5 22.3"/>
  <polygon class="st0" points="76.5 39 76.5 36 76.6 36 77.3 36 77.3 40.3 76.5 40.3 74.7 37.3 74.7 40.3 74.6 40.3 73.9 40.3 73.9 36 74.6 36 76.5 39"/>
  <path class="st0" d="M66.3,36s0,0,.1,0c.4,0,1.6,0,2,.1,1,.4.9,2,0,2.3l1.1,1.9h-.8l-1.1-1.8h-.6v1.8h0c0,0-.6,0-.6,0h0v-4.3ZM67,37.9h.9c0,0,.4-.2.4-.2.1-.2.1-.6,0-.8s-.3-.2-.4-.2h-.8v1.2Z"/>
  <path class="st0" d="M82.1,36c.9,0,2.5-.3,2.8.8s0,1.3-.7,1.6l1.1,1.9h-.8l-1.1-1.8h-.6v1.8h0c0,0-.7,0-.7,0v-4.4ZM83.7,36.7c-.3,0-.6,0-.8,0v1.2h.9c.2,0,.5-.2.5-.4,0-.4-.1-.7-.5-.8Z"/>
  <polygon class="st0" points="79.1 36.7 79.1 37.8 81.1 37.8 81.1 38.4 79.1 38.4 79.1 39.7 81.2 39.7 81.2 39.7 81.2 40.3 81.2 40.3 78.3 40.3 78.3 36 81.2 36 81.2 36 81.2 36.6 81.2 36.7 79.1 36.7"/>
  <path class="st0" d="M61.7,40.3l1.7-4.3c0-.1.4,0,.5,0l1.7,4.3h0c0,0-.7,0-.7,0l-.3-.9h-1.7s-.4.9-.4.9h-.8ZM64.3,38.8l-.6-1.7-.6,1.7h1.2Z"/>
  <path class="st0" d="M85.7,39.1l.7-.2c0,.6.6.9,1.2.8s.6-.8.1-1.1-1.5-.5-1.7-1.2c-.3-1.2,1-1.8,1.9-1.4s.6.5.6.6-.4.3-.5.4c0,0-.2-.2-.3-.3-.7-.6-1.5.3-.8.8s1.9.5,1.8,1.7c-.1,1.7-3,1.6-3.1,0Z"/>
  <path class="st0" d="M59.6,38.5v1.8h-.7v-4.3s0,0,.1,0c.5,0,1.8,0,2.2.2.8.4.8,1.8,0,2.2s-.5.2-.7.2h-.8ZM59.6,37.9h.9s.3,0,.3-.1c.4-.2.3-.8,0-1s-.3,0-.3,0h-.9v1.2Z"/>
  <polygon class="st0" points="73.2 36 73.2 36.7 71.9 36.7 71.9 40.3 71.8 40.3 71.2 40.3 71.2 36.7 69.8 36.7 69.8 36 73.2 36"/>
</svg>