<?xml version="1.0" encoding="UTF-8"?>
<svg id="Layer_1" xmlns="http://www.w3.org/2000/svg" version="1.1" viewBox="0 0 105.7 48">
  <!-- Generator: Adobe Illustrator 29.6.1, SVG Export Plug-In . SVG Version: 2.1.1 Build 9)  -->
  <defs>
    <style>
      .st0 {
        fill: #fff;
      }
    </style>
  </defs>
  <path class="st0" d="M94.7,39.6l-1.4-3c.3,0,.9,0,1.1,0s.8,1.9.9,1.9l.8-1.9h1.2l-1.4,2.9v2.1h-1.1v-2Z"/>
  <g>
    <path class="st0" d="M63.2,10.4c-.4.2-.7.5-1,.7-2,1.7-4.1,3.6-5.8,5.5s-2.3,2.5-2.8,3.4-.3.9.2,1,1.3-.4,1.9-.8c3-2.3,5.6-5.4,8.5-7.9s2.2-1.9,2.7-2.1,1.6,0,2.2.2.8.4.8.5c0,.1,0,.4-.1.5-.2.2-.9.6-1.2.8-2.6,2.1-4.8,4-6.9,6.7s-1.9,2-1,2.8,1.7,0,2.4-.5c2.1-1.7,3.8-4.1,5.8-6,.5-.2,2.7.1,2.9.6s0,.3,0,.4c-.6.6-1.2,1.1-1.8,1.7s-1.7,1.8-2.3,2.6-1.1,1.5-.2,1.5.1,0,.1,0c2.4-.2,5.6-3.7,7.3-5.2.7-.5,2.3-.1,3,.2s.4.3.3.7c-.2,0-2.6,2.2-2.9,2.6-1.6,1.5-3.5,3.3-4.9,5s-.4.5-.5.8c0,.1.6.2.7.2,2.4.5,6.3,1.1,8.3,2.2s.4.5.5.9c-.3.1-.4.8-.7,1-.5.3-2-.4-2.6-.6-2.6-.7-5.3-1.3-8-1.7-.2,0-.3.2-.4.3-.8,1-1.5,2.3-2.3,3.3-.1,0-.7,0-.9,0s-1.2-.2-1.4-.2-.4-.4-.4-.4c.5-.9,1-2,1.6-2.9s1-.7-.5-.8c-10.4-.7-20.3.4-30.5,2-1.3.2-4.2,1-5.4.8s-1.2-.6-1.8-.6c0-.2-.7-.5-.3-.7s1.5-.4,1.9-.5c11.6-2.8,24.8-3.6,36.7-2.8.4,0,1.6.3,1.8,0s.5-.7.6-.8,1-1.2.9-1.2c-.7.3-1.4.6-2.1.2s-.7-.8-1-.8-.9.4-1.2.5c-1.2.4-2.8.6-3.9,0s-1.1-.8-1.3-1.1,0,0,0,0c0-.2-.1-.8-.4-.7-1.3.7-2.8,1.8-4.4,1.6s-1.5-.4-1.9-.9-.3-.9-.5-.9c-2.3,1.2-6,3.9-8.1,1.2-.5.3-1.1.9-1.7.9-1.2.2-2.8-.9-3.4-1.9-.5-1.2-.9-1.8,0-2.9s4.3-3.9,6.2-4.7,4.3.6,5,2.7c0,.4,0,.8-.2,1.2l-2.9,2.8c-.2.3,0,.8.4.7s1-.4,1.3-.6c3.5-2.3,7.3-6.9,10.5-9.8s1.9-1.9,2.7-2,2.4.4,2.5,1,0,.3,0,.4ZM40.3,21.5c.4,0,.6,0,1-.2,1.7-.8,3.8-2.5,4.9-4s0-.3.1-.3.3,0,.1-.4-.8-.2-1.2,0c-1,.6-4.3,3.1-5,4s-.6.9,0,1Z"/>
    <path class="st0" d="M50.3,8.3c0,.3.2.8-.2.9-1,0-1.9,0-2.9,0-1.4,0-2.9-.3-4.3-.3s-.8,0-1.2.4c-.8.8-1.8,2.3-2.5,3.3-2.2,2.9-4.3,5.8-6.1,9s-.7,1.5-.8,1.6-.4.2-.4.2c-.8-.2-1.9,0-2.7,0s-.4-.4-.3-.7c2.5-4.5,5.7-8.7,8.8-12.8s.6-.6.5-.7c-.5-.1-1.1-.1-1.6,0-1.3,0-2.9.3-4.2.5s-1.6.4-1.9.4-1.3-1-1.6-1.3-.5-.5-.3-.7,1.2-.4,1.6-.4c5.1-1,11.5-1.2,16.6-.8s2.7.3,3.1.5.4.8.5,1.2Z"/>
    <path class="st0" d="M62.6,36.6l.9,3.1.9-3.1h1.5v5.1h-.9v-3.6l-1,3.6c-.2,0-.7,0-.8,0l-1-3.4v3.4c0,.2-.7.1-.9.1v-5.1h1.4Z"/>
    <path class="st0" d="M19.7,36.6c.1.1.5,2.6.6,3,.2,0,.1-.2.2-.3.1-.4.5-2.6.6-2.7s1,0,1.1.1l.7,2.9c.2-.4.5-3,.6-3.1s.8,0,1,0c-.2.6-1,4.9-1.2,5s-.9,0-1,0l-.7-3.2c-.2.4-.7,3.1-.8,3.2s-.9,0-1,0c-.2-.1-.9-4.3-1.1-4.9,0-.2,0-.1.1-.1s.8,0,.9,0Z"/>
    <path class="st0" d="M33.2,36.6c1.1.1,1.5,1.1,1.2,2.1s-.6.7-.6.8c0,.3,1,2.1.8,2.2-.2,0-.9,0-1.1,0s-.8-2-.9-2-.3,0-.4,0v2.1h-1.1v-5.1c.6,0,1.4,0,1.9,0ZM32.2,37.4v1.3c0,.2,1.2.3,1.3-.6s-.6-.7-1.3-.7Z"/>
    <path class="st0" d="M41.2,36.4c.8,0,1.6.1,1.9,1s.2,2.6,0,3.2c-.4,1.3-2.6,1.3-3.1.2s-.3-2.9,0-3.5.7-.8,1.3-.9ZM41,40.6c.2.2,1,.2,1.1-.3s0-2.2,0-2.5c0-.6-.9-.6-1.2-.2s-.2,2.8,0,3Z"/>
    <path class="st0" d="M15,36.4c.8,0,1.8.3,1.9,1.2s0,2.5,0,3c-.3,1.3-2.5,1.4-3.1.3s-.3-2.3-.2-2.9.5-1.4,1.4-1.5ZM14.8,40.6c.3.3,1,.2,1.1-.4s0-1.9,0-2.4c-.1-.8-1.2-.7-1.3,0s0,1.8,0,2.3.1.4.2.5Z"/>
    <path class="st0" d="M56.1,37.7c-.3,0-.6.2-.9.2s-.2-.3-.3-.5c-.4-.3-1-.2-.9.4s1.7.8,2.1,1.8c.7,2-2.2,2.8-3.1,1.1s-.2-.5-.1-.6.9-.2,1-.2,0,.4.2.6c.4.4,1.2.2,1.1-.4,0-.9-2.3-.8-2.2-2.5s3.1-1.7,3.1,0Z"/>
    <path class="st0" d="M83.3,38.2c-.2,0-1,0-1.1,0s.1-.6-.3-.8-.9,0-.9.6,0,1.7,0,2.2,1.1.7,1.2.2,0-.7.2-.7.8,0,.9,0c.3.2,0,1.1-.2,1.4-.6.9-2.4.8-2.9-.1s-.3-3,0-3.7c.7-1.5,3.5-.9,3.2.9Z"/>
    <polygon class="st0" points="29.1 36.6 29.1 37.5 27.4 37.5 27.4 38.6 28.7 38.6 28.7 39.5 27.4 39.5 27.4 40.7 29.2 40.7 29.2 41.6 26.4 41.6 26.4 36.6 29.1 36.6"/>
    <path class="st0" d="M68.8,39.6v2h-1v-5.1h1.9c.3,0,.9.3,1.1.6,1.1,1.5-.5,2.7-2,2.5ZM68.8,37.4v1.4c.6,0,1.3,0,1.3-.7s-.7-.7-1.3-.7Z"/>
    <path class="st0" d="M9.5,39.6v2h-1v-5.1h1.9c.3,0,1,.4,1.1.7.8,1.5-.6,2.6-2.1,2.4ZM9.5,38.8c.6,0,1.3,0,1.3-.8s-.7-.6-1.3-.6v1.4Z"/>
    <path class="st0" d="M46.3,37.5v1.1h1.2v.9h-1.2v2.2h-1.1v-5.1h2.6c.2,0,.2.9,0,.9h-1.5Z"/>
    <polygon class="st0" points="91.6 36.6 91.6 37.5 90.4 37.5 90.4 41.6 89.4 41.6 89.4 37.5 88.2 37.5 88.2 36.6 91.6 36.6"/>
    <polygon class="st0" points="73.8 36.6 73.8 40.7 75.3 40.7 75.3 41.6 72.7 41.6 72.7 36.6 73.8 36.6"/>
    <rect class="st0" x="58.2" y="36.6" width="1.1" height="5.1"/>
    <rect class="st0" x="85.4" y="36.6" width="1.1" height="5.1"/>
    <rect class="st0" x="77.1" y="36.6" width="1" height="5.1"/>
  </g>
</svg>