<svg width="171" height="72" viewBox="0 0 171 72" fill="none" xmlns="http://www.w3.org/2000/svg">
<path d="M37.1263 0.759766C37.1843 0.85403 37.3403 0.817764 37.4382 0.817764C54.0939 0.995416 68.5343 14.5477 70.8329 30.8227C73.6681 50.8864 58.8143 69.8298 38.4605 70.9719C38.0653 70.9936 37.6158 70.9103 37.2424 71.0299H34.8024L32.3914 70.8595C16.3629 69.2497 3.22398 56.4407 1.21181 40.4558L0.921748 36.9716C0.939876 36.2537 0.89637 35.5323 0.921748 34.8144C1.55622 16.2444 16.3992 1.37973 34.9764 0.759766H37.1336H37.1263ZM58.2161 9.75109C43.8373 -2.41983 22.3523 -0.6977 10.0799 13.5289C-1.3152 26.7367 -0.920007 46.6264 11.0443 59.3375C25.5972 74.7968 50.4393 73.4989 63.3136 56.6619C74.3678 42.2033 72.0584 21.4652 58.2161 9.75109Z" fill="#3B5C7F"/>
<path d="M84.1785 10.0117V10.2945C83.8848 10.2764 83.631 10.4867 83.6092 10.7767C83.7289 13.0789 83.4533 15.537 83.6092 17.8175C83.747 19.8587 85.3604 20.301 87.1623 20.2865C88.9243 20.272 90.3999 19.7644 90.5377 17.8175C90.7008 15.5407 90.4108 13.0717 90.5377 10.7767C90.5159 10.4685 90.2657 10.3126 89.9757 10.2909L89.9684 10.0117H93.5432V10.2945C93.2967 10.2764 93.0647 10.4359 92.9776 10.6679C92.8798 13.0789 93.1045 15.5878 92.9776 17.9879C92.8145 21.0297 91.154 22.0884 88.239 22.2733C85.3241 22.4582 81.249 22.2588 80.9989 18.4447C80.8393 15.9721 81.1294 13.3327 80.9989 10.842C80.9082 10.1894 80.4152 10.5193 80.3789 10.0153H84.1821L84.1785 10.0117Z" fill="#3B5C7F"/>
<path d="M89.4572 31.751L89.4499 32.0301C89.0003 32.07 88.9713 32.4362 89.2287 32.7444L94.6779 38.1102V32.4072C94.6779 32.1063 93.9855 32.0882 94.1088 31.7546H97.4007L97.3934 32.0338C96.9402 32.0918 96.8605 32.3311 96.8315 32.748C96.6393 35.3693 96.9801 38.2226 96.8315 40.8656C96.8423 41.0033 96.8786 41.1302 96.9693 41.239C97.1469 41.4457 97.4804 41.3659 97.3971 41.6886H93.8767L93.8876 41.471C94.2936 41.3333 94.3553 41.1629 94.1051 40.8076L88.3731 35.159V41.0324C88.3731 41.3296 89.0729 41.3731 88.9424 41.6849H85.6504C85.567 41.3623 85.9005 41.442 86.0781 41.2354C86.1688 41.1302 86.2051 40.9997 86.216 40.8619V32.6284C86.2812 32.0773 85.6105 32.1788 85.6467 31.751H89.4499H89.4572Z" fill="#3B5C7F"/>
<path d="M135.999 22.1029C135.912 21.7512 136.314 21.8129 136.448 21.6135C136.506 21.5228 136.557 21.2799 136.568 21.1639C136.818 18.6405 136.379 15.722 136.568 13.1587C136.568 13.0028 136.531 12.7853 136.444 12.6584C136.289 12.4372 135.922 12.5097 135.999 12.1689H143.351C144.453 12.2378 145.69 12.4554 146.295 13.4778C146.973 14.6307 146.799 16.5087 145.61 17.2664C145.095 17.5927 144.504 17.7124 143.946 17.9299C143.931 18.0061 144.435 18.6985 144.522 18.8254C144.961 19.4526 146.165 21.2799 146.705 21.6352C146.959 21.802 147.361 21.7585 147.292 22.0993H143.094C142.992 21.744 143.424 21.8455 143.518 21.6461C143.58 21.5156 143.558 21.3379 143.503 21.2074L141.306 18.0133H138.895V21.2763C138.895 21.2944 139.004 21.6026 139.026 21.6316C139.149 21.7839 139.555 21.7694 139.465 22.0993H136.002L135.999 22.1029ZM142.782 13.9273H138.895V16.1679C138.946 16.2477 139.008 16.2477 139.091 16.2549C139.921 16.3528 141.517 16.2984 142.387 16.2549C142.844 16.2332 143.409 16.1933 143.815 15.9794C144.464 15.6349 144.435 14.424 143.779 14.1231C143.569 14.0252 143.025 13.9418 142.786 13.9237L142.782 13.9273Z" fill="#3B5C7F"/>
<path d="M138.554 61.2666L138.562 61.0454C138.87 61.0164 139.109 60.7554 139.124 60.4436C138.982 57.7933 139.312 54.9509 139.124 52.326C139.113 52.181 139.095 51.949 139.011 51.8293C138.866 51.6227 138.453 51.7351 138.554 51.3906H146.135C148.198 51.5066 149.417 52.471 149.228 54.6572C149.087 56.3141 147.93 56.6513 146.585 57.0646C146.422 57.1153 146.513 57.1879 146.567 57.3147C147.35 58.2211 147.952 59.3595 148.717 60.2732C149.014 60.6249 149.355 60.991 149.844 61.049L149.852 61.2702H145.708L145.718 61.0527C145.929 61.0092 146.175 60.8787 146.154 60.6321C145.581 59.4393 144.627 58.4278 143.953 57.2821C143.924 57.2495 143.84 57.1842 143.808 57.1842H141.538L141.455 57.2676V60.3892C141.455 60.4182 141.549 60.7373 141.575 60.7808C141.716 61.0345 142.115 60.9294 142.024 61.2702H138.562L138.554 61.2666ZM141.535 53.149L141.451 53.2324V55.3316L141.535 55.415H145.679C145.744 55.415 146.212 55.2772 146.295 55.2373C147.071 54.882 147.042 53.5732 146.215 53.2868C146.117 53.2505 145.697 53.1418 145.621 53.1418H141.535V53.149Z" fill="#3B5C7F"/>
<path d="M151.552 12.1689C151.661 12.4662 151.28 12.4336 151.222 12.604C151.171 12.7526 151.215 12.9883 151.327 13.1043C153.028 14.7032 154.583 16.4906 156.294 18.0749C156.378 18.1511 156.606 18.3867 156.66 18.4266C156.726 18.4701 156.744 18.4846 156.834 18.4701V12.9376C156.834 12.8904 156.689 12.6149 156.639 12.5677C156.476 12.4191 156.196 12.5097 156.269 12.1726H159.503C159.586 12.5279 159.158 12.4409 159.035 12.6983C158.97 12.8288 158.944 13.1225 158.934 13.2784C158.76 15.8162 159.068 18.5535 158.934 21.1131C158.97 21.3415 159.003 21.5554 159.187 21.7113C159.347 21.8419 159.561 21.8092 159.499 22.1065H155.979C155.892 21.715 156.32 21.9071 156.363 21.6098C156.396 21.3923 156.327 21.3307 156.204 21.1711C154.347 19.478 152.687 17.5601 150.841 15.8597C150.747 15.7727 150.591 15.6205 150.472 15.5769V21.3379C150.472 21.7005 151.124 21.7585 151.041 22.1029H147.749C147.676 21.7222 148.14 21.8564 148.275 21.5192L148.293 12.7889C148.18 12.4227 147.665 12.5315 147.749 12.1689H151.552Z" fill="#3B5C7F"/>
<path d="M98.2563 12.1694L98.2889 12.3398C97.8719 12.5646 97.7778 12.7567 98.0895 13.1591L103.535 18.5249V12.8763C103.535 12.8256 103.415 12.6371 103.368 12.5899C103.187 12.4086 102.886 12.4812 102.966 12.1694H106.258C106.363 12.5029 105.942 12.4304 105.801 12.6081C105.732 12.6914 105.689 12.88 105.689 12.9887L105.736 21.5196C105.87 21.8532 106.334 21.719 106.261 22.1033H102.687C102.621 21.6538 103.187 21.9511 103.075 21.4072L100.047 18.2965L97.2085 15.5737L97.1795 21.1063C97.2158 21.2368 97.2122 21.4145 97.2665 21.5305C97.3934 21.7879 97.8248 21.7589 97.7451 22.0997H94.5365L94.4784 21.9837C94.5364 21.7408 95.0114 21.8097 95.0767 21.1607C94.9136 18.5721 95.2942 15.7115 95.0767 13.1555C95.0658 13.0214 95.0259 12.7603 94.957 12.6516C94.8338 12.4667 94.4676 12.5029 94.4531 12.1621H98.2563V12.1694Z" fill="#3B5C7F"/>
<path d="M108.133 51.3903L108.125 51.6115C107.745 51.6478 107.618 51.9124 107.824 52.2387L113.357 57.7459V51.9849C113.357 51.8689 112.954 51.5789 112.799 51.6079L112.791 51.3867H116.083C116.152 51.8 115.663 51.5426 115.543 52.0103L115.518 60.4397C115.529 60.65 115.63 60.8312 115.808 60.9473C115.985 61.0633 116.149 60.9473 116.087 61.2627H112.567L112.577 61.0451C112.936 60.9871 113.045 60.65 112.795 60.3853L107.375 55.0195L107.063 54.7947V60.6681C107.063 60.9871 107.774 60.9183 107.632 61.2627H104.34L104.347 61.0415C104.656 61.0125 104.895 60.7515 104.909 60.4397C104.768 57.7894 105.094 54.9506 104.909 52.3221C104.891 52.0502 104.862 51.8617 104.619 51.7058C104.445 51.5934 104.279 51.7058 104.34 51.3903H108.143H108.133Z" fill="#3B5C7F"/>
<path d="M98.4271 41.6848L98.4344 41.4672C98.7317 41.3839 98.9927 41.2715 98.9927 40.9198L98.9673 32.3744C98.8549 32.001 98.3546 32.1424 98.4235 31.7544C100.494 31.8306 102.636 31.6493 104.699 31.7544C107.353 31.885 109.318 32.998 109.655 35.8223C109.993 38.6466 108.767 41.2352 105.66 41.634L98.4235 41.692L98.4271 41.6848ZM104.699 33.5672C103.648 33.4657 102.448 33.6433 101.378 33.5672V39.9228C103.427 39.8249 106.407 40.4992 107.139 37.936C107.705 35.9637 106.947 33.7811 104.699 33.5636V33.5672Z" fill="#3B5C7F"/>
<path d="M83.7831 49.1787L83.7759 49.4579C83.2357 49.5739 83.1414 49.7769 83.2538 50.3026C84.3596 52.739 85.3929 55.2152 86.5385 57.6371C86.5712 57.7024 86.5313 57.7749 86.6473 57.7495L89.9538 50.4404C90.0335 50.125 90.146 49.7842 89.8197 49.5848C89.584 49.4434 89.3846 49.5703 89.4607 49.1787H93.5177L93.6011 49.4615C93.0029 49.4833 92.818 50.067 92.5895 50.5238C90.9907 53.7215 89.6348 57.0606 88.1121 60.291C88.0831 60.5339 88.0395 60.7478 88.2716 60.9001C88.4528 61.0197 88.6703 60.9544 88.6087 61.2699H84.4647C84.3922 60.9037 84.6896 61.0415 84.86 60.9001C84.9724 60.8094 85.0557 60.5411 85.0304 60.3961C83.4097 56.7996 81.7891 53.1958 80.0344 49.6682L79.4688 49.4651V49.1823H83.7831V49.1787Z" fill="#3B5C7F"/>
<path d="M134.033 13.906C135.121 15.1822 135.429 17.0059 134.994 18.6265C133.533 24.0684 123.2 23.5028 123.512 16.85C123.755 11.6618 131.031 10.3784 134.033 13.906ZM128.95 13.8335C127.369 13.9749 126.075 15.117 125.952 16.7376C125.575 21.7191 133.09 21.6103 132.768 16.85C132.63 14.8269 130.893 13.6559 128.95 13.8335Z" fill="#3B5C7F"/>
<path d="M103.249 50.8258V53.7189C102.937 53.8494 102.893 53.1497 102.596 53.1497H96.3239V55.3649H100.21C100.446 55.3649 100.704 55.0459 100.7 54.803L100.979 54.7957V57.6345C100.609 57.7324 100.667 57.0653 100.269 57.0653H96.3239V59.5053H102.821C103.22 59.5053 103.162 58.8418 103.532 58.9361V61.8293C103.158 61.909 103.274 61.5102 103.042 61.3797C103.002 61.3579 102.679 61.26 102.65 61.26H93.3691L93.3764 61.0389C93.6447 60.9954 93.9238 60.8612 93.9383 60.5494L93.9202 51.9895C93.8368 51.7648 93.6084 51.6379 93.3764 51.598L93.3691 51.3768H102.31C102.379 51.3768 102.621 51.2826 102.737 51.2934L103.031 50.8185L103.249 50.8076V50.8258Z" fill="#3B5C7F"/>
<path d="M169.651 54.505L169.484 54.4868C169.245 53.6348 168.012 53.2723 167.229 53.1091C166.246 52.9061 163.98 52.7611 163.367 53.7545C162.7 54.8349 164.281 54.9944 164.977 55.0778C166.888 55.3062 170.133 55.0307 170.854 57.3764C171.405 59.171 170.332 60.5487 168.693 61.1216C166.453 61.9047 163.726 61.4406 161.602 60.4944C161.334 60.4291 160.986 60.9983 161.058 60.411L161.997 58.1994C162.273 58.261 162.178 58.4278 162.255 58.5946C162.563 59.2834 165.173 59.7148 165.887 59.7293C166.602 59.7439 168.552 59.5771 168.693 58.678C168.824 57.8477 168.117 57.6954 167.468 57.583C165.499 57.2422 161.645 57.7462 161.228 55.0234C160.714 51.6734 164.375 50.8649 166.95 51.2347C168.084 51.3979 169.11 51.92 170.158 52.3441C170.361 52.4167 170.782 51.9526 170.771 52.355L169.654 54.5013L169.651 54.505Z" fill="#3B5C7F"/>
<path d="M159.354 51.3908C159.594 51.3618 159.753 51.2676 159.88 51.0645C159.974 50.9123 159.869 50.7564 160.174 50.8289V53.7184L159.956 53.7112C159.971 53.5154 159.702 53.1528 159.525 53.1528H153.252V55.3681H157.197C157.248 55.3681 157.436 55.2484 157.483 55.2013C157.665 55.02 157.592 54.7191 157.904 54.7988V57.6376C157.574 57.7428 157.636 57.3331 157.494 57.1989C157.48 57.1844 157.211 57.0721 157.197 57.0721H153.252V59.512H159.807C160.105 59.512 160.148 58.8123 160.46 58.9428V61.836C160.137 61.923 160.224 61.6003 160.036 61.4372C159.981 61.3901 159.688 61.2704 159.637 61.2704H150.301C150.301 60.9586 150.624 61.0239 150.783 60.8136C150.86 60.7121 150.914 60.5199 150.928 60.3894C150.783 57.8008 151.121 55.0055 150.928 52.4386C150.91 52.1739 150.889 51.902 150.664 51.7389C150.493 51.6156 150.338 51.6773 150.305 51.3908H159.358H159.354Z" fill="#3B5C7F"/>
<path d="M130.041 51.3906L130.034 51.6118C129.766 51.6553 129.487 51.7894 129.472 52.1012C129.574 53.8959 129.342 55.8319 129.472 57.612C129.574 59.0043 130.444 59.5408 131.771 59.6278C133.391 59.733 134.845 59.4176 134.983 57.554C135.11 55.8138 134.882 53.9176 134.983 52.1592C134.983 52.007 134.878 51.8511 134.758 51.7604C134.559 51.6082 134.349 51.706 134.414 51.3942H137.706L137.699 51.6118C137.43 51.6915 137.162 51.7858 137.144 52.1085C137.039 54.0409 137.264 56.0893 137.144 58.0072C137.057 59.3704 136.615 60.382 135.338 60.9693C133.511 61.8104 128.816 61.8394 127.616 59.9251C126.543 58.2175 127.362 54.0808 127.094 52.0468C127.058 51.7894 126.768 51.6517 126.536 51.6118L126.528 51.3906H130.049H130.041Z" fill="#3B5C7F"/>
<path d="M114.865 19.2862C116.058 20.5189 117.882 20.6748 119.473 20.189C119.887 20.0621 121.253 19.4856 121.348 19.0542C121.399 18.8222 121.246 18.6191 121.551 18.5793L122.99 20.7111C122.852 20.9649 122.722 20.7509 122.519 20.7364C122.2 20.7111 120.92 21.5304 120.485 21.7153C116.312 23.4919 110.714 21.2875 111.675 16.0849C112.498 11.6146 117.885 11.2013 121.301 12.9379C121.594 13.0866 122.221 13.5688 122.515 13.5361C122.653 13.5216 122.87 13.3005 122.979 13.5361C123.034 13.6558 121.674 15.4359 121.5 15.6933C121.282 15.5483 121.406 15.3271 121.293 15.106C120.876 14.2794 118.382 13.7682 117.523 13.8189C114.691 13.9857 112.672 17.0239 114.865 19.2899V19.2862Z" fill="#3B5C7F"/>
<path d="M122.265 31.7507L122.272 31.9936C121.866 32.1785 121.75 32.3924 121.826 32.842C123.164 35.369 124.393 38.1135 125.843 40.5752C125.945 40.7456 126.133 41.1082 126.267 41.2278C126.492 41.4272 126.894 41.3402 126.807 41.681H122.776C122.703 41.362 122.939 41.4562 123.138 41.333C123.755 40.9487 122.776 39.6471 122.551 39.212H118.008C117.954 39.2374 117.522 40.1293 117.472 40.2634C117.356 40.5607 117.153 40.9958 117.403 41.2677C117.573 41.4526 117.932 41.3475 117.838 41.681H114.205L114.212 41.4599C114.622 41.4236 114.814 41.1988 115.01 40.8689C116.42 38.4688 117.425 35.5901 118.813 33.1502C118.893 32.929 118.973 32.5809 118.904 32.3562C118.828 32.0987 118.327 32.1241 118.461 31.7471H122.265V31.7507ZM118.69 37.8235H121.811L120.249 34.6439L118.69 37.8235Z" fill="#3B5C7F"/>
<path d="M116.362 50.8256L116.641 50.8329C116.692 51.2498 116.913 51.3549 117.301 51.3948C119.912 51.2788 122.656 51.5507 125.248 51.3948C125.738 51.3658 126.032 51.3622 126.191 50.8329L126.409 50.822V53.7152C126.093 53.7949 126.166 53.494 125.988 53.3127C125.941 53.2656 125.752 53.146 125.702 53.146H122.609L122.551 53.4541C122.693 55.6403 122.37 58.0513 122.555 60.2121C122.573 60.4333 122.609 60.7523 122.783 60.8901C122.957 61.0279 123.193 60.9554 123.12 61.2599H119.658L119.665 61.0388C119.854 61.046 120.223 60.785 120.223 60.6073V53.1423H117.073C116.852 53.1423 116.649 53.4976 116.641 53.7043L116.362 53.7115V50.8184V50.8256Z" fill="#3B5C7F"/>
<path d="M84.4068 29.5938C84.4467 30.0216 83.776 29.92 83.8376 30.4711L83.8847 41.0468C83.9354 41.123 83.9971 41.2027 84.066 41.2607C84.298 41.4492 84.4793 41.3078 84.4068 41.6849H80.6616L80.6689 41.4057C80.9807 41.3767 81.2127 41.1193 81.2309 40.8039C81.0532 37.4684 81.4665 33.8936 81.2309 30.5835C81.2019 30.1738 81.0894 29.9635 80.6689 29.8693L80.6616 29.5938H84.4068Z" fill="#3B5C7F"/>
<path d="M110.797 12.1689C110.808 12.4989 110.424 12.4445 110.293 12.6584C110.214 12.7889 110.181 13.1116 110.17 13.2747C109.996 15.8162 110.304 18.5499 110.17 21.1095C110.214 21.5373 110.355 21.7476 110.772 21.8745L110.739 22.1029H107.277C107.237 21.6678 107.915 21.7694 107.846 21.2255V12.9919C107.832 12.8759 107.806 12.7454 107.73 12.6511C107.571 12.4481 107.183 12.4844 107.273 12.1689H110.794H110.797Z" fill="#3B5C7F"/>
<path d="M113.948 31.7507C114.184 32.077 113.716 32.0335 113.578 32.1894C113.48 32.2982 113.426 32.5411 113.411 32.6861C113.553 35.2747 113.219 38.07 113.411 40.6333C113.422 40.7964 113.448 41.0574 113.535 41.1916C113.676 41.4127 114.133 41.3692 113.981 41.681H110.518C110.475 41.2677 110.942 41.4599 111.058 41.0031L111.084 32.6281C111.044 32.2619 110.899 32.0734 110.522 32.0262L110.515 31.7471H113.948V31.7507Z" fill="#3B5C7F"/>
<path d="M59.8619 57.5541C49.0941 69.783 30.5858 71.9294 17.2438 62.5066C2.14344 51.8403 -1.0144 30.5801 10.6236 16.0599C22.1673 1.65561 43.3912 -0.186161 57.219 12.1407C70.5066 23.9853 71.6196 44.2013 59.8619 57.5541ZM34.2331 10.0125L34.1206 10.0415C34.7624 12.1262 33.5225 14.1021 33.0693 16.0852C32.9678 16.5276 32.888 16.9626 32.9279 17.4194C33.0186 18.4237 33.9467 19.225 34.9147 19.3228C34.7479 17.3941 36.8869 16.4551 37.2169 14.6713C37.6302 12.4162 35.7341 11.3358 34.2766 10.1249C34.2403 10.0959 34.2294 10.056 34.2331 10.0125ZM30.5205 14.2942C30.1217 13.9534 29.6214 13.6489 29.1464 13.4277C28.7404 13.2392 28.2001 13.0072 27.7651 12.9927C28.2038 14.8562 28.4503 16.8067 28.9833 18.6412C29.1863 19.3373 29.3023 19.8159 29.9585 20.2184C30.5314 20.57 31.4958 20.7549 32.0759 20.3706C31.9381 20.1313 31.7169 19.9718 31.6118 19.7035C31.2782 18.8588 31.6227 18.043 31.6807 17.1947C31.7677 15.904 31.503 15.1354 30.5241 14.2979L30.5205 14.2942ZM39.5336 17.4158C39.8454 17.1548 40.2007 16.93 40.4726 16.6254C41.3608 15.632 41.1832 14.5299 40.3349 13.5909C40.2515 13.5002 39.9106 13.1776 39.8236 13.1377C39.6242 13.0507 39.8672 13.4314 39.8817 13.4785C40.2442 14.693 38.8339 15.458 38.0834 16.1469C37.1553 16.9953 36.3613 17.898 37.7825 18.8153C38.3807 18.3657 38.9644 17.898 39.5373 17.4158H39.5336ZM44.051 14.5553C43.9459 14.5299 43.9423 14.5915 43.8915 14.6495C43.5507 15.0483 43.2208 15.5994 42.8401 15.9547C41.8431 16.8937 40.0521 17.4376 39.6968 18.9132C39.4756 19.8304 39.8853 20.6824 40.3965 21.422C42.6842 20.0552 44.1888 17.2309 44.051 14.5589V14.5553ZM44.3918 18.7536C44.4861 18.7754 44.5078 18.7246 44.5622 18.6666C44.7471 18.4781 44.8885 18.2606 45.1024 18.072C46.1973 17.1185 47.9629 16.5348 47.7962 14.722C47.7091 14.7003 47.7527 14.7982 47.6983 14.8344C47.0602 15.2804 46.2263 15.6574 45.5629 16.0925C44.4788 16.8067 43.8552 17.3216 44.3918 18.75V18.7536ZM58.2413 14.8961L56.7658 15.3783C57.0196 15.5595 57.0667 15.7698 57.19 16.0309L58.187 15.1571L58.2413 14.8997V14.8961ZM25.8109 16.7886C25.3976 16.3789 24.6653 16.0562 24.1287 15.8315C23.8713 15.7263 21.8881 14.9795 21.8011 15.0665C21.7685 15.2949 22.0658 15.4036 22.1963 15.5487C23.8314 17.4013 23.226 19.9247 24.6653 21.5381C25.6515 22.6438 27.0763 22.5532 28.4395 22.6728C27.9826 22.1943 27.5512 21.7665 27.2648 21.1537C26.5796 19.6963 27.04 18.0104 25.8109 16.7922V16.7886ZM56.4033 16.7451C56.5954 16.5058 56.8528 16.2339 56.6207 15.9148C56.2763 15.4363 55.4932 16.1976 55.0617 16.2556L55.098 16.3717C55.4606 16.5711 55.8086 16.8865 55.8014 17.3324C55.9971 17.1657 56.2437 16.9409 56.4033 16.7451ZM54.6847 18.4926C55.2575 18.0503 55.6273 17.2925 54.8877 16.7995C54.42 16.4877 54.1191 16.7741 53.7022 17.0243C54.3439 17.3542 54.4853 17.9125 54.5542 18.5832C54.6956 18.6267 54.652 18.5216 54.6883 18.4926H54.6847ZM16.4389 17.0496C15.9785 17.0061 15.4601 17.0823 14.9924 17.0496L16.0873 17.6261C19.3611 19.7688 19.1544 25.0476 23.8712 25.3376C24.6979 25.3884 25.5354 25.305 26.3439 25.1382C25.7565 24.9098 25.1474 24.7104 24.6036 24.3841C21.511 22.5242 20.311 17.4231 16.4426 17.0496H16.4389ZM53.5318 19.5476C53.6442 19.6491 53.9016 19.1525 53.9306 19.0691C54.2605 18.1482 53.9161 17.5753 53.0061 17.3433L52.397 17.7022C53.0242 18.1627 53.4484 18.7536 53.5318 19.5476ZM48.0826 17.4485L44.961 19.805C46.3097 21.4003 47.488 19.834 47.894 18.4273C47.9339 18.2859 48.1297 17.5137 48.079 17.4521L48.0826 17.4485ZM51.8278 21.0812C51.9257 21.1066 51.9402 21.0413 51.9982 20.9978C52.1903 20.8492 52.6037 20.425 52.7632 20.2329C53.104 19.8268 53.1438 19.8087 52.9879 19.2685C52.8465 18.7863 52.4151 18.0503 51.8459 18.0322C51.5523 18.0249 50.4319 18.8407 50.0657 18.953C51.1498 19.0799 52.1613 19.8848 51.8278 21.0812ZM50.1238 22.4444C50.1637 22.4843 50.4392 22.2595 50.49 22.216C51.1063 21.7048 51.7154 20.8673 51.1426 20.0878C50.8018 19.6201 49.6851 19.312 49.1413 19.4497C48.873 19.5186 48.3871 19.9247 48.079 20.0044L48.108 20.1168C49.3806 20.2474 50.4936 21.0196 50.1238 22.4444ZM36.5606 19.8884C35.3569 20.106 34.1751 20.6643 33.0874 21.2081C29.0776 23.2203 24.9154 26.5739 22.7256 30.5403C19.3937 36.5659 19.488 46.5252 20.6881 53.16C21.1231 55.571 21.7612 58.0545 22.8561 60.2443C23.8423 58.8666 24.8574 57.4852 25.5934 55.9516C24.3136 52.7865 23.3746 49.4946 22.7909 46.1228C22.2072 42.7511 22.3558 39.5062 23.0266 36.178C24.31 29.8224 28.066 24.7104 33.6856 21.5344L33.769 21.422L36.5642 19.8884H36.5606ZM49.192 23.213C49.928 22.3357 49.7504 21.2625 48.67 20.8057C48.3364 20.6643 47.6076 20.4939 47.2632 20.5156C47.0964 20.5265 46.85 20.8093 46.6107 20.8855C46.0777 21.0522 45.349 21.0667 44.7943 21.0812L45.3309 21.8208C46.2771 22.6765 47.9303 24.7249 49.1956 23.2167L49.192 23.213ZM43.8226 20.7984C43.7392 20.7187 43.7211 20.8021 43.7103 20.8818C43.6667 21.2335 43.7573 21.8208 43.8407 22.1725C44.3809 24.453 46.9442 25.8597 48.9346 26.7298C49.6343 27.038 50.3776 27.3027 51.0918 27.5528C49.2319 24.8445 45.7587 23.949 43.9858 21.1791C43.9169 21.0704 43.8552 20.9253 43.8262 20.7984H43.8226ZM18.7158 25.189C18.1393 24.7031 17.3308 24.1883 16.6057 23.978C14.9815 23.5067 13.35 24.0469 12.0412 25.0258C12.4073 25.0367 12.7735 24.9678 13.147 24.9968C15.5471 25.1853 16.2649 27.9444 18.2445 28.8109C19.5025 29.362 21.1231 29.2713 22.3667 28.713C22.8453 28.4991 23.2876 28.1909 23.6175 27.7776C22.78 27.7595 21.9316 27.6942 21.1775 27.2954C20.1986 26.7806 19.5424 25.8814 18.7158 25.1853V25.189ZM49.2718 38.3932C47.2088 36.9103 45.0408 35.4239 42.793 34.2274C41.9482 33.7779 40.8751 33.234 39.9614 32.973C38.736 32.6249 37.7571 32.944 36.5244 32.8896C35.183 32.8316 33.4028 32.6141 32.6849 31.3379C31.5683 29.3583 32.2571 26.7407 33.0656 24.772C33.1599 24.54 33.3629 24.2173 33.4318 24.0034C33.4427 23.9744 33.4463 23.9091 33.4028 23.92C32.3188 25.2433 31.3762 26.8567 30.9048 28.5172C28.5156 36.972 39.8164 39.5715 45.7224 41.0579C45.871 41.0579 45.8456 41.0579 45.7369 40.9854C43.964 39.8651 42.1295 38.8391 40.4182 37.6173C39.8273 37.1967 39.1239 36.6928 38.5946 36.207C38.4387 36.0619 37.5686 35.2136 37.6882 35.0468C39.0804 34.6009 40.4327 34.6009 41.8285 35.0142C44.3737 35.7683 46.7375 37.5267 49.2645 38.3932H49.2718ZM57.4691 36.613C55.9464 34.7422 54.75 32.4835 53.2707 30.5656C51.7988 28.6586 49.7938 27.3317 47.343 27.0996L49.0978 28.209C52.2846 30.6236 53.695 34.9054 57.1102 37.0553C57.3749 37.2221 58.0637 37.6318 58.3284 37.7116C58.4081 37.7369 58.4299 37.7043 58.4117 37.6282C58.0999 37.2946 57.7592 36.9683 57.4691 36.613ZM45.1568 27.4948C44.8015 27.4658 44.41 27.5166 44.051 27.4948C44.0655 27.5818 44.1562 27.6036 44.2214 27.6362C44.5876 27.8247 45.077 27.9806 45.4686 28.122L44.5079 29.6157L45.7659 31.2835C45.8819 31.3633 45.9472 31.3705 46.0669 31.3016C46.1104 31.2762 46.7955 30.6418 46.8318 30.5874C47.0928 30.2067 46.9297 30.0508 46.5889 29.8659C46.3134 29.7136 46.1937 29.739 45.9399 29.4381C45.9254 29.42 45.7695 29.3946 45.9254 29.3402C46.0632 29.2894 46.4221 29.2967 46.5744 29.3184C47.2922 29.4163 47.6585 30.1668 48.0536 30.6744C48.3763 29.9674 48.4415 29.449 47.9086 28.8326C47.2596 28.0785 46.143 27.5818 45.1568 27.4984V27.4948ZM46.0705 32.8533C44.4209 31.4466 42.4232 30.4859 40.3276 29.9384C38.9028 29.565 36.1147 28.9486 37.9601 31.356C41.1361 31.9071 43.6341 33.4769 46.2807 35.1664C47.314 35.8263 48.3364 36.5151 49.3551 37.2004C49.3551 36.9321 49.1376 36.555 48.9962 36.3085C48.3037 35.083 47.1364 33.7634 46.0669 32.8533H46.0705ZM21.2355 31.24C20.3473 31.2001 19.4228 31.2907 18.5381 31.24C16.6746 31.1421 13.4733 29.7861 11.9578 31.24C11.4321 31.7439 10.5909 33.5241 10.3118 34.2492C10.2683 34.3579 10.2175 34.4667 10.2248 34.59C10.7178 34.4051 11.2073 34.1658 11.7112 34.0063C13.9591 33.2957 16.341 33.825 18.6433 33.5603C20.1007 33.3936 21.0325 32.77 21.2319 31.24H21.2355ZM28.5011 31.0152C28.4249 30.9391 27.9899 31.3342 27.9029 31.4104C25.307 33.7126 24.397 37.088 23.9691 40.4162C23.8386 41.435 23.6828 42.6278 23.6755 43.6429C23.6755 43.73 23.7552 44.9264 23.9619 44.6943C24.3643 43.1064 24.8357 41.5003 25.4665 39.9848C25.753 39.2959 26.0756 38.5744 26.5034 37.9581C26.5396 37.9073 26.4925 37.853 26.6303 37.8856C27.4569 40.0645 28.5047 42.3704 29.8752 44.2629C31.2964 46.2243 33.2324 48.5628 35.0017 50.2052C35.0452 50.245 35.3389 50.5206 35.3715 50.4843C34.2222 48.9145 33.062 47.3555 32.1266 45.6406C30.3247 42.3341 29.4111 39.2017 28.9072 35.4637L28.5011 31.0152ZM19.0783 35.6704C18.2771 35.935 17.523 36.3447 16.7254 36.6384C14.7603 37.3563 12.7481 37.4687 12.081 39.8289C11.6786 41.2501 11.762 42.7511 12.0412 44.1868L12.4254 42.8997C13.8612 39.7382 19.1835 39.731 19.0783 35.674V35.6704ZM56.2872 38.1321C56.164 38.0379 55.301 37.5122 55.2321 37.5665C54.8224 38.2554 55.3663 39.3177 55.8014 39.8941C56.0914 40.2785 57.0413 41.1667 57.5271 41.1667C57.7918 41.1667 57.7881 41.0688 57.8606 40.8767C58.1652 40.0319 57.6432 39.5425 57.1284 38.966C56.9 38.7086 56.5591 38.3352 56.2908 38.1321H56.2872ZM59.3181 38.9044C59.2456 38.8137 59.213 38.9116 59.2058 38.9878C59.0281 40.3908 59.9272 42.2072 58.8069 43.3602C57.3459 44.8647 55.5838 43.3855 54.1517 42.7366C53.5354 42.4574 52.7197 42.1238 52.0816 41.9136C52.0272 41.8954 51.922 41.8048 51.8821 41.8846C52.7414 42.5517 53.5572 43.2804 54.4092 43.9547C54.8733 44.3209 56.7259 45.8436 57.1464 45.9307C57.7301 46.0503 58.1109 45.8291 58.5495 45.4883C59.2094 44.9771 60.1738 43.8133 60.3805 43.0048C60.7938 41.3661 59.6408 40.3836 59.3181 38.908V38.9044ZM50.8887 42.6822C49.4784 41.1776 47.7418 40.0863 45.6426 39.8688C45.6535 40.0102 45.8493 40.1189 45.9581 40.2059C47.8578 41.7685 50.6024 43.2006 50.4102 46.0829C50.3994 46.2642 50.1782 47.2395 50.2398 47.3047L54.4128 47.7072C55.2938 47.6745 55.9282 47.2975 55.7868 46.3258C55.6853 45.6261 54.536 44.5892 53.985 44.1541C53.927 44.1106 53.9125 44.0454 53.8146 44.0708C53.9451 44.5131 54.3911 45.695 54.2171 46.0902C53.9886 46.605 53.104 45.6406 52.9082 45.4013C52.1795 44.5167 51.7226 43.5741 50.8887 42.6822ZM42.7132 45.2382C42.1404 44.6146 41.5857 43.9439 41.0781 43.2659C40.7808 42.8634 39.9723 41.4894 39.7004 41.2936C39.443 41.1087 38.6453 40.8585 38.3082 40.757C36.9522 40.3364 35.5093 40.1117 34.0917 40.0935L34.0627 40.2059C35.4114 41.1268 36.5498 42.3196 37.7897 43.3746C41.3681 46.4201 45.048 49.7882 49.3515 51.7388C50.6531 52.3297 52.0671 52.8953 53.4774 53.1455L50.4175 51.2964C47.6766 49.5381 44.9284 47.6419 42.7169 45.2345L42.7132 45.2382ZM18.6251 40.9492C18.549 40.8658 18.1357 41.3552 18.0885 41.4024C17.2039 42.1963 16.2758 42.965 15.4201 43.788C13.6364 45.492 13.0491 47.3591 13.6908 49.8064L14.0207 48.6317C14.9235 46.8225 16.9791 45.9053 17.9689 44.1795C18.5127 43.2296 18.7956 42.0441 18.6288 40.9528L18.6251 40.9492ZM18.2626 47.4969C18.2372 47.4788 18.1248 47.4026 18.1139 47.4171C18.1574 50.2849 15.025 51.5357 13.8684 53.8126C12.8533 55.8066 13.3174 58.2104 14.851 59.7911C14.8147 59.2183 14.7132 58.6418 14.7676 58.0617C15.0649 54.8966 20.1225 52.0904 19.1907 48.871C19.0493 48.3888 18.665 47.7978 18.2626 47.5005V47.4969Z" fill="#3B5C7F"/>
<path d="M36.561 19.8887L33.7657 21.4223L33.6823 21.5347C28.0627 24.7106 24.3067 29.8226 23.0233 36.1782C22.3526 39.5101 22.2075 42.7803 22.7876 46.1231C23.3677 49.4658 24.3103 52.7868 25.5901 55.9519C24.8577 57.4891 23.839 58.8668 22.8529 60.2445C21.7543 58.0583 21.1199 55.5712 20.6848 53.1602C19.4847 46.5255 19.3905 36.5661 22.7223 30.5405C24.9158 26.5742 29.0743 23.2205 33.0841 21.2084C34.1718 20.6609 35.3537 20.1062 36.5574 19.8887H36.561Z" fill="white"/>
<path d="M49.2719 38.3927C46.7449 37.5262 44.381 35.7678 41.8359 35.0137C40.44 34.6004 39.0841 34.6004 37.6955 35.0463C37.5759 35.2131 38.4424 36.0651 38.6019 36.2065C39.1313 36.6923 39.8346 37.1962 40.4256 37.6168C42.1368 38.8386 43.9713 39.861 45.7442 40.9849C45.853 41.0538 45.8783 41.0574 45.7297 41.0574C39.8237 39.571 28.523 36.9715 30.9122 28.5167C31.3799 26.8562 32.3261 25.2429 33.4101 23.9195C33.4536 23.9123 33.4464 23.9739 33.4392 24.0029C33.3703 24.2168 33.1673 24.5395 33.073 24.7715C32.2645 26.7402 31.5756 29.3578 32.6923 31.3374C33.4101 32.6136 35.1939 32.8311 36.5318 32.8891C37.7644 32.9399 38.7433 32.6208 39.9688 32.9725C40.8824 33.2335 41.9556 33.7774 42.8003 34.2269C45.0482 35.4234 47.2162 36.9062 49.2791 38.3927H49.2719Z" fill="white"/>
<path d="M28.5013 31.0146L28.9074 35.4631C29.4114 39.201 30.3249 42.3335 32.1268 45.64C33.0622 47.3549 34.2225 48.9138 35.3718 50.4837C35.3391 50.5163 35.0455 50.2408 35.002 50.2045C33.2327 48.5622 31.2966 46.2237 29.8754 44.2623C28.5049 42.3698 27.4572 40.0639 26.6306 37.885C26.4964 37.856 26.5399 37.9103 26.5036 37.9575C26.0794 38.5738 25.7568 39.2953 25.4668 39.9842C24.8359 41.496 24.3609 43.1021 23.9621 44.6937C23.7555 44.9258 23.6758 43.7293 23.6758 43.6423C23.683 42.6272 23.8389 41.438 23.9694 40.4156C24.3972 37.0873 25.3109 33.712 27.9031 31.4098C27.9901 31.3336 28.4252 30.9384 28.5013 31.0146Z" fill="white"/>
<path d="M42.7133 45.2377C44.9249 47.645 47.673 49.5412 50.4139 51.2996L53.4738 53.1486C52.0635 52.8984 50.6495 52.3292 49.3479 51.7419C45.0444 49.7914 41.3682 46.4232 37.7861 43.3778C36.5462 42.3228 35.4078 41.13 34.0591 40.2091L34.0881 40.0967C35.5057 40.1148 36.9486 40.3432 38.3046 40.7601C38.6417 40.8653 39.4394 41.1155 39.6968 41.2967C39.9687 41.4925 40.7772 42.8666 41.0745 43.269C41.5785 43.947 42.1368 44.6177 42.7096 45.2413L42.7133 45.2377Z" fill="white"/>
<path d="M21.2356 31.2407C21.0362 32.7707 20.1008 33.3943 18.6469 33.5611C16.3411 33.8257 13.9628 33.2964 11.7149 34.007C11.211 34.1665 10.7215 34.4058 10.2285 34.5907C10.2176 34.4711 10.272 34.3587 10.3155 34.2499C10.5946 33.5248 11.4321 31.7447 11.9615 31.2407C13.4806 29.7869 16.6783 31.1428 18.5418 31.2407C19.4264 31.2879 20.351 31.2008 21.2392 31.2407H21.2356Z" fill="white"/>
<path d="M18.2626 47.4963C18.6614 47.7973 19.0494 48.3846 19.1908 48.8668C20.1225 52.0863 15.0649 54.8924 14.7676 58.0575C14.7132 58.6376 14.8147 59.2141 14.851 59.7869C13.3174 58.2062 12.8533 55.8061 13.8685 53.8084C15.0287 51.5316 18.1575 50.2808 18.114 47.413C18.1249 47.3985 18.2336 47.4746 18.2626 47.4927V47.4963Z" fill="white"/>
<path d="M18.7156 25.1887C19.5423 25.8811 20.1985 26.7803 21.1773 27.2987C21.9315 27.6975 22.7798 27.7628 23.6173 27.7809C23.291 28.1943 22.8451 28.5024 22.3665 28.7163C21.123 29.2747 19.5024 29.3617 18.2443 28.8142C16.2611 27.9513 15.5469 25.1887 13.1468 25.0001C12.777 24.9711 12.4072 25.04 12.041 25.0292C13.3498 24.0503 14.9813 23.5101 16.6056 23.9814C17.3307 24.1917 18.1392 24.7065 18.7156 25.1923V25.1887Z" fill="white"/>
<path d="M34.2335 10.0117C34.2335 10.0552 34.2407 10.0951 34.277 10.1241C35.7345 11.3314 37.6342 12.4155 37.2173 14.6705C36.8873 16.4543 34.7483 17.3933 34.9151 19.3221C33.9471 19.2278 33.0226 18.423 32.9283 17.4187C32.8848 16.9619 32.9682 16.5268 33.0697 16.0845C33.5192 14.1013 34.7591 12.1254 34.121 10.0407L34.2335 10.0117Z" fill="white"/>
<path d="M46.0704 32.853C47.14 33.7631 48.3073 35.0827 48.9998 36.3082C49.1376 36.5547 49.3587 36.9318 49.3587 37.2001C48.3399 36.5148 47.3176 35.8296 46.2843 35.1661C43.6376 33.4766 41.1397 31.9068 37.9637 31.3557C36.1219 28.9483 38.9063 29.5647 40.3312 29.9381C42.4231 30.4856 44.4244 31.4463 46.074 32.853H46.0704Z" fill="white"/>
<path d="M16.439 17.049C20.3074 17.4224 21.5074 22.5199 24.6 24.3834C25.1439 24.7097 25.753 24.9128 26.3403 25.1375C25.5354 25.3079 24.6943 25.3913 23.8677 25.3369C19.1508 25.0469 19.3575 19.7681 16.0837 17.6254L14.9888 17.049C15.4565 17.0816 15.9749 17.0055 16.4354 17.049H16.439Z" fill="white"/>
<path d="M50.8887 42.6825C51.7262 43.5744 52.1794 44.5171 52.9082 45.4017C53.1039 45.6374 53.9886 46.6054 54.217 46.0906C54.391 45.6954 53.9451 44.5135 53.8145 44.0711C53.9124 44.0458 53.9269 44.111 53.9849 44.1545C54.536 44.5896 55.6853 45.6265 55.7868 46.3262C55.9282 47.2979 55.2901 47.6749 54.4127 47.7075L50.2398 47.3051C50.1782 47.2398 50.3993 46.2646 50.4102 46.0833C50.6024 43.201 47.8578 41.7725 45.958 40.2063C45.8529 40.1193 45.6535 40.0105 45.6426 39.8691C47.7418 40.0867 49.4784 41.178 50.8887 42.6825Z" fill="white"/>
<path d="M19.0783 35.6706C19.1835 39.7276 13.8648 39.7348 12.4254 42.8963L12.0412 44.1834C11.762 42.7513 11.6822 41.2467 12.081 39.8255C12.7445 37.4689 14.7567 37.3529 16.7254 36.635C17.523 36.345 18.2771 35.9353 19.0783 35.667V35.6706Z" fill="white"/>
<path d="M25.8111 16.7885C27.0438 18.0066 26.5834 19.6925 27.265 21.15C27.5514 21.7627 27.9828 22.1905 28.4396 22.6691C27.0764 22.5494 25.6516 22.6401 24.6655 21.5343C23.2262 19.9209 23.8316 17.3976 22.1965 15.5449C22.066 15.3999 21.7687 15.2911 21.8013 15.0627C21.8883 14.9757 23.8715 15.7226 24.1289 15.8277C24.6655 16.0489 25.3978 16.3715 25.8111 16.7848V16.7885Z" fill="white"/>
<path d="M30.5207 14.2935C31.4996 15.1346 31.7642 15.8996 31.6772 17.1903C31.6228 18.0387 31.2784 18.8544 31.6084 19.6992C31.7135 19.9674 31.9383 20.1306 32.0724 20.3662C31.4887 20.7506 30.5279 20.5656 29.9551 20.214C29.2952 19.8079 29.1829 19.333 28.9798 18.6369C28.4469 16.8024 28.2004 14.8482 27.7617 12.9883C28.1968 13.0028 28.7369 13.2348 29.143 13.4233C29.6179 13.6445 30.1183 13.949 30.5171 14.2898L30.5207 14.2935Z" fill="white"/>
<path d="M57.4694 36.613C57.7595 36.9683 58.1002 37.2946 58.412 37.6282C58.4302 37.7043 58.4084 37.7369 58.3287 37.7115C58.064 37.6318 57.3752 37.2185 57.1105 37.0553C53.6953 34.9054 52.2849 30.6273 49.0981 28.209L47.3433 27.0996C49.7905 27.3316 51.7955 28.6586 53.271 30.5656C54.7503 32.4835 55.9467 34.7422 57.4694 36.613Z" fill="white"/>
<path d="M18.6254 40.9489C18.7922 42.0402 18.5094 43.2258 17.9655 44.1756C16.9758 45.9014 14.9237 46.8187 14.0173 48.6278L13.6874 49.8025C13.0457 47.3589 13.633 45.4881 15.4168 43.7841C16.276 42.9647 17.2042 42.1961 18.0852 41.3985C18.136 41.355 18.5493 40.8655 18.6218 40.9453L18.6254 40.9489Z" fill="white"/>
<path d="M59.3183 38.904C59.641 40.3796 60.794 41.3657 60.3806 43.0008C60.1776 43.8129 59.2096 44.9731 58.5497 45.4843C58.111 45.8251 57.7303 46.0463 57.1466 45.9266C56.7297 45.8433 54.8735 44.3169 54.4094 43.9507C53.5574 43.2764 52.7416 42.544 51.8823 41.8805C51.9222 41.8008 52.0274 41.8914 52.0817 41.9095C52.7198 42.1235 53.5356 42.4534 54.1519 42.7325C55.5804 43.3779 57.3424 44.8607 58.8071 43.3561C59.9238 42.2068 59.0247 40.3904 59.206 38.9837C59.2169 38.904 59.2458 38.8097 59.3183 38.9003V38.904Z" fill="white"/>
<path d="M44.0514 14.5544C44.1892 17.2301 42.6845 20.0507 40.3968 21.4176C39.8856 20.6816 39.476 19.8296 39.6971 18.9087C40.0524 17.4367 41.8434 16.8893 42.8404 15.9503C43.2175 15.595 43.5511 15.0439 43.8919 14.6451C43.9426 14.5871 43.9462 14.5254 44.0514 14.5508V14.5544Z" fill="white"/>
<path d="M43.8225 20.7979C43.8516 20.9248 43.9133 21.0698 43.9821 21.1786C45.755 23.9485 49.2282 24.8477 51.0881 27.5523C50.3739 27.2985 49.6307 27.0338 48.931 26.7293C46.9442 25.8592 44.3809 24.4525 43.8371 22.172C43.7537 21.8203 43.6631 21.233 43.7066 20.8813C43.7175 20.8016 43.7355 20.7182 43.8189 20.7979H43.8225Z" fill="white"/>
<path d="M49.1924 23.2127C47.9271 24.7209 46.2739 22.6761 45.3276 21.8168L44.791 21.0772C45.3493 21.0627 46.0781 21.0482 46.6074 20.8815C46.8467 20.8053 47.0932 20.5225 47.2599 20.5117C47.608 20.4899 48.3331 20.6603 48.6667 20.8017C49.7507 21.2585 49.9247 22.3317 49.1887 23.2091L49.1924 23.2127Z" fill="white"/>
<path d="M39.5337 17.416C38.9609 17.8946 38.3771 18.3659 37.7789 18.8155C36.3577 17.8982 37.1517 16.9955 38.0799 16.1471C38.8304 15.4619 40.2407 14.6932 39.8781 13.4787C39.8636 13.4315 39.6207 13.0509 39.8201 13.1379C39.9071 13.1778 40.2479 13.5004 40.3313 13.5911C41.1797 14.5301 41.3609 15.6322 40.469 16.6256C40.1971 16.9302 39.8383 17.155 39.5301 17.416H39.5337Z" fill="white"/>
<path d="M45.1571 27.4953C46.1432 27.5786 47.2562 28.0753 47.9088 28.8295C48.4381 29.4458 48.3765 29.9643 48.0539 30.6712C47.6587 30.1637 47.2889 29.4132 46.5746 29.3153C46.4224 29.2935 46.0634 29.2863 45.9256 29.337C45.7734 29.395 45.9257 29.4204 45.9402 29.4349C46.1939 29.7358 46.3136 29.7105 46.5891 29.8627C46.9299 30.0513 47.0931 30.2072 46.832 30.5842C46.7958 30.6386 46.1142 31.2731 46.0671 31.2984C45.9511 31.3673 45.8822 31.3601 45.7661 31.2803L44.5081 29.6126L45.4688 28.1189C45.0773 27.9775 44.5878 27.8216 44.2217 27.633C44.1564 27.6004 44.0658 27.5823 44.0513 27.4916C44.4102 27.5134 44.8018 27.4626 45.1571 27.4916V27.4953Z" fill="white"/>
<path d="M56.2873 38.132C56.5556 38.335 56.8964 38.7085 57.1248 38.9659C57.6396 39.5423 58.1616 40.0318 57.8571 40.8766C57.7882 41.0723 57.7882 41.1666 57.5236 41.1666C57.0377 41.1666 56.0915 40.2783 55.7978 39.894C55.3627 39.3176 54.8189 38.2553 55.2286 37.5664C55.2975 37.5121 56.1604 38.0378 56.2837 38.132H56.2873Z" fill="white"/>
<path d="M44.3921 18.7537C43.8591 17.3253 44.4791 16.8105 45.5631 16.0962C46.2266 15.6612 47.0605 15.2841 47.6986 14.8382C47.753 14.8019 47.7094 14.704 47.7964 14.7258C47.9632 16.5385 46.1976 17.1223 45.1027 18.0758C44.8887 18.2643 44.7437 18.4818 44.5625 18.6704C44.5081 18.7247 44.49 18.7791 44.3921 18.7574V18.7537Z" fill="white"/>
<path d="M50.124 22.4438C50.4938 21.0226 49.3807 20.2467 48.1081 20.1162L48.0791 20.0038C48.3909 19.924 48.8732 19.518 49.1414 19.4491C49.6817 19.3113 50.7983 19.6195 51.1428 20.0872C51.712 20.8667 51.1065 21.7042 50.4901 22.2154C50.4394 22.2589 50.1602 22.4837 50.124 22.4438Z" fill="white"/>
<path d="M48.0828 17.448C48.1335 17.5132 47.9377 18.2818 47.8978 18.4232C47.4918 19.8299 46.3135 21.3962 44.9648 19.8009L48.0864 17.4443L48.0828 17.448Z" fill="white"/>
<path d="M51.828 21.0804C52.1651 19.884 51.15 19.0791 50.0659 18.9522C50.4285 18.8399 51.5488 18.0205 51.8461 18.0314C52.4153 18.0495 52.8467 18.7891 52.9881 19.2677C53.144 19.8079 53.1042 19.8224 52.7634 20.2321C52.6002 20.4278 52.1905 20.8484 51.9984 20.997C51.9403 21.0405 51.9259 21.1058 51.828 21.0804Z" fill="white"/>
<path d="M53.5317 19.5471C53.4483 18.7567 53.0242 18.1621 52.397 17.7017L53.006 17.3428C53.916 17.5712 54.2605 18.1476 53.9306 19.0685C53.9016 19.1519 53.6405 19.6486 53.5317 19.5471Z" fill="white"/>
<path d="M54.6849 18.4919C54.6486 18.5173 54.6922 18.626 54.5508 18.5825C54.4855 17.9082 54.3405 17.3499 53.6987 17.0236C54.1157 16.777 54.4166 16.487 54.8843 16.7988C55.6239 17.2918 55.2578 18.0496 54.6813 18.4919H54.6849Z" fill="white"/>
<path d="M56.4035 16.7443C56.244 16.9437 55.9974 17.1648 55.8016 17.3316C55.8089 16.8857 55.4645 16.5703 55.0983 16.3709L55.062 16.2548C55.4935 16.1968 56.2766 15.4355 56.621 15.914C56.8494 16.2295 56.5957 16.5014 56.4035 16.7443Z" fill="white"/>
<path d="M58.2416 14.8962L58.1873 15.1536L57.1903 16.0274C57.0634 15.7663 57.0163 15.5561 56.7661 15.3748L58.2416 14.8926V14.8962Z" fill="white"/>
</svg>
