<svg width="22" height="22" viewBox="0 0 22 22" fill="none" xmlns="http://www.w3.org/2000/svg">
<path d="M20.1663 11C20.1663 16.0626 16.0622 20.1667 10.9997 20.1667C5.93706 20.1667 1.83301 16.0626 1.83301 11C1.83301 5.93743 5.93706 1.83337 10.9997 1.83337C16.0622 1.83337 20.1663 5.93743 20.1663 11Z" fill="white"/>
<path fill-rule="evenodd" clip-rule="evenodd" d="M11 6.64587C11.3797 6.64587 11.6875 6.95368 11.6875 7.33337V10.7152L13.7778 12.8056C14.0463 13.0741 14.0463 13.5093 13.7778 13.7778C13.5093 14.0463 13.074 14.0463 12.8056 13.7778L10.5139 11.4861C10.3849 11.3573 10.3125 11.1824 10.3125 11V7.33337C10.3125 6.95368 10.6203 6.64587 11 6.64587Z" fill="black"/>
</svg>
